<svg xmlns="http://www.w3.org/2000/svg" viewBox="0 0 100 100" fill="currentColor" class="text-white"><path d="M54.86 34.37c.05.8.9 1.09 1.48.85 2.21.65 4.73.73 7.03.7 1.65 0 3.47-.05 5.14-.24-.58 1.48-.58 3.15-.73 4.73-.17 2.23-.17 4.44-.07 6.66h-.12c-4.05 1.26-8.14-.34-12.21.24-.51.1-.63.68-.41 1.07-2.74 5.33-1.48 13.94-1.31 19.53.22 7.97.82 16.67.1 24.6-2.52-.29-5.14.12-7.66-.1-2.21-.17-4.22-.32-6.28.41-.12-7.71.07-15.46.27-23.19.17-7.22 1.07-14.78-.1-21.93-.07-.44-.68-.53-1.02-.32-.15-.24-.39-.41-.8-.44-1.62-.05-3.25.12-4.87.17-.8.05-1.82-.17-2.69-.07-.36-1.58.05-3.39.12-4.99.07-1.79.17-3.85-.07-5.72 1.5.27 3.03.29 4.56.17 1.19-.1 2.54-.15 3.71-.61.34-.02.65-.17.85-.44.02-.02.05-.02.07-.05.39-.29.32-.68.07-.97-.56-7.32-.29-18.2 5.57-22.98 6.01-4.92 16.96-3.51 24.4-2.59-1.79 3.01-1.24 7.03-2.06 10.32-3.47-1.55-8.97-1.02-11.37 1.55-3.37 3.58-1.82 9.35-1.6 13.64z"/><path d="M64.07 34.1c1.79-.1 4.05-.58 5.5.68.12.12.15.27.12.44 1.65 3.42.05 8.77-.22 12.34-.02.46-.36.73-.73.78-.1.27-.29.51-.63.61-3.8 1.19-8.29.58-12.21-.15.53 7.32-.36 15.05-.27 22.39.07 7.1 1.16 14.88-.07 21.91-.02.19-.15.32-.27.41-.07.22-.19.39-.44.46-2.74.65-5.99.63-8.77.34-2.11-.22-4.75.17-6.71-.68-.44.15-1.04-.05-1.04-.63-.24-7.83-.63-15.51-.44-23.36.15-6.91-.29-14.13.73-21.01-.12.07-.27.15-.46.15-1.87.19-3.76.36-5.65.19-.78-.07-1.89-.15-2.52-.7-.41.15-.9.05-1.16-.39-.92-1.5-.36-3.73-.29-5.4.12-2.16-.36-4.9.7-6.88-.1-.51.19-1.11.85-1.04 1.5.15 3.03.15 4.53.05.9-.07 1.84-.32 2.76-.46-.78-3.78.22-8.75.7-12.38.63-4.6 2.01-9.04 5.74-12.04 3.39-2.74 7.61-3.78 11.88-3.9 4.85-.12 10.88-1.11 15.2 1.43.12.07.22.19.29.29.29.05.56.32.48.63-.39 2.28-.82 4.56-.99 6.86-.12 1.65-.05 3.39-.65 4.97-.12.34-.36.56-.63.65-.07.15-.19.27-.36.32-3.78 1.02-8.94-2.3-11.56 2.21-1.89 3.22-.68 7.73-.58 11.2 2.35-.56 4.75-.19 7.17-.29zm3.76-14.91c.82-3.3.27-7.32 2.06-10.32-7.44-.92-18.39-2.33-24.4 2.59-5.86 4.77-6.13 15.66-5.57 22.98.24.29.32.68-.07.97-.02.02-.05.02-.07.05-.19.27-.51.41-.85.44-1.16.46-2.52.51-3.71.61-1.53.12-3.05.1-4.56-.17.24 1.87.15 3.93.07 5.72-.07 1.6-.48 3.42-.12 4.99.87-.1 1.89.12 2.69.07 1.62-.05 3.25-.22 4.87-.17.41.02.65.19.8.44.34-.22.95-.12 1.02.32 1.16 7.15.27 14.71.1 21.93-.19 7.73-.39 15.49-.27 23.19 2.06-.73 4.07-.58 6.28-.41 2.52.22 5.14-.19 7.66.1.73-7.92.12-16.63-.1-24.6-.17-5.6-1.43-14.2 1.31-19.53-.22-.39-.1-.97.41-1.07 4.07-.58 8.17 1.02 12.21-.24h.12c-.1-2.23-.1-4.44.07-6.66.15-1.58.15-3.25.73-4.73-1.67.19-3.49.24-5.14.24-2.3.02-4.82-.05-7.03-.7-.58.24-1.43-.05-1.48-.85-.22-4.29-1.77-10.06 1.6-13.62 2.4-2.58 7.9-3.12 11.37-1.57z"/></svg>