<svg xmlns="http://www.w3.org/2000/svg" viewBox="0 0 100 100"><path d="M96.08 94.23a.47.47 0 01-.08-.26c-.05-.4-.13-.8-.19-1.22-2.66-.19-5.45-.05-8-.11-3.22-.03-6.57.27-9.76.93 0-.08.03-.13 0-.19-1.68-8.24 5.32-44.65-12.9-41.88-16.81 2.58-8.03 30.85-10.21 41.8-6.41-.27-12.42-.96-18.8-.27.61-2.98.43-6.41.43-9.39.03-6.09.27-12.15.51-18.24.37-9.92.64-20.58-.61-30.5 2.9.61 6.09.32 8.96.24 2.9-.08 6.14.16 9.09-.32-.03 1.44.08 2.85.21 4.28.13 1.33 0 2.71.61 3.94.16.29.72.32.88 0 .13-.32.21-.61.27-.9 12.92-11.01 34.46-10.08 38.69 9.33.93 4.31 1.09 9.01 1.12 13.69-.9 2.21-.51 5.82-.45 7.53.16 7.1.29 14.17.21 21.27 0 .11.03.19.05.27h-.03z"/><path d="M54.95 93.3c2.18-10.96-6.59-39.22 10.21-41.8 18.21-2.77 11.22 33.64 12.9 41.88.03.05 0 .11 0 .19 3.19-.66 6.54-.96 9.76-.93 2.55.05 5.34-.08 8 .11.05.43.13.82.19 1.22 0 .11.03.19.08.27.03.19.11.35.16.51-2.5.35-5.13 0-7.66-.11-3.96-.16-8.06.82-11.99.11-.24-.03-.35-.21-.35-.43-.08-.11-.16-.24-.21-.4-1.52-6.46.08-14.17-.21-20.85-.11-2.71-.16-5.45-.43-8.14-.69-6.91-4.55-14.17-12.9-11.06-8.27 3.06-6.06 17.76-6.04 24.41 0 2.55.16 5.16.11 7.74.11.03.19.08.21.24.48 2.87-.24 6.06-.56 8.96-.03.16-.32.24-.35.03-.05-.24-.08-.51-.11-.74-.05.03-.08.08-.13.11-2.93.88-5.98-.21-8.93-.43-3.8-.27-7.61.37-11.41-.03-.43.08-.88-.05-1.01-.59-.96-3.62.19-8.32.16-12.02-.03-6.62.4-13.24.56-19.84.13-6.22-.03-12.44-.35-18.64-.16-2.82-.72-5.96.69-8.4-.11-.03-.21-.05-.32-.08-.4-.13-.48-.8 0-.88 3.35-.69 6.99-.21 10.4-.21 3.46-.03 7.45-.66 10.77.32.35.11.35.56 0 .66-.13.03-.27.05-.43.08.16 1.52.35 3.03.56 4.55.08.77.21 1.52.21 2.26 9.87-9.84 25.55-11.33 35.02-.24 5.32 6.25 5.85 12.6 6.17 20.48.08 1.97.19 3.94.27 5.9-.16.03-.32.11-.48.16-.64 8.7-.35 17.52-.24 26.3 0 .66-.93.74-1.17.27a.722.722 0 01-.05-.27c.08-7.1-.05-14.17-.21-21.27-.05-1.7-.45-5.32.45-7.53-.03-4.68-.19-9.39-1.12-13.69-4.23-19.41-25.77-20.34-38.69-9.33-.05.29-.13.59-.27.9-.16.32-.72.29-.88 0-.61-1.22-.48-2.61-.61-3.94-.13-1.44-.24-2.85-.21-4.28-2.95.48-6.2.24-9.09.32-2.87.08-6.06.37-8.96-.24 1.25 9.92.98 20.58.61 30.5-.24 6.09-.48 12.15-.51 18.24 0 2.98.19 6.41-.43 9.39 6.4-.69 12.41 0 18.82.26zM8.36 8.4c3.67-1.52 7.47-2.74 11.35-.9 5.24 2.5 6.17 10.8 2.71 15.13-3.59 4.47-10.45 4.07-14.76.9-5.2-3.83-4.83-11.81.7-15.13zm4.15 26.56c3.72 0 7.55.66 11.14-.64-.51 3.48-.48 7.02-.56 10.53-.05 3.14-.27 6.36.11 9.49-.64 5.5-.74 11.12-1.06 16.62-.4 7.5-1.09 15.13-.66 22.66-3.67 0-7.23-.16-10.96-.53-1.36-.13-3.86-.59-5.27.21-.08-2.55.08-5.19-.21-7.74.03-.03.08-.05.13-.08.08-2.13.32-4.25.48-6.46.43-5.4.16-10.8.4-16.19.37-9.28 1.01-18.43-.24-27.68 2.04.48 4.81-.19 6.7-.19z"/><path d="M3.68 94.21c-.21-2.69-.27-5.45.11-8.14l-.35.16c-.27-6.54.64-13.38.64-19.65 0-5.27.53-10.48.53-15.74.03-5.32-.64-10.72-.11-16.04.03-.11.08-.19.16-.27-.03-.05-.08-.05-.08-.11v-.05c0-.13.08-.21.19-.29 1.57-.93 4.97-.45 6.75-.53 4.12-.13 8.08.05 12.23-.4.32-.05.53.24.56.53.03 0 .03.03.05.05.56 3.67.37 7.39.27 11.12-.05 2.79.03 5.69-.24 8.48.53 5.82 0 11.83-.32 17.63-.43 7.55-.56 15.13-1.12 22.68.27 0 .51.03.74 0 .88 0 .88 1.33 0 1.3h-1.51c-3.38.03-6.73.13-10.1-.05-1.94-.11-5.08.56-7.02-.16-.42.38-1.33.2-1.38-.52zm17.79-.59c-.43-7.53.27-15.16.66-22.66.32-5.5.43-11.12 1.06-16.62-.37-3.14-.16-6.36-.11-9.49.08-3.51.05-7.05.56-10.53-3.59 1.3-7.42.64-11.14.64-1.89 0-4.65.66-6.7.19 1.25 9.25.61 18.4.24 27.68-.24 5.4.03 10.8-.4 16.19-.16 2.21-.4 4.33-.48 6.46-.05.03-.11.05-.13.08.29 2.55.13 5.19.21 7.74 1.41-.8 3.91-.35 5.27-.21 3.73.37 7.29.53 10.96.53zM3.79 9.51c5.03-4.97 14.78-7.39 19.89-1.14 3.7 4.52 2.71 12.9-2.07 16.3-5.11 3.67-13.73 3.09-17.64-2.07-2.85-3.75-2.45-8.91.16-12.47-.34.1-.61-.35-.34-.62zM8.36 8.4c-5.53 3.32-5.9 11.3-.69 15.13 4.31 3.16 11.17 3.56 14.76-.9C25.89 18.3 24.96 10 19.72 7.5c-3.89-1.84-7.69-.62-11.36.9z"/></svg>