<svg xmlns="http://www.w3.org/2000/svg" viewBox="0 0 100 100"><path d="M74.43 20.67c-.24 1.44-2.06 2.24-3.31 2.06-1.15-.16-2.19-.91-2.51-2.06-.37-1.26.24-2.62 1.36-3.23 1.26-.69 2.62-.37 3.66.43.86.67 1.04 1.84.72 2.81.05-.03.05-.05.08-.08v.07z"/><path d="M73.63 17.86c-1.04-.8-2.41-1.12-3.66-.43-1.12.61-1.74 1.98-1.36 3.23.32 1.15 1.36 1.9 2.51 2.06 1.26.19 3.07-.61 3.31-2.06v-.08c-.03.03-.03.05-.08.08.32-.95.13-2.13-.72-2.8zm-61.47-4.7c3.58 6.44 8.98 11.06 15.34 14.7 6.25 3.55 13.28 8.18 20.69 8.66.72.56 1.98.21 1.87-.72a.44.44 0 00-.08-.37c-2.73-7.46 2.65-16.68 8.82-20.31 5.08-2.99 10.85-3.53 16.2-.94 2.54 1.23 4.25 3.47 6.98 4.01.03 0 .03-.03.03-.03 1.1.29 2.41-.19 3.45-.51 2.59-.83 5.13-1.84 7.43-3.26.11-.08.24-.16.37-.21-.45.64-.83 1.36-1.2 1.92-1.71 2.67-3.34 4.73-5.77 6.79-.72.61.11 1.36.8 1.26 1.36.78 3.18.4 4.68.19 1.34-.19 2.59-.61 3.77-1.18-1.26 1.04-2.38 2.19-3.53 3.42-.96 1.02-1.9 2.08-2.97 2.97-.35.29-.72.56-1.1.8-.53-.13-1.18.05-1.26.67-.03.16-.05.32-.08.45-.11.13-.21.21-.29.35-.19.27-.08.53.11.69-2.46 15.07-6.57 30.89-18.89 41-6.63 5.43-13.63 8.9-21.83 11.36-2 .59-4.2 1.2-6.49 1.74-1.18 0-2.41.27-3.5.45-1.04.16-2.08.27-3.1.32-3.53-.67-7.22-1.02-10.85-1.12v-.03c-.72-.08-1.42-.16-2.11-.27-5.24-.83-9.51-2.03-14.11-3.93 3.74.51 8.26-.61 11.33-1.55 3.1-.94 6.09-2.41 9.03-3.71 1.58-.69 2.49-1.02 3.26-2.33.61.11 1.26.08 2-.24.53-.21.51-1.07 0-1.34-3.39-1.63-6.87-3.31-10.02-5.37-2.97-1.95-4.78-4.44-6.73-7.14.75.16 1.52.19 2.11.19 1.07-.03 4.81-.13 5.08-1.47.03-.08 0-.16-.05-.21h-.03c.27-.32.16-.94-.21-1.18-3.47-2.19-7-4.46-9.92-7.4-1.9-1.95-3.1-3.82-4.01-6.39-.29-.83-.53-1.63-.8-2.41.56.35 1.15.61 1.58.8 1.63.72 4.3 1.66 6.04.88.32-.13.4-.59.21-.88.45-.32.67-1.02.19-1.5-2.59-2.73-4.57-3.63-6.07-7.64-1.15-3.05-1.28-6.52-.96-9.73.4-3.9 1.76-5.85 3.77-9.06.55-.92.69-.63.82-1.19z"/><path d="M27.5 27.86c-6.36-3.63-11.76-8.26-15.34-14.7-.13.56-.27.27-.86 1.2-2 3.21-3.37 5.16-3.77 9.06-.32 3.21-.19 6.68.96 9.73 1.5 4.01 3.47 4.92 6.07 7.64.48.48.27 1.18-.19 1.5.19.29.11.75-.21.88-1.74.78-4.41-.16-6.04-.88-.43-.19-1.02-.45-1.58-.8.27.78.51 1.58.8 2.41.91 2.57 2.11 4.44 4.01 6.39 2.91 2.94 6.44 5.21 9.92 7.4.37.24.48.86.21 1.18h.03c.05.05.08.13.05.21-.27 1.34-4.01 1.44-5.08 1.47-.59 0-1.36-.03-2.11-.19 1.95 2.7 3.77 5.18 6.73 7.14 3.15 2.06 6.63 3.74 10.02 5.37.51.27.53 1.12 0 1.34-.75.32-1.39.35-2 .24-.78 1.31-1.68 1.63-3.26 2.33-2.94 1.31-5.93 2.78-9.03 3.71-3.07.94-7.59 2.06-11.33 1.55 4.6 1.9 8.87 3.1 14.11 3.93.69.11 1.39.19 2.11.27v.03c3.63.11 7.32.45 10.85 1.12 1.02-.05 2.06-.16 3.1-.32 1.1-.19 2.33-.45 3.5-.45 2.3-.53 4.49-1.15 6.49-1.74 8.2-2.46 15.21-5.93 21.83-11.36 12.32-10.1 16.44-25.92 18.89-41-.19-.16-.29-.43-.11-.69.08-.13.19-.21.29-.35.03-.13.05-.29.08-.45.08-.61.72-.8 1.26-.67.37-.24.75-.51 1.1-.8 1.07-.88 2-1.95 2.97-2.97 1.15-1.23 2.27-2.38 3.53-3.42-1.18.56-2.43.99-3.77 1.18-1.5.21-3.31.59-4.68-.19-.69.11-1.52-.64-.8-1.26 2.43-2.06 4.06-4.12 5.77-6.79.37-.56.75-1.28 1.2-1.92-.13.05-.27.13-.37.21-2.3 1.42-4.84 2.43-7.43 3.26-1.04.32-2.35.8-3.45.51 0 0 0 .03-.03.03-2.73-.53-4.44-2.78-6.98-4.01-5.35-2.59-11.12-2.06-16.2.94-6.17 3.63-11.55 12.85-8.82 20.31.08.11.11.24.08.37.11.94-1.15 1.28-1.87.72-7.37-.49-14.4-5.12-20.65-8.67zm69.83-5.8c-1.79 2.11-3.13 4.62-4.84 6.76-.88 1.1-2.3 2.75-3.82 3.5-.75 17.96-8.37 35.33-23.09 46.07-7.86 5.72-16.89 8.93-26.38 10.82-.21.05-.45.11-.69.13-.21 0-.43.03-.64.03-1.18.19-2.51.08-3.47.21-.78.13-1.71.27-2.51.08-.27.05-.56.08-.83.11-.03 0-.05 0-.08-.03-1.66 0-3.39-.27-4.76-.37-2.46-.19-5.45 0-7.75-1.12C12.43 87.08 6.71 85 2.35 81.02v-.03c-.19-.11-.4-.19-.59-.32-.11-.08-.08-.21.05-.21 4.92-.35 9.73-.21 14.54-1.68 3.85-1.18 7.7-2.97 11.3-4.84-.35-.16-.69-.37-1.07-.59-2.3-1.34-4.65-2.67-6.79-4.25-2.62-1.95-7.03-5.77-7.24-9.49-.4-.29-.72-.67-.8-1.2-.05-.24.19-.37.37-.29 1.92.83 3.39 1.2 5.51 1.04.35-.05.91-.19 1.5-.32-.83-.29-1.58-.83-2.43-1.5-2.16-1.63-4.36-3.31-6.31-5.24-3.13-3.07-6.07-7.83-5.72-12.43-.13-.35-.21-.72-.13-1.12.03-.13.21-.24.35-.19.61.21.96.67 1.47 1.07.83.67 1.84 1.18 2.86 1.55 1.04.4 2.19.51 3.29.69-8.69-6.78-10.93-22.87-.89-29.44.29-.19.61.08.61.37.16-.13.4-.16.59.03 2.33 2.22 3.96 5 6.41 7.14 3.13 2.7 6.65 5 10.34 6.84 3.93 1.98 8.07 4.52 12.21 5.96 1.79.64 3.61 1.04 5.37 1.58-1.98-7.91 4.06-17.24 10.4-21.01 4.49-2.65 9.78-3.74 14.86-2.27 3.18.91 7.91 2.97 9.33 6.25 1.82-.53 3.63-.96 5.48-1.63 2.67-.96 5.16-2.33 7.83-3.29.21-.08.37.19.29.35-1.6 3.13-3.31 7.99-6.33 10.45 1.07-.16 2.14-.35 3.21-.61 1.95-.48 3.77-1.36 5.8-1.36.21 0 .37.27.19.43-.26.23-.58.41-.88.6z"/></svg>