<svg xmlns="http://www.w3.org/2000/svg" viewBox="0 0 100 100"><path d="M24.54 93.44c-.52-.53-.97-1.11-1.65-1.51-.2-.12-.33-.27-.44-.44-.38-.61-1.02-1.06-1.46-1.63-.09-.12-.2-.26-.35-.33-.73-.36-1.17-.95-1.69-1.47-1.42-1.43-2.82-2.87-4.24-4.31-.37-.38-.73-.76-1.2-1.06-.18-.11-.29-.3-.41-.46-.46-.63-.95-1.24-1.71-1.65-.3-.16-.5-.4-.64-.69-.13-.28-.28-.55-.59-.71-.66-.34-1.11-.86-1.59-1.35-.89-.92-1.95-1.67-3.09-2.35-.75-.44-.71-1.15-.44-1.57.67-1.03 1.45-2.01 2.5-2.81.13-.1.27-.2.42-.25 1.07-.36 2.07-.86 3.23-1.04 1.03-.16 1.98-.55 2.93-.92.79-.3 1.59-.6 2.24-1.1.17-.13.38-.24.59-.29.46-.12.81-.38 1.2-.59.34-.19.7-.35 1.05-.52.25-.12.51-.23.74-.38.46-.3.93-.57 1.48-.76.42-.14.75-.47 1.17-.62.81-.3 1.5-.73 2.21-1.16.47-.28 1.02-.47 1.5-.73.49-.27.92-.61 1.49-.74.96-.55 2.02-.94 2.97-1.51 1.17-.71 2.34-1.43 3.53-2.11 1.05-.61 2.15-1.15 3.19-1.78.47-.28 1.04-.42 1.36-.87.08-.11.28-.17.42-.25.29-.16.6-.3.86-.49.3-.22.53-.52.84-.73.31-.21.71-.33 1.03-.54 1.2-.77 2.4-1.55 3.44-2.48.16-.14.37-.23.55-.35.27-.18.61-.33.8-.56.55-.72 1.36-1.21 2.11-1.75.76-.53 1.43-1.14 2.14-1.71.62-.5 1.11-1.12 1.83-1.55.87-1.04 1.99-1.9 2.9-2.92.77-.86 1.58-1.69 2.32-2.56.71-.84 1.38-1.7 2.06-2.55.18-.23.16-.48-.04-.68-.22-.23-.42-.5-.7-.65-.61-.32-1.04-.78-1.51-1.21-.88-.78-1.87-1.46-2.85-2.15-.67-.47-1.42-.85-1.99-1.43-.18-.18-.46-.3-.7-.43-.63-.35-1.26-.7-1.9-1.04-.3-.16-.51-.39-.69-.65-.19-.26-.29-.57-.11-.84.26-.39.21-.75.03-1.13-.09-.19-.02-.39.07-.57.02-.05.04-.09.08-.13.59-.67 1.17-1.34 1.78-1.99.1-.11.27-.18.43-.23.49-.16.97-.32 1.48-.43.68-.14 1.33-.33 1.95-.6.82-.36 1.7-.63 2.48-1.06.15-.08.3-.15.47-.2 1.49-.42 2.76-1.25 4.23-1.7.72-.41 1.48-.76 2.23-1.14.45-.22.89-.44 1.37-.63.89-.35 1.76-.71 2.56-1.22.64-.41 1.42-.65 2.14-.97.26-.11.51-.24.78-.33.87-.29 1.63-.74 2.34-1.25.84-.62 1.89-.95 2.81-1.46.59-.12 1.01-.47 1.48-.76.38-.23.73-.5 1.15-.66.51-.19.7-.65 1.15-.88.44-.23.96-.38 1.33-.67.73-.56 1.42-1.15 1.92-1.89.17-.25.35-.56.62-.7.71-.38 1.04-1.05 1.72-1.45.48-.28.95-.56 1.52-.68.39-.08.78-.2 1.17-.27.1-.02.25.02.32.08.4.35.8.71 1.18 1.08.11.11.17.26.22.4.28.72.54 1.47.8 2.23.06.19.18.39.15.57-.13.82.29 1.54.48 2.3.25 1.01.52 2.02.81 3.02.27.91.56 1.81.88 2.7.37 1.04.59 2.09.6 3.18.01 1.28.18 2.55.36 3.82.12.84.13 1.67.08 2.5-.03.64-.02 1.29.1 1.91.19.93.15 1.86.14 2.79 0 .25-.02.49 0 .74.03.63.16 1.27-.03 1.9-.07.23.03.49.03.73.02.64-.11 1.28.03 1.91-.23.62-.09 1.27-.17 1.91-.07.54-.08 1.08-.11 1.62-.01.19-.02.39-.05.58-.04.24-.16.48-.16.72.01 1.03-.26 2.04-.22 3.08.04 1.13-.11 2.25-.44 3.36-.21.71-.36 1.43-.2 2.19.17.81-.14 1.55-.7 2.22-.27.32-.52.65-1 .78-.09.02-.18.14-.21.22-.08.23-.14.48-.2.72-.09.36-.33.64-.67.83-.77.45-1.6.8-2.54.88-.22.02-.49.01-.67-.09-.48-.26-1.01-.48-1.42-.85-.71-.65-1.58-1.14-2.39-1.7-1.3-.9-2.72-1.67-4.12-2.44-.88-.49-1.75-.96-2.37-1.71-.2-.24-.51-.4-.84-.51-.29-.1-.6-.05-.77.17-.66.87-1.32 1.73-1.8 2.69-.52 1.04-1.09 2.07-1.66 3.09-.27.49-.63.94-.89 1.43-.43.81-1.02 1.54-1.32 2.4-.06.18-.2.36-.33.52-.44.58-.87 1.15-1.12 1.82-.1.27-.32.52-.52.76-.83 1-1.43 2.14-2.39 3.08-.07.07-.13.16-.18.25-.69 1.32-1.87 2.36-2.83 3.53-.16.2-.41.35-.6.53-.22.22-.44.46-.64.7-.34.4-.65.81-.99 1.21-.44.52-.91 1-1.47 1.44-.68.52-1.25 1.16-1.84 1.76-.45.46-.95.86-1.45 1.27-.5.41-1.04.78-1.44 1.27-.26.32-.69.53-.97.84-.78.87-1.75 1.57-2.73 2.27-.53.65-1.37 1.02-1.97 1.62-.56.55-1.29.98-1.97 1.45-1.26.87-2.52 1.73-3.79 2.59-.27.18-.57.34-.85.51-.19.11-.4.21-.54.35-.49.5-1.06.9-1.79 1.13-.15.05-.3.16-.41.27-.66.7-1.56 1.13-2.4 1.63-.42.26-.83.54-1.24.81-.32.21-.61.48-.96.62-.64.26-1.18.58-1.6 1.07-.2.23-.53.37-.86.48-1.1.33-2.07.88-2.98 1.48-.86.56-1.81.85-2.89.88-.39.01-.67-.12-.9-.36-.32-.32-.65-.66-.98-1zm-3.05-9.3c.01-.01.02-.02.03-.02.96.99 1.9 1.99 2.87 2.97.85.87 1.74 1.71 2.59 2.58.27.27.62.44.96.62.09.05.24.09.33.06 1.02-.34 2.12-.51 2.96-1.18.21-.17.46-.32.72-.4.62-.19 1.11-.53 1.6-.87.72-.5 1.44-.99 2.17-1.48.27-.18.54-.4.85-.51.87-.32 1.58-.82 2.28-1.34.48-.35 1.01-.67 1.44-1.06.45-.41 1.04-.61 1.53-.96 2.04-1.45 4.11-2.89 6.17-4.33.36-.25.68-.52.93-.87.33-.46.76-.85 1.34-1.13.24-.11.45-.31.62-.51 1-1.21 2.35-2.16 3.41-3.33.73-.5 1.3-1.13 1.83-1.77.37-.45.87-.8 1.21-1.25.38-.5.84-.94 1.31-1.37.16-.14.31-.3.43-.46.51-.72 1.19-1.32 1.78-1.99.69-.79 1.44-1.53 1.91-2.44.07-.13.2-.24.28-.37.41-.6.73-1.25 1.23-1.77.54-.56.71-1.23 1.08-1.83.16-.26.37-.5.54-.76.29-.43.6-.84.83-1.29.38-.77.97-1.45 1.24-2.27.08-.23.27-.43.41-.65.14-.21.33-.42.41-.65.25-.71.68-1.35 1.07-2.01.67-1.15 1.18-2.35 1.96-3.45.15-.21.24-.45.31-.69.33-1.07 1.02-1.96 1.83-2.81.55-.59 1.24-1.02 2.04-1.33.14-.05.35-.03.5.02.27.09.51.23.77.34.59.23 1.09.55 1.49.99.28.31.57.63.93.87 1 .67 1.89 1.45 2.9 2.1.88.56 1.73 1.16 2.72 1.58.47.2.9.44 1.32.71.46.3.98.52 1.48.77.23.12.4.06.58-.15.27-.32.51-.64.55-1.07.04-.39.19-.77.28-1.15.23-.96.42-1.93.32-2.92-.1-.93.15-1.86.02-2.8.23-.76-.01-1.58.41-2.32.05-.49.12-.98.14-1.47.01-.29-.05-.59-.05-.88-.01-1.42.11-2.85 0-4.27-.11-1.47-.01-2.95-.35-4.41-.08-.33-.05-.69-.02-1.03.1-1.04.01-2.06-.17-3.08-.19-1.12-.37-2.24-.51-3.36-.14-1.18-.26-2.35-.78-3.46-.13-.27-.17-.57-.25-.86-.21-.77-.48-1.53-.63-2.3-.17-.83-.64-1.58-.83-2.4-.15-.65-.59-.66-1.17-.47-.32.1-.62.28-.89.45-.69.45-1.38.9-2.02 1.4-.94.74-2.19 1.11-3.08 1.89-.38.12-.76.23-1.14.36-.16.05-.3.15-.45.22-.4.19-.8.39-1.21.58-1.31.62-2.63 1.24-3.93 1.87-.65.31-1.27.7-1.96.93-.71.24-1.31.63-2.01.87-1.45.5-2.76 1.24-4.14 1.85-.67.29-1.32.6-2.02.85-1.01.36-2.03.74-2.98 1.2-1.11.54-2.25 1.01-3.44 1.4-.55.18-1 .48-1.41.83-.03.03-.05.12-.03.14.56.49 1.07 1.03 1.69 1.46.95.64 1.91 1.27 2.74 2.03.2.18.45.31.67.46.72.49 1.46.96 2.14 1.5.59.47 1.22.9 1.96 1.2.31.12.63.27.88.47.58.44 1.04.93.71 1.67-.1.22-.1.48-.11.73-.01.26-.09.48-.27.68-.24.27-.45.58-.72.83-.28.25-.51.53-.75.81-.78.92-1.47 1.89-2.31 2.76-.87.91-1.58 1.94-2.57 2.77-.38.64-1.11.99-1.66 1.49-.55.5-.99 1.09-1.66 1.5-.42.26-.86.53-1.17.87-.42.47-.96.86-1.37 1.32-.68.76-1.53 1.33-2.37 1.93-1.5 1.08-3.06 2.11-4.44 3.31-.12.1-.23.25-.37.3-.98.29-1.52 1.04-2.3 1.53-.21.32-.54.49-.92.64-.36.14-.69.36-1.02.56-1.04.61-1.9 1.45-3.13 1.84-.21.07-.37.24-.56.35-.24.14-.46.33-.72.41-.9.27-1.57.83-2.31 1.3-.47.29-.89.66-1.4.87-.69.28-1.3.65-1.89 1.05-.5.34-1.05.6-1.61.86-.54.25-1.18.4-1.57.88-.12.14-.39.19-.6.28-.26.12-.54.2-.76.35-.81.57-1.86.8-2.63 1.41-1.17.34-2 1.16-3.15 1.54-.42.14-.73.52-1.15.65-.94.3-1.63.94-2.58 1.22-.21.06-.4.2-.58.33-1.01.69-2.13 1.16-3.39 1.44-.5.11-.98.29-1.47.44-.11.03-.21.08-.31.14-.1.05-.18.12-.27.18-.33.22-.41.51-.17.76 1.17 1.22 2.35 2.44 3.52 3.66.11.11.22.24.37.31.81.43 1.34 1.08 1.93 1.69 1.42 1.43 2.81 2.88 4.21 4.32z"/></svg>