<svg xmlns="http://www.w3.org/2000/svg" viewBox="0 0 100 100" fill="currentColor"><path class="st0" d="M43.67 8.51C47.16 5.7 51.5 4.62 55.89 4.5c4.96-.12 11.2-1.12 15.64 1.47.12.07.22.2.27.32.3.02.57.3.52.62-.4 2.34-.85 4.69-1.02 7.06-.15 1.7-.07 3.49-.67 5.11-.15.35-.4.57-.67.67a.61.61 0 01-.35.32c-3.92 1.07-9.2-2.37-11.92 2.27-1.92 3.32-.7 7.96-.6 11.52 2.44-.52 4.91-.15 7.41-.25 1.85-.1 4.14-.6 5.64.72.12.1.17.27.15.42 1.7 3.52.05 9.03-.22 12.7-.05.5-.37.75-.77.82-.07.25-.27.5-.65.6-3.92 1.25-8.53.6-12.55-.15.55 7.53-.37 15.49-.3 23.05.1 7.33 1.22 15.31-.05 22.55-.05.2-.15.32-.27.45-.07.2-.22.37-.47.45-2.82.67-6.14.67-9.03.35-2.15-.22-4.89.17-6.91-.7-.42.17-1.05-.05-1.07-.65-.25-8.06-.62-15.94-.45-24.04.17-7.11-.3-14.54.77-21.62-.15.07-.3.15-.47.17-1.95.17-3.87.35-5.81.17-.8-.07-1.97-.15-2.62-.72-.42.15-.9.05-1.17-.4-.97-1.55-.4-3.84-.3-5.54.12-2.24-.37-5.06.72-7.11-.12-.52.2-1.15.85-1.07 1.57.15 3.12.15 4.69.05.9-.07 1.87-.3 2.84-.47-.8-3.89.2-9 .72-12.75.63-4.72 2.06-9.28 5.9-12.38zm26.81-.84c-7.68-.95-18.96-2.39-25.14 2.67-6.01 4.94-6.31 16.11-5.74 23.65.25.3.35.7-.07 1 0 .02-.05.02-.05.05-.2.27-.52.45-.9.45-1.17.47-2.57.52-3.79.62-1.57.12-3.17.1-4.71-.15.27 1.9.17 4.04.1 5.86-.07 1.65-.5 3.52-.12 5.14.9-.1 1.95.12 2.77.07 1.67-.05 3.34-.22 5.01-.17.4.02.67.2.82.45.32-.22.95-.12 1.02.32 1.22 7.36.27 15.16.1 22.57-.17 7.96-.37 15.94-.27 23.87 2.12-.75 4.22-.6 6.46-.4 2.62.2 5.31-.22 7.91.07.75-8.16.12-17.11-.12-25.29-.15-5.79-1.47-14.62 1.37-20.13-.22-.4-.12-1 .42-1.07 4.19-.62 8.38 1.02 12.55-.25.05-.02.1-.02.15-.02-.1-2.29-.12-4.54.07-6.86.12-1.62.15-3.34.75-4.86-1.75.2-3.62.25-5.31.27-2.34 0-4.94-.07-7.23-.75-.6.25-1.47-.02-1.5-.87-.22-4.41-1.82-10.33 1.62-14.02 2.47-2.64 8.16-3.17 11.7-1.6.86-3.39.26-7.53 2.13-10.62z"/><path class="st0" d="M39.78 70.2c.17-7.41 1.12-15.21-.1-22.57-.07-.45-.7-.55-1.02-.32-.15-.25-.42-.42-.82-.45-1.67-.05-3.34.12-5.01.17-.82.05-1.87-.17-2.77-.07-.37-1.62.05-3.49.12-5.14.07-1.82.17-3.97-.1-5.86 1.55.25 3.14.27 4.71.15 1.22-.1 2.62-.15 3.79-.62.37 0 .7-.17.9-.45 0-.02.05-.02.05-.05.42-.3.32-.7.07-1-.57-7.53-.27-18.71 5.74-23.65 6.19-5.06 17.46-3.62 25.14-2.67-1.87 3.09-1.27 7.23-2.15 10.63-3.54-1.57-9.23-1.05-11.7 1.6-3.44 3.69-1.85 9.6-1.62 14.02.02.85.9 1.12 1.5.87 2.29.67 4.89.75 7.23.75 1.7-.02 3.57-.07 5.31-.27-.6 1.52-.62 3.24-.75 4.86-.2 2.32-.17 4.56-.07 6.86-.05 0-.1 0-.15.02-4.17 1.27-8.36-.37-12.55.25-.55.07-.65.67-.42 1.07-2.84 5.51-1.52 14.34-1.37 20.13.25 8.18.87 17.14.12 25.29-2.59-.3-5.29.12-7.91-.07-2.24-.2-4.34-.35-6.46.4-.09-7.95.11-15.93.29-23.88z"/></svg>