<svg version="1.1" id="Ebene_1" xmlns="http://www.w3.org/2000/svg" x="0" y="0" viewBox="0 0 100 100" xml:space="preserve"><style>.st0{fill:#020203}</style><g id="XMLID_13_"><path class="st0" d="M95.02 60.96c.05 1.85.15 3.68.23 5.54-.15.03-.3.1-.45.15-.6 8.22-.33 16.54-.23 24.82 0 .63-.88.7-1.1.23a.521.521 0 01-.05-.23c.08-6.72-.05-13.36-.2-20.08-.03-1.58-.4-5.01.43-7.07-.03-4.41-.18-8.87-1.05-12.91-4-18.33-24.3-19.21-36.49-8.83-.05.3-.13.58-.25.85-.15.3-.68.3-.83 0-.55-1.13-.45-2.46-.55-3.71-.15-1.35-.25-2.68-.23-4.04-2.78.48-5.84.25-8.57.33-2.71.08-5.72.33-8.45-.23 1.18 9.35.93 19.38.58 28.75-.23 5.72-.45 11.43-.48 17.17 0 2.83.18 6.04-.4 8.87 6.02-.68 11.71-.03 17.72.23 2.06-10.33-6.22-36.97 9.65-39.4 17.15-2.61 10.55 31.71 12.16 39.48 0 .08-.03.13 0 .18 2.98-.63 6.14-.9 9.17-.85 2.41.03 5.04-.1 7.54.1.05.38.13.75.18 1.15 0 .08.03.15.08.23.03.18.1.33.15.5-2.36.33-4.84-.03-7.22-.13-3.73-.15-7.6.8-11.3.13a.4.4 0 01-.33-.4c-.08-.1-.15-.23-.2-.4-1.43-6.07.08-13.36-.2-19.65-.1-2.56-.15-5.11-.4-7.67-.65-6.49-4.29-13.36-12.16-10.43-7.8 2.88-5.72 16.74-5.69 23.04.03 2.41.15 4.86.1 7.29.1.03.18.08.2.2.45 2.71-.23 5.74-.53 8.45-.03.18-.3.23-.33.05-.05-.25-.05-.48-.1-.7-.05.03-.08.08-.13.08-2.73.83-5.64-.2-8.42-.4-3.58-.25-7.17.35-10.75-.03-.4.1-.83-.05-.95-.55-.9-3.41.18-7.82.15-11.33 0-6.24.38-12.46.53-18.7.13-5.84-.03-11.71-.33-17.55-.15-2.66-.65-5.64.65-7.95-.08-.03-.2-.03-.28-.05-.4-.15-.48-.75 0-.85 3.13-.63 6.57-.18 9.78-.2 3.26 0 7.02-.6 10.18.3.33.1.3.53 0 .63-.15.05-.28.05-.43.1.15 1.43.35 2.86.53 4.26.08.73.2 1.45.2 2.16 9.3-9.27 24.09-10.7 33.01-.23 5.03 5.86 5.56 11.85 5.86 19.3z"/><path class="st0" d="M93.41 91.46c0 .08.03.18.05.23h-.03a.426.426 0 01-.08-.23c-.05-.4-.13-.78-.18-1.15-2.51-.2-5.14-.08-7.54-.1-3.03-.05-6.19.23-9.17.85-.03-.05 0-.1 0-.18-1.6-7.77 4.99-42.09-12.16-39.48-15.87 2.43-7.6 29.08-9.65 39.4-6.02-.25-11.71-.9-17.72-.23.58-2.83.4-6.04.4-8.87.03-5.74.25-11.46.48-17.17.35-9.37.6-19.4-.58-28.75 2.73.55 5.74.3 8.45.23 2.73-.08 5.79.15 8.57-.33-.03 1.35.08 2.68.23 4.04.1 1.25 0 2.58.55 3.71.15.3.68.3.83 0 .13-.28.2-.55.25-.85 12.18-10.38 32.49-9.5 36.47 8.82.88 4.04 1.03 8.5 1.05 12.91-.83 2.06-.45 5.49-.43 7.07.16 6.72.29 13.36.21 20.08zm-67.58-56.8c.55 3.46.35 6.99.28 10.48-.08 2.66 0 5.36-.25 8.02.53 5.49 0 11.13-.3 16.59-.4 7.12-.53 14.29-1.03 21.38.23 0 .45.03.68.03.83-.03.83 1.23 0 1.23h-1.43c-3.18 0-6.34.1-9.5-.05-1.85-.1-4.81.53-6.64-.15-.4.35-1.25.18-1.3-.53-.2-2.51-.25-5.11.1-7.65-.1.05-.23.08-.33.13-.25-6.14.6-12.58.6-18.52 0-4.96.5-9.88.53-14.81 0-5.04-.63-10.1-.13-15.12.03-.1.1-.18.15-.28-.03-.03-.05-.05-.05-.1 0 0-.03-.03-.03-.05 0-.1.08-.2.18-.25 1.48-.88 4.69-.45 6.37-.5 3.89-.15 7.62.03 11.53-.4.3-.03.5.23.53.5.02.03.04.03.04.05zm-1.2 10.48c.08-3.31.05-6.64.53-9.9-3.38 1.2-6.99.58-10.5.58-1.78 0-4.39.63-6.32.18 1.2 8.72.58 17.35.23 26.09-.23 5.09.05 10.18-.35 15.27-.18 2.08-.4 4.11-.48 6.12-.05 0-.08.03-.13.05.28 2.41.15 4.89.2 7.32 1.33-.78 3.68-.35 4.96-.2 3.51.33 6.87.5 10.33.5-.4-7.09.25-14.29.63-21.38.3-5.16.4-10.48 1-15.64-.35-2.98-.15-6.03-.1-8.99zm.55-34.37c3.48 4.26 2.56 12.16-1.96 15.37-4.81 3.43-12.93 2.88-16.62-1.96-2.68-3.56-2.31-8.4.15-11.78-.33.13-.58-.33-.33-.55 4.75-4.71 13.97-6.99 18.76-1.08zM24 24.18c3.26-4.09 2.38-11.91-2.56-14.24-3.66-1.73-7.24-.6-10.7.83-5.19 3.13-5.56 10.68-.65 14.26 4.06 2.99 10.53 3.36 13.91-.85z"/><path class="st0" d="M25.16 35.24c-.48 3.26-.45 6.59-.53 9.9-.05 2.96-.25 6.02.1 8.97-.6 5.16-.7 10.48-1 15.64-.38 7.09-1.03 14.29-.63 21.38-3.46 0-6.82-.18-10.33-.5-1.28-.15-3.63-.58-4.96.2-.05-2.43.08-4.91-.2-7.32.05-.03.08-.05.13-.05.08-2.01.3-4.04.48-6.12.4-5.09.13-10.18.35-15.27.35-8.75.98-17.37-.23-26.09 1.93.45 4.54-.18 6.32-.18 3.5.01 7.11.64 10.5-.56zM21.45 9.95c4.94 2.33 5.82 10.15 2.56 14.24-3.38 4.21-9.85 3.84-13.91.85-4.91-3.58-4.54-11.13.65-14.26 3.45-1.44 7.04-2.56 10.7-.83z"/></g></svg>