<svg version="1.1" id="Ebene_1" xmlns="http://www.w3.org/2000/svg" xmlns:xlink="http://www.w3.org/1999/xlink" x="0" y="0" viewBox="0 0 520 187" xml:space="preserve"><style>.st1{fill:#fff}.st2{fill:#6599d2}.st3{fill:#649cd4}.st4{display:none}.st5{display:inline}.st12{fill:#a29f9d}</style><g id="Your_design"><path fill="#6097d0" d="M263.5 191.9l-.5 1 .5-1z"/><path class="st1" d="M209 56.9V78c0 .5.2.8.5 1.1.4.2 1.1.3 2.1.3l.5 2.1c-3.1-.1-5.3-.1-6.4-.1s-2.7 0-4.8.1l-.5-2.1c1.3 0 2.1-.2 2.5-.4.4-.2.6-.6.6-1V56.9c0-.5-.2-.8-.5-1.1-.4-.2-1.1-.3-2.1-.3l-.5-2.1c3.1.1 5.3.1 6.5.1s2.8 0 4.7-.1l.5 2.1c-1.3 0-2.1.2-2.5.4-.4.2-.6.6-.6 1zm34.7-3.6l3.9.2c1 0 2.4 0 4.4-.1l.5 2.1c-1.3 0-2.1.2-2.5.4-.4.2-.6.6-.6 1V78c0 .5.2.8.5 1.1.4.2 1.1.3 2.1.3l.5 2.1c-3.1-.1-5.3-.1-6.4-.1s-2.7 0-4.8.1l-.5-2.1c1.3 0 2.1-.2 2.5-.4.4-.2.6-.6.6-1V61.6c-.8 1.6-2.2 4.7-4.4 9.2-2.2 4.6-3.8 8-5 10.4l-1 .5-10.4-20.9V78c0 .5.2.8.5 1.1.4.2 1.1.3 2.1.3l.5 2.1c-3.1-.1-5.1-.1-5.8-.1-.7 0-2.1 0-4.1.1l-.5-2.1c2.3-.1 3.4-.5 3.4-1.4V56.9c0-.9-1-1.4-2.9-1.4l-.5-2.1c3.1.1 5.3.1 6.4.1s2 0 2.7-.1c.5 1.5 1.4 3.5 2.7 6.1 1.3 2.6 2.2 4.3 2.5 5.2.6 1.6 2.2 4.7 4.7 9.2 1.1-2.4 2-4.5 2.8-6.3.8-1.9 1.5-3.5 2.1-4.7.6-1.3 1.1-2.5 1.7-3.7 1.5-3.5 2.3-5.4 2.3-5.9zm40.4 0l3.9.2c1 0 2.5 0 4.5-.1l.5 2.1c-1.3 0-2.1.2-2.5.4s-.6.6-.6 1V78c0 .5.2.8.5 1.1.4.2 1 .3 2.1.3l.5 2.1c-3.1-.1-5.3-.1-6.5-.1s-2.7 0-4.8.1l-.5-2.1c1.3 0 2.1-.2 2.5-.4.4-.2.6-.6.6-1V61.6c-.8 1.6-2.2 4.7-4.4 9.2-2.2 4.6-3.8 8-5 10.4l-1 .5-10.4-20.9V78c0 .5.2.8.5 1.1.4.2 1.1.3 2.1.3l.5 2.1c-3.1-.1-5.1-.1-5.8-.1s-2.1 0-4.1.1l-.5-2.1c2.3-.1 3.4-.5 3.4-1.4V56.9c0-.9-1-1.4-2.9-1.4l-.5-2.1c3.1.1 5.3.1 6.4.1s2 0 2.7-.1c.5 1.5 1.4 3.5 2.7 6.1s2.2 4.3 2.5 5.2c.6 1.6 2.2 4.7 4.7 9.2 1-2.4 2-4.5 2.8-6.3.8-1.9 1.5-3.5 2.1-4.7s1.1-2.5 1.7-3.7c1.6-3.5 2.3-5.4 2.3-5.9zm27.8 28.6c-4.3 0-7.9-1.3-10.7-3.9-2.8-2.6-4.2-5.9-4.2-10.1s1.5-7.7 4.5-10.6 6.6-4.4 10.9-4.4 7.8 1.3 10.6 3.9 4.1 6 4.1 10.2-1.5 7.7-4.4 10.5c-2.8 3-6.5 4.4-10.8 4.4zm-4.5-4.7c1.5 1.3 3.5 1.9 5.8 1.9s4.2-1 5.6-3 2.1-4.5 2.1-7.5c0-3.7-.8-6.8-2.5-9.2-1.6-2.4-4-3.7-7.2-3.7-2.5 0-4.5 1-5.9 3.1-1.5 2-2.2 4.6-2.2 7.5.1 5 1.5 8.6 4.3 10.9zm35.6 4.4l-5.6-.2c-1.8 0-3.7 0-5.7.1l-.5-2.1c1.3 0 2.1-.2 2.5-.4.4-.2.6-.6.6-1V56.9c0-.5-.2-.8-.5-1.1-.4-.2-1.1-.3-2.1-.3l-.5-2.1c3.1.1 5 .1 5.5.1l6.3-.2c6.2 0 9.3 2.2 9.3 6.5 0 2.9-1.8 5-5.2 6.4 2 .4 3.7 1.2 5.1 2.4s2.1 2.8 2.1 4.5c0 2.7-1 4.8-2.9 6.2-1.9 1.5-4.7 2.3-8.4 2.3zm3.7-21c0-1.6-.5-2.8-1.4-3.6s-2.1-1.2-3.5-1.2-2.1.1-2.1.3v9.6h1.6c1.6 0 3-.5 3.9-1.4s1.5-2.1 1.5-3.7zm-6.9 16.3c0 1.5 1 2.2 2.9 2.2s3.4-.5 4.4-1.6 1.5-2.3 1.5-3.8c0-2.1-.6-3.5-2-4.4-1.3-.9-2.7-1.4-4.3-1.4h-2.4v9zm27.1-20V78c0 .5.2.8.5 1.1.4.2 1.1.3 2.1.3l.5 2.1c-3.1-.1-5.3-.1-6.5-.1-1.1 0-2.7 0-4.8.1l-.5-2.1c1.3 0 2.1-.2 2.5-.4.4-.2.6-.6.6-1V56.9c0-.5-.2-.8-.5-1.1-.4-.2-1.1-.3-2.1-.3l-.5-2.1c3.1.1 5.3.1 6.5.1s2.8 0 4.7-.1l.5 2.1c-1.3 0-2.1.2-2.5.4-.3.2-.5.6-.5 1zm18.6 24.6l-6.2-.1c-1.4 0-3.1 0-5.1.1l-.5-2.1c1.3 0 2.1-.2 2.5-.4.4-.2.6-.6.6-1l.2-21.1c0-.5-.2-.8-.5-1.1-.4-.2-1.1-.3-2.1-.3l-.5-2.1c3.1.1 5.3.1 6.5.1s2.8 0 4.7-.1l.5 2.1c-1.3 0-2.1.2-2.5.4-.4.2-.6.6-.6 1v20c0 1.4.6 2.1 1.9 2.1h3.7c3.5 0 6-1.9 7.2-5.7l2.1.4c0 .4-.4 1.8-1.1 4.2s-1.3 3.5-1.7 3.5l-9.1.1zm23.1-24.6V78c0 .5.2.8.5 1.1.4.2 1.1.3 2.1.3l.5 2.1c-3.1-.1-5.3-.1-6.5-.1-1.1 0-2.7 0-4.8.1l-.5-2.1c1.3 0 2.1-.2 2.5-.4.4-.2.6-.6.6-1V56.9c0-.5-.2-.8-.5-1.1-.4-.2-1.1-.3-2.1-.3l-.5-2.1c3.1.1 5.3.1 6.5.1s2.8 0 4.7-.1l.5 2.1c-1.3 0-2.1.2-2.5.4-.3.2-.5.6-.5 1zm22.9-1.1h-5.8c-1.1 0-1.6.1-1.6.2v9.7h6.5c.3 0 .5-1.3.5-3.8l2.2-.3-.1 5.4c0 1.5 0 3.1.1 4.8l-2.3.4c0-1.5 0-2.4-.1-2.9 0-.4-.2-.6-.4-.6H424v8.1c0 .9.2 1.4.7 1.7s1.3.4 2.4.4h3.7c3.5 0 6-1.9 7.2-5.7l2.1.4c0 .4-.4 1.8-1.1 4.2s-1.3 3.5-1.7 3.5H421c-1.4 0-3.1 0-5.1.1l-.5-2.1c1.3 0 2.1-.2 2.5-.4.4-.2.6-.6.6-1v-21c0-.5-.2-.8-.5-1.1-.4-.2-1.1-.3-2.1-.3l-.5-2.1c3.1.1 5 .1 5.5.1h16.3c.3.7.5 1.8.5 3.4s-.1 3-.2 4.2l-1.7-.3c-.3-1.8-.8-3.1-1.4-3.9-.7-.7-1.6-1.1-2.9-1.1zm38.8 25.8c-.5-.1-1.1-.2-1.7-.2-.6 0-1.1 0-1.5.1l-16.6-21.1V78c0 .5.2.8.5 1.1.4.2 1.1.3 2.1.3l.5 2.1c-3.1-.1-5.1-.1-5.8-.1s-2.1 0-4.1.1l-.5-2.1c2.3-.1 3.4-.5 3.4-1.4V56.9c0-.9-1-1.4-2.9-1.4l-.5-2.1c3.1.1 5.3.1 6.4.1s2 0 2.7-.1c0 .3.2.7.5 1.3.4.5.7 1 .9 1.4s.6.8 1 1.4c.4.5.8 1 1.1 1.4s.7.9 1.2 1.5c1.7 2.2 2.8 3.5 3.2 4s1.4 1.8 3.2 4.1c1.7 2.3 2.8 3.6 3.2 4.1V57.1c0-.5-.2-.8-.5-1.1-.4-.2-1.1-.3-2.1-.3l-.5-2.1c3.1.1 5.1.1 5.8.1s2.1 0 4.1-.1l.5 2.1c-2.3 0-3.4.5-3.4 1.4l-.2 24.5zM228 119.4l-3.9-.1c-.8 0-2.3 0-4.5.1-.2-.3-.5-.7-.9-1.3-.4-.5-.8-1.2-1.3-2s-1.4-2.2-2.8-4.2c-1.4-2.1-2.4-3.5-3.1-4.5H209v8.5c0 .5.2.8.5 1.1s1.1.3 2.1.3l.5 2.1c-3.1-.1-5.3-.1-6.4-.1s-2.7 0-4.8.1l-.5-2.1c1.3 0 2.1-.2 2.5-.4.4-.2.6-.6.6-1V94.8c0-.5-.2-.8-.5-1.1-.4-.2-1.1-.3-2.1-.3l-.5-2.1c3.1.1 5 .1 5.5.1l5.9-.2c3.1 0 5.6.6 7.6 1.9 1.9 1.3 2.9 3.2 2.9 5.8 0 3.5-1.8 6-5.5 7.4 1.1 1.4 1.9 2.5 2.4 3.3 2.9 4 4.5 6.1 4.7 6.3.9.9 2.1 1.4 3.3 1.5l.8 2zM209 94v11.2h1.6c2.1 0 3.6-.6 4.7-1.7s1.6-2.6 1.6-4.4c0-1.8-.5-3.2-1.6-4.1-1.1-.9-2.4-1.3-4-1.3s-2.3.1-2.3.3zm37-.3h-5.8c-1.1.1-1.6.1-1.6.2v9.7h6.5c.3 0 .5-1.3.5-3.8l2.2-.3-.1 5.4c0 1.5 0 3.1.1 4.8l-2.3.4c0-1.5 0-2.4-.1-2.9-.1-.4-.2-.6-.4-.6h-6.4v8.1c0 .9.2 1.4.7 1.7s1.3.4 2.4.4h3.7c3.5 0 5.9-1.9 7.2-5.7l2.1.4c0 .4-.4 1.8-1.1 4.2s-1.3 3.5-1.7 3.5h-16.3c-1.4 0-3.1 0-5.1.1l-.5-2.1c1.3 0 2.1-.2 2.5-.4.4-.2.6-.6.6-1v-21c0-.5-.2-.8-.5-1.1-.4-.2-1.1-.3-2.1-.3l-.5-2.1c3.1.1 5 .1 5.5.1h16.3c.3.7.5 1.8.5 3.4s-.1 3-.2 4.2l-1.7-.3c-.3-1.8-.8-3.1-1.4-3.9-.8-.7-1.8-1.1-3-1.1zm24.3 25.7l-7.1-.2c-1.4 0-3.1 0-5.1.1l-.5-2.1c1.3 0 2.1-.2 2.5-.4.4-.2.6-.6.6-1v-21c0-.5-.2-.8-.5-1.1-.4-.2-1.1-.3-2.1-.3l-.5-2.1c3.1.1 5 .1 5.5.1l7.9-.1c5.2 0 9.3 1.2 12.2 3.5s4.4 5.7 4.4 10.1-1.5 7.9-4.5 10.5c-3 2.7-7.3 4-12.8 4zm8.6-5.4c1.7-2 2.6-4.8 2.6-8.6s-1-6.6-3-8.7c-2-2.1-4.8-3.1-8.5-3.1h-3c-.7 0-1 .1-1 .3v20.4c0 .7.1 1.2.2 1.5s.6.6 1.4.8 2 .3 3.7.3c3.4 0 5.9-.9 7.6-2.9zm16.7 5.3l-4.8.2-.3-2.2c.9-.1 1.7-.3 2.2-.7s1-.8 1.3-1.2.5-1.1.9-1.9l8.2-22.1h3.4l9.3 22.7c.5 1.2 1 2 1.5 2.5s1.2.7 2.2.7l.4 2.1c-1.2-.1-3.2-.1-5.9-.1s-4.8 0-6 .1l-.4-2.1c1.4 0 2.3-.1 2.6-.3.3-.2.5-.4.5-.7s-.1-.6-.2-.9l-2.6-5.9h-8.5l-1.6 4.7c-.1.3-.2.6-.2.8 0 .6.3 1.1 1 1.5.7.4 1.7.7 3 .7l.4 2.2-6.4-.1zm7.7-20.8l-3 8.5h6.6l-3.6-8.5zm47 20.9l-5-.1h-2.8c-1-1.2-3.1-3.6-6.2-7.1-3.1-3.5-4.9-5.3-5.2-5.3v8.8c0 .5.2.8.5 1.1.4.2 1.1.3 2.1.3l.5 2.1c-3.1-.1-5.3-.1-6.5-.1-1.1 0-2.7 0-4.8.1l-.5-2.1c1.3 0 2.1-.2 2.5-.4.4-.2.6-.6.6-1V94.8c0-.5-.2-.8-.5-1.1-.4-.2-1.1-.3-2.1-.3l-.5-2.1c3.1.1 5.3.1 6.5.1s2.8 0 4.7-.1l.5 2.1c-1.3 0-2.1.2-2.5.4-.4.2-.6.6-.6 1v9.4c1.6-1.5 3.6-3.5 5.9-6.1s3.5-3.9 3.5-4.3c0-.3-.9-.5-2.6-.5l-.5-2.1c3.1.1 5.3.1 6.5.1 1.1 0 2.7 0 4.8-.1l.5 2.1c-2.7.1-4.4.5-5.1 1.3l-8.7 9.3 11 11.9c1 .9 2.2 1.4 3.6 1.4l.4 2.2zM369 94h-2.2v21.9c0 .5.2.9.6 1.1.4.2 1.2.3 2.4.3l.5 2.1c-3.1-.1-5.4-.1-6.8-.1s-3.1 0-5.1.1l-.5-2.1c1.4 0 2.4-.2 2.8-.4.5-.2.7-.6.7-1V94h-1.3c-2.4 0-3.9.3-4.5.9-.5.4-1 1.8-1.4 4h-1.8c-.3-1.3-.4-2.6-.4-4s.2-2.7.5-3.9c1 .2 2.2.3 3.5.3h17c1.8 0 3.1-.1 4-.3.2 1.8.2 3.3.2 4.3s-.1 2.3-.4 3.7l-1.9-.3c-.3-2.1-.8-3.4-1.4-3.9-.9-.5-2.4-.8-4.5-.8zm20.1.8v21.1c0 .5.2.8.5 1.1.4.2 1.1.3 2.1.3l.5 2.1c-3.1-.1-5.3-.1-6.5-.1-1.1 0-2.7 0-4.8.1l-.5-2.1c1.3 0 2.1-.2 2.5-.4.4-.2.6-.6.6-1V94.8c0-.5-.2-.8-.5-1.1-.4-.2-1.1-.3-2.1-.3l-.5-2.1c3.1.1 5.3.1 6.5.1s2.8 0 4.7-.1l.5 2.1c-1.3 0-2.1.2-2.5.4-.3.2-.5.5-.5 1zm22.1 25c-4.3 0-7.9-1.3-10.7-3.9-2.8-2.6-4.2-5.9-4.2-10.1s1.5-7.7 4.5-10.6 6.6-4.4 10.9-4.4 7.8 1.3 10.6 3.9 4.1 6 4.1 10.2-1.5 7.7-4.4 10.5c-2.9 3-6.5 4.4-10.8 4.4zm-4.5-4.7c1.5 1.3 3.5 1.9 5.8 1.9s4.2-1 5.6-3 2.1-4.5 2.1-7.5c0-3.7-.8-6.8-2.5-9.2-1.6-2.4-4-3.7-7.2-3.7-2.5 0-4.5 1-5.9 3.1-1.5 2-2.2 4.6-2.2 7.6.1 4.8 1.5 8.5 4.3 10.8zm51 4.4c-.5-.1-1.1-.2-1.7-.2-.6 0-1.1 0-1.5.1l-16.7-21.1v17.6c0 .5.2.8.5 1.1.4.2 1.1.3 2.1.3l.5 2.1c-3.1-.1-5.1-.1-5.8-.1s-2.1 0-4.1.1l-.5-2.1c2.3-.1 3.4-.5 3.4-1.4V94.8c0-.9-1-1.4-2.9-1.4l-.5-2.1c3.1.1 5.3.1 6.4.1s2 0 2.7-.1c0 .3.2.7.5 1.3s.7 1 .9 1.4.6.8 1 1.4c.4.5.8 1 1.1 1.4.3.4.7.9 1.2 1.5 1.7 2.2 2.8 3.5 3.2 4s1.4 1.8 3.2 4.1c1.7 2.3 2.8 3.6 3.2 4.1V95c0-.5-.2-.8-.5-1.1-.4-.2-1.1-.3-2.1-.3l-.5-2.1c3.1.1 5.1.1 5.8.1s2.1 0 4.1-.1l.5 2.1c-2.3.1-3.4.5-3.4 1.4l-.1 24.5z"/><path class="st2" d="M93.1 65.1v70c-.2-.1-.4-.2-.6-.4-1.5-.9-2.9-1.9-4.4-2.9V72.4L61.6 83.3v19.9c-.2-.3-.3-.5-.5-.8-1.6-2.8-3.1-5.7-4.5-8.6V79.9L88 67.1h.1V67l5-1.9z"/><path class="st3" d="M56.7 79.9zm31.5-12.8h-.1zm-.1 0h.1z"/><path class="st2" d="M122.1 74v72c-1.7-.3-3.3-.6-4.9-1V77.5l-4.9-1.8v67.9l-1.8-.6c-1.1-.4-2.1-.7-3.1-1.1v-68l-4.8-1.7v67.7c-1.7-.8-3.3-1.6-4.9-2.4V65.2l4.5 1.6.5.2 9.8 3.5 4.9 1.8 4.7 1.7z"/><path class="st3" d="M112.2 70.4zm5-17.7z"/><path class="st2" d="M154.1 38.5v66l-5-1.4V45.7l-27 10.4V74l-4.9-1.8V52.7l31.9-12.3zm40.4 13.9v63.7l-4.9-1.4V55.8l-5.8-2.2V113l-4.9-1.4V51.7l-5.4-2v60.4l-4.9-1.4V47.8l-5.5-2.2v61.5l-5-1.4V38.4l5 1.9 5.5 2.2 4.9 1.9 16.1 6.1z"/><path class="st2" d="M216.7 152l-47.8-7-18.3-29.3-16.6 33.6-.3.7c-.7 1.5-1.6 3.1-1.6 3.1h-.1c-.8 0-1.6-.1-2.5-.1h-1.1c-6.3-.4-12.4-1.5-18.2-3.2l-1.8-.6c-1.1-.3-2.1-.7-3.1-1.1-1.6-.6-3.3-1.2-4.8-1.9-1.7-.7-3.3-1.5-4.9-2.3-.8-.4-1.7-.9-2.5-1.3s-1.6-.9-2.4-1.4c-.7-.4-1.4-.8-2.1-1.3-.8-.5-1.5-.9-2.3-1.5-10.7-7.1-19.7-16.5-26.5-27.4l-.9-1.5c-.8-1.3-1.5-2.6-2.2-4l-1.8-3.6c-5.2-10.9-8.2-23-8.5-35.6v-5.5c.5 12.2 3.5 24.1 8.5 35 1.3 2.9 2.8 5.8 4.5 8.6.2.3.3.5.5.8.2.4.5.8.7 1.2 6.7 10.8 15.5 20.2 25.8 27.4 1.4 1 2.9 2 4.4 2.9.2.1.4.2.6.4 1.4.9 2.9 1.7 4.4 2.5 1.6.9 3.3 1.7 4.9 2.4 1.6.7 3.2 1.4 4.8 2 1 .4 2.1.8 3.1 1.1l1.8.6c1.6.5 3.3.9 4.9 1.3 1.6.4 3.3.7 4.9 1 2.6.5 5.3.8 8 1l21.6-41.8 44.9 12.6 22 32.2z"/><path class="st1" d="M35.2 66.3l9.5.3-.1 2.6c0 1.5-.5 2.6-1.3 3.4s-2 1.2-3.6 1.1c-.8 0-1.5-.2-2.1-.4-.6-.2-1.1-.6-1.5-1-.4-.4-.7-.9-.9-1.5s-.3-1.2-.2-1.9l.2-2.6zm1.3 1.7v.7c0 1 .2 1.7.8 2.3.5.5 1.4.8 2.6.9 1.2 0 2-.2 2.6-.7.5-.5.8-1.2.9-2.2v-.7l-6.9-.3zm-1.3 10l9.5-.5.1 1.7-9.5.5-.1-1.7zm.5 6.5l9.4-1.5.9 5.7-1.4.3-.6-4-2.4.4.5 3.4-1.4.2-.5-3.4-2.8.4.6 4.2-1.4.2-.9-5.9zm4.3 18.9c-.2-.5-.3-1-.3-1.5s.1-.9.3-1.3.6-.8 1-1.1 1.1-.6 1.8-.9l5-1.8.6 1.6-5.2 1.8c-.5.2-.9.4-1.2.6-.3.2-.5.4-.7.7s-.2.5-.2.7 0 .5.1.8c.1.3.2.5.4.7.2.2.4.3.6.4.3.1.6.1.9.1.4 0 .8-.1 1.3-.3l5.2-1.8.5 1.5-5 1.8c-.7.3-1.4.4-2 .4-.6 0-1.1-.1-1.5-.2s-.8-.5-1.1-.8-.3-.9-.5-1.4zm3.4 8.1l8.5-4.3.8 1.6-3.4 5.1-1.4 1.8v.1c.4-.3.9-.5 1.4-.8.5-.3 1-.6 1.4-.8l3.7-1.9.7 1.4-8.5 4.3-.8-1.6 3.4-5.1 1.4-1.8v-.1c-.4.3-.9.5-1.3.8-.5.3-.9.6-1.4.8l-3.7 1.9-.8-1.4zm5.2 9.8l9.6-2.8 1.1 1.6-6.1 7.9-1-1.5 1.7-2.1-1.8-2.7-2.5.8-1-1.2zm5.9-.2l-1.2.4 1.4 2 .8-.9c.3-.4.7-.8 1-1.2.4-.4.7-.8 1.1-1.2v-.1l-1.5.6c-.5 0-1 .2-1.6.4zm1.1 10l7.2-6.3 2 2.3c.3.4.6.7.8 1.1.2.4.3.7.4 1.1.1.4 0 .7-.1 1-.1.3-.3.6-.7.9-.3.3-.7.5-1.2.6-.5.1-.9 0-1.3-.2.3.5.4 1 .3 1.5s-.3 1-.8 1.4c-.4.3-.7.5-1.1.6-.4.1-.8.1-1.2 0s-.8-.3-1.2-.5-.7-.6-1.1-1l-2-2.5zm2.1.4l.9 1.1c.5.5.9.9 1.3 1s.9 0 1.3-.4c.4-.3.5-.7.5-1.1s-.3-.9-.8-1.5l-.9-1.1-2.3 2zm3.2-2.8l.8.9c.4.5.8.8 1.2.9.4.1.7 0 1-.3.4-.3.5-.6.4-1s-.3-.8-.7-1.3l-.8-.9-1.9 1.7zm2.4 10.8l6.3-7.1 1.3 1.1-2.5 2.9 2.9 2.6 2.5-2.9 1.3 1.1-6.3 7.1-1.3-1.1 2.8-3.2-2.9-2.6-2.8 3.2-1.3-1.1zm8.5 7.3l7.9-6.1 1.6 1.1-2.8 9.6-1.5-1 .8-2.6-2.7-1.8-2.1 1.7-1.2-.9zm5.5-2.4l-.9.8 2 1.4.4-1.1c.2-.5.3-1 .5-1.5s.4-1 .6-1.6h-.1c-.4.4-.8.7-1.2 1.1s-.9.5-1.3.9zm2.4-4.8c-.2-.1-.3-.3-.4-.6 0-.2 0-.4.2-.6.1-.2.3-.3.6-.4.2-.1.4 0 .7.1s.3.3.4.6c0 .2 0 .4-.2.7s-.3.3-.6.4c-.3 0-.5 0-.7-.2zm2.6 1.8c-.2-.1-.3-.3-.4-.6-.1-.2 0-.4.1-.6.1-.2.3-.3.6-.4.2 0 .4 0 .7.1.2.1.3.3.4.6 0 .2 0 .4-.2.7s-.3.3-.6.4-.4-.1-.6-.2zm-.3 11.9l4.3-8.5 1.5.8.2 6.1v2.3h.1c.2-.5.4-.9.6-1.5s.4-1 .7-1.5l1.9-3.7 1.4.7-4.3 8.5-1.5-.8-.2-6.1.1-2.3h-.1l-.6 1.5c-.2.5-.4 1-.7 1.5l-1.9 3.7-1.5-.7zm14.8 6.8c-.6-.2-1.1-.5-1.6-.9-.4-.4-.8-.8-1-1.4s-.4-1.1-.4-1.8c0-.6.1-1.4.4-2.1.3-.7.6-1.4 1-1.9s.9-.9 1.4-1.2 1.1-.4 1.7-.4c.6 0 1.2.1 1.8.3.6.2 1.1.5 1.5.9.4.4.6.8.8 1.2l-1.2.7c-.2-.3-.3-.6-.6-.8s-.6-.4-1-.6c-.4-.1-.8-.2-1.2-.2s-.7.1-1.1.4c-.3.2-.6.5-.9.8-.3.4-.5.8-.7 1.3-.4 1-.4 1.9-.2 2.7.3.8.8 1.3 1.8 1.6.3.1.5.1.8.1s.5 0 .7-.1l.7-1.9-1.7-.6.5-1.3 3.1 1.1-1.4 4c-.4.2-.9.3-1.5.3-.5.1-1.1 0-1.7-.2zm7.5 2.1l2.3-9.3 1.6.4-2.3 9.3-1.6-.4zm10.5 2.1c-.6-.1-1.2-.3-1.7-.6s-.9-.7-1.3-1.1c-.3-.5-.6-1-.7-1.7s-.2-1.3-.1-2.1.3-1.4.6-2 .7-1.1 1.2-1.4c.5-.4 1-.6 1.6-.8.6-.1 1.2-.2 1.8-.1.7.1 1.2.3 1.7.6.4.3.8.6 1 1l-1 1c-.2-.3-.4-.5-.7-.7-.3-.2-.6-.3-1.1-.4-.4-.1-.8 0-1.2.1s-.7.3-1 .6c-.3.3-.5.6-.7 1-.2.4-.3.9-.4 1.4-.2 1.1 0 2 .4 2.6.4.7 1.1 1.1 2 1.2h.8c.3 0 .5-.1.6-.2l.3-2-1.8-.3.2-1.4 3.3.4-.6 4.2c-.4.3-.8.5-1.4.6-.6.2-1.2.2-1.8.1zm7.8.6l.1-9.5 5.7.1v1.4l-4.1-.1v2.4h3.4v1.4l-3.4-.1v2.8l4.2.1v1.4l-5.9.1z"/></g><g id="_x39_9d_logo" class="st4"><g class="st5"><defs><path id="SVGID_1_" d="M-3.7 8.1C12-19.2 46.6-28.5 73.8-12.8 100.9 3 110.2 37.9 94.5 65.1 78.8 92.4 44.2 101.7 17.1 86-10.1 70.3-19.3 35.4-3.7 8.1zm216.5 0c15.7-27.3 50.3-36.6 77.4-20.9 27.1 15.7 36.4 50.6 20.8 77.9-15.7 27.3-50.3 36.6-77.4 20.9-27.2-15.7-36.5-50.6-20.8-77.9zm302.9 172.2c-11.2 11.3-25.5 16.9-42.9 16.9-8.4 0-16.3-1.5-23.6-4.5-7.3-3-13.5-7.1-18.7-12.4-5.1-5.3-9.2-11.6-12.1-19-3-7.4-4.4-15.4-4.4-24.2 0-8.4 1.5-16.4 4.4-23.7s7.1-13.6 12.4-18.8c5.3-5.2 11.6-9.2 18.9-12.2 7.3-3 15.3-4.5 24-4.5 8.4 0 16.2 1.5 23.3 4.5 7.1 3 13.4 7.1 18.7 12.4 5.3 5.3 9.4 11.5 12.4 18.5 3 7.1 4.4 14.8 4.4 23.2 0 18-5.6 32.5-16.8 43.8zM153.6 97.8c10.6 18.9 26.1 35.3 46.2 47 16.8 9.8 35 15 53.1 16.3l-54 94.1h80.8L344.1 143c.5 16.2 3.4 31.2 8.5 44.9 5.8 15.3 13.9 28.5 24.3 39.6 10.4 11.1 22.8 19.8 37.1 26.1 14.3 6.3 30 9.4 47.1 9.4 16.2 0 29.8-2.6 40.8-7.7 11-5.2 21.2-13.5 30.6-25.1v24.9h66.3v-336h-70V40c-9.6-9.4-19.9-16.4-30.8-20.9-10.9-4.5-23.6-6.8-38.3-6.8-16.5 0-31.8 3.1-46 9.4-10.3 4.6-19.6 10.4-27.9 17.5.9-44-21.5-87.1-62-110.7-59.4-34.5-135.3-14-169.5 45.7-.3.4-.5.9-.7 1.3-10.5-18.9-26.1-35.3-46.2-47C48.1-106-27.8-85.5-62.1-25.8-96.3 33.9-76 110.3-16.6 144.7c16.8 9.8 35 15 53.1 16.3l-54 94.1h80.8l89.6-156c.2-.5.5-.9.7-1.3z"/></defs><clipPath id="SVGID_2_"><use xlink:href="#SVGID_1_" overflow="visible"/></clipPath><g clip-path="url(#SVGID_2_)"><defs><path id="SVGID_3_" d="M-625.5-798.8h1770.8V972H-625.5z"/></defs><clipPath id="SVGID_4_"><use xlink:href="#SVGID_3_" overflow="visible"/></clipPath><path clip-path="url(#SVGID_4_)" fill="#5c5857" d="M-89.8-99.3h699.7v373.2H-89.8z"/></g></g></g><g id="TEMPLATE__x28_delete_x29_" class="st4"><path d="M-240-413V587H760V-413H-240zm800 800H-40v-600h600v600z" opacity=".5" fill="#d6d4d4"/><g class="st5"><defs><path id="SVGID_5_" d="M7.5-118.1c2-3.5 6.4-4.6 9.8-2.7 3.4 2 4.6 6.4 2.6 9.9-2 3.5-6.4 4.6-9.8 2.7-3.4-2-4.6-6.4-2.6-9.9zm28.6 0c2-3.5 6.4-4.6 9.8-2.7 3.4 2 4.6 6.4 2.6 9.9-2 3.5-6.4 4.6-9.8 2.7-3.4-2-4.6-6.4-2.6-9.9zm43.3 21.8c-1.4 1.4-3.2 2.1-5.4 2.1-1.1 0-2.1-.2-3-.6s-1.7-.9-2.4-1.6c-.7-.7-1.2-1.5-1.5-2.4s-.6-2-.6-3.1.2-2.1.6-3c.4-.9.9-1.7 1.6-2.4.7-.7 1.5-1.2 2.4-1.6.9-.4 1.9-.6 3.1-.6 1.1 0 2.1.2 3 .6.9.4 1.7.9 2.4 1.6.7.7 1.2 1.5 1.6 2.3s.6 1.9.6 2.9c-.3 2.6-1 4.4-2.4 5.8zm1.7-33.1v15.3c-1.2-1.2-2.5-2.1-3.9-2.7-1.4-.6-3-.9-4.8-.9-2.1 0-4 .4-5.8 1.2s-3.3 1.9-4.7 3.3c-1.3 1.4-2.3 3.1-3.1 5-.8 1.9-1.1 4-1.1 6.3s.4 4.5 1.1 6.4c.7 1.9 1.8 3.6 3.1 5s2.9 2.5 4.7 3.3c1.8.8 3.8 1.2 6 1.2 2.1 0 3.8-.3 5.2-1s2.7-1.7 3.9-3.2v3.2h8.4v-42.6l-9 .2zM28-121.1c.2-.4.4-.9.7-1.3 4.3-7.6 14-10.2 21.5-5.8 7.5 4.4 10.1 14.1 5.8 21.6L44.6-86.8H34.4l6.8-11.9c-2.3-.2-4.6-.8-6.7-2.1-2.9-1.7-5.1-4.2-6.4-7.1-.2.4-.4.9-.7 1.3L16-86.8H5.8l6.9-11.9c-2.3-.2-4.6-.8-6.7-2.1-7.5-4.4-10.1-14.1-5.8-21.6 4.3-7.6 14-10.2 21.5-5.8 2.8 1.7 5 4.2 6.3 7.1zm72.7 16.3c.3-1.7 1.1-2.9 2.3-3.8 1.2-.9 2.6-1.3 4.3-1.3s3.2.5 4.4 1.4c1.2.9 2 2.2 2.3 3.7h-13.3zm20.9-2.9c-.8-2-1.9-3.7-3.3-5.1-1.4-1.4-3.1-2.6-5-3.4-1.9-.8-4-1.3-6.2-1.3-2.1 0-4.1.4-6 1.3-1.9.8-3.5 2-4.9 3.4-1.4 1.4-2.5 3.1-3.3 5.1s-1.2 4-1.2 6.2.4 4.3 1.2 6.2 1.9 3.6 3.3 5 3 2.5 4.9 3.3 3.9 1.2 6.1 1.2c3.2 0 6-.9 8.5-2.7 2.4-1.7 4.3-4.1 5.7-7.1h-9.2c-.9.9-1.8 1.5-2.6 1.8s-1.7.5-2.8.5c-1.8 0-3.3-.5-4.4-1.5-1.2-1-1.9-2.3-2.1-4h22.1c.7-3 .4-6-.8-8.9zm25.6-.4c-.4-5.8-4.9-9.3-11.3-9.3-6 0-11.4 3.8-11.4 9.6 0 3.5 2 6.4 9.4 8.7 4.4 1.4 5.4 2.2 5.4 3.9 0 1.4-1.5 2.3-3.1 2.3-1.8 0-3.1-.8-3.4-2.7H124c.6 6 5.4 9.8 12 9.8 6.7 0 12-3.9 12-10.1 0-4.3-2.3-7.1-9.3-9-4.1-1.1-5.5-1.9-5.5-3.5 0-1.1 1.1-2 2.6-2 1.4 0 2.7.5 2.7 2.2h8.7zm7.7-11.5c2.9 0 5.3-2.4 5.3-5.3s-2.4-5.3-5.3-5.3-5.3 2.4-5.3 5.3 2.4 5.3 5.3 5.3zm4.4 32.8h-8.9v-29.7h8.9v29.7zm16.9-24c2.7 0 4.9 2.2 4.9 4.9s-2.2 4.9-4.9 4.9-4.9-2.2-4.9-4.9c.1-2.7 2.2-4.9 4.9-4.9zm6.2 30.1c-1 1.4-2.9 1.9-4.5 1.9-1.9.1-4.4-.3-5.7-1.9-1.2-1.5-.9-3.6.7-4.6.5-.3 1-.5 1.5-.6h4.4c1.9 0 4.4.5 4.3 2.9 0 .9-.3 1.7-.7 2.3zm-8.6-11.9c-3.6-.6-3.5-2-2.6-2.7 8.2 3.1 18.1-.8 18.2-10.3 0-3.5-1.3-5.7-2.2-6.7.8-1.4 1.6-2.2 3.4-2.6l-3.7-6.4c-3.4.3-5.6 2.4-6.6 4.5-2-.8-6.1-.9-9.3.3-1.6.6-3 1.3-4.3 2.4-1.2 1.1-2.1 2.3-2.8 3.8-.7 1.5-1 3.1-1 4.8 0 2.3.7 4.9 2 6.8-3.6 3.5-3.4 8.8.3 12.1-.4.3-.8.6-1.1 1-3.3 3.6-1.8 8.7 2.1 11.3 4.8 3.5 13.4 3.7 18.7 1.3 9.3-3.8 9.6-17.6-1.2-19.4-2.9-.6-6.3.3-9.9-.2zm19 5.8h8.9v-16.6c0-3.9 1.7-5.8 5-5.8 1.6 0 2.8.5 3.5 1.5.7 1 1.1 2.6 1.1 4.7v16.2h8.9v-18.6c0-1.2-.1-2.2-.1-3.1-.1-.9-.3-1.7-.5-2.4s-.5-1.3-.9-1.9c-.4-.6-.9-1.1-1.4-1.7-.9-.9-2.1-1.7-3.5-2.2-1.4-.5-2.9-.8-4.4-.8-1.9 0-3.4.3-4.7 1s-2.4 1.7-3.4 3.2v-3.2h-8.4l-.1 29.7zm52.3-21.3c-.4-5.8-4.9-9.3-11.3-9.3-6 0-11.4 3.8-11.4 9.6 0 3.5 2 6.4 9.4 8.7 4.4 1.4 5.4 2.2 5.4 3.9 0 1.4-1.5 2.3-3.1 2.3-1.8 0-3.1-.8-3.4-2.7H222c.6 6 5.4 9.8 12 9.8 6.7 0 12-3.9 12-10.1 0-4.3-2.3-7.1-9.3-9-4.1-1.1-5.5-1.9-5.5-3.5 0-1.1 1.1-2 2.6-2 1.4 0 2.7.5 2.7 2.2h8.6z"/></defs><clipPath id="SVGID_6_"><use xlink:href="#SVGID_5_" overflow="visible"/></clipPath><g clip-path="url(#SVGID_6_)"><defs><path id="SVGID_7_" d="M-43.3-270.4h330.7V60.3H-43.3z"/></defs><clipPath id="SVGID_8_"><use xlink:href="#SVGID_7_" overflow="visible"/></clipPath><path clip-path="url(#SVGID_8_)" fill="#5c5857" d="M-4.1-132.4h252.2v62.8H-4.1z"/></g></g><g class="st5"><path d="M3-27.2h7v3.1H-.3v-16.8H3v13.7zm21.3-3c0 3.8-2.7 6.4-6.4 6.4-3.6 0-6.4-2.6-6.4-6.4s2.7-6.3 6.4-6.3 6.4 2.5 6.4 6.3zm-9.5 0c0 2 1.3 3.5 3.2 3.5 1.9 0 3.1-1.5 3.1-3.5s-1.3-3.5-3.1-3.5c-1.9 0-3.2 1.5-3.2 3.5zm23.1-3.4h-1.8c.1.4.2.9.2 1.4 0 2.5-2 4.2-4.8 4.2-.7 0-1.4-.1-2-.3-.2.2-.3.5-.3.9 0 .6.5 1 1.2 1h2.9c2.5 0 4 1.2 4 3.5 0 2.7-2.1 4.2-5.4 4.2-3.6 0-5.5-1.3-5.5-3.7 0-1.1.6-1.8 1.2-2.1-.7-.5-1.4-1.4-1.4-2.6 0-1.1.5-2 1.3-2.6-.5-.7-.8-1.5-.8-2.5 0-2.5 2.1-4.3 4.9-4.3.6 0 1.2.1 1.7.3h4.6v2.6zM30.7-24c-.7.1-1.3.6-1.3 1.4 0 1.1 1 1.7 2.5 1.7 1.4 0 2.3-.6 2.3-1.7 0-.9-.7-1.3-1.7-1.3l-1.8-.1zm-1-8.2c0 1.1.7 1.9 1.8 1.9s1.8-.8 1.8-1.9c0-1.2-.7-2-1.8-2s-1.8.8-1.8 2zm22.1 2c0 3.8-2.7 6.4-6.4 6.4S39-26.4 39-30.2s2.7-6.3 6.4-6.3c3.6 0 6.4 2.5 6.4 6.3zm-9.6 0c0 2 1.3 3.5 3.2 3.5 1.9 0 3.1-1.5 3.1-3.5s-1.3-3.5-3.1-3.5c-1.9 0-3.2 1.5-3.2 3.5zm21.1-6.1H66v2.8h-2.8v4.9c0 1.3.4 1.8 1.6 1.8.6 0 .9-.1 1.3-.2v2.7c-.4.1-1 .3-2 .3-2.7 0-4-1.1-4-3.8v-5.7h-2v-2.8h2v-3h3.1l.1 3zm16.3 6.1v1h-8.5c.1 1.6 1.2 2.7 2.9 2.7 1.2 0 2.1-.5 2.4-1.4h3c-.7 2.6-2.6 4.1-5.6 4.1-3.6 0-6.1-2.5-6.1-6.3 0-3.7 2.4-6.4 6.1-6.4 3.4 0 5.8 2 5.8 6.3zm-8.5-1.2h5.3c0-1.5-1-2.5-2.6-2.5-1.5 0-2.5 1-2.7 2.5zm28.3-.6v7.9h-3.1v-7.2c0-1.4-.6-2.2-1.7-2.2-1.2 0-2.1.9-2.1 2.8v6.6h-3.1v-7.2c0-1.4-.6-2.2-1.7-2.2-1.2 0-2.1 1-2.1 3v6.4h-3.1v-12.2h2.7l.2 1.6c.6-1 1.7-1.8 3.2-1.8 1.7 0 2.9.8 3.5 2.1.6-1.2 1.8-2.1 3.5-2.1 2.5 0 3.8 1.7 3.8 4.5zm15.9 1.8c0 3.6-2.4 6.4-5.7 6.4-1.8 0-3-.7-3.7-1.6v6.5h-3.1v-17.3h2.7l.2 1.6c.7-1 1.8-1.9 3.9-1.9 3.3 0 5.7 2.7 5.7 6.3zm-9.4-.1v.1c0 2.1 1.6 3.3 3.1 3.3 1.7 0 3.1-1.3 3.1-3.4s-1.3-3.4-3.1-3.4c-1.6.1-3.1 1.3-3.1 3.4zm15.2 6.2H118v-17.5h3.1v17.5zm12.9-8v8h-2.7l-.2-1.5c-.6 1-1.8 1.8-3.5 1.8-2.2 0-3.7-1.3-3.7-3.5 0-2.4 1.6-3.3 3.8-3.6l3.1-.6v-.5c0-1.2-.6-1.8-1.7-1.8-1 0-1.8.6-1.8 1.6h-3c.1-2.5 2-4.3 4.9-4.3s4.8 1.4 4.8 4.4zm-5.5 3.1c-.8.2-1.4.5-1.4 1.4 0 .7.5 1.2 1.4 1.2.8 0 1.5-.4 1.9-1.1.3-.4.4-1 .4-1.6v-.4l-2.3.5zm12.7-7.3h2.8v2.8h-2.8l-.1 4.9c0 1.3.4 1.8 1.6 1.8.6 0 .9-.1 1.3-.2v2.7c-.4.1-1 .3-2 .3-2.7 0-4-1.1-4-3.8l.1-5.7h-2v-2.8h2v-3h3.1v3zm16.3 6.1v1H149c.1 1.6 1.2 2.7 2.9 2.7 1.2 0 2.1-.5 2.4-1.4h3c-.7 2.6-2.6 4.1-5.6 4.1-3.6 0-6.1-2.5-6.1-6.3 0-3.7 2.4-6.4 6.1-6.4 3.4 0 5.8 2 5.8 6.3zm-8.5-1.2h5.3c0-1.5-1-2.5-2.6-2.5-1.5 0-2.5 1-2.7 2.5z" fill="#5c5856"/><path class="st12" d="M170.6-40.4c-2 2.7-3 5-3 8.6 0 3.6 1 6 3 8.6l-2.2 1.5c-2.2-2.7-3.7-5.7-3.7-10.1s1.5-7.4 3.7-10.1l2.2 1.5zm8 16.3h-3.3v-11.6h-3.5v-2.8c2.6 0 4-.6 4.4-2.4h2.4v16.8zm14.7-8.4c0 5.4-2.1 8.7-6 8.7s-5.9-3.4-5.9-8.7c0-5.3 2.1-8.7 5.9-8.7s6 3.3 6 8.7zm-8.6 0c0 3.5.9 5.7 2.6 5.7 1.8 0 2.6-2.1 2.6-5.7 0-3.5-.9-5.6-2.6-5.6-1.7 0-2.6 2-2.6 5.6zm22.6 0c0 5.4-2.1 8.7-6 8.7s-5.9-3.4-5.9-8.7c0-5.3 2.1-8.7 5.9-8.7s6 3.3 6 8.7zm-8.6 0c0 3.5.9 5.7 2.6 5.7 1.8 0 2.6-2.1 2.6-5.7 0-3.5-.9-5.6-2.6-5.6-1.8 0-2.6 2-2.6 5.6zm22.5 0c0 5.4-2.1 8.7-6 8.7s-5.9-3.4-5.9-8.7c0-5.3 2.1-8.7 5.9-8.7s6 3.3 6 8.7zm-8.6 0c0 3.5.9 5.7 2.6 5.7 1.8 0 2.6-2.1 2.6-5.7 0-3.5-.9-5.6-2.6-5.6-1.7 0-2.6 2-2.6 5.6zm25.4-.1l5.7 8.5h-3.9l-4-6.1-4 6.1h-3.9l5.6-8.5-5.5-8.3h3.9l3.9 5.8 3.9-5.8h3.9l-5.6 8.3zm19 8.5h-3.3v-11.6h-3.5v-2.8c2.6 0 4-.6 4.4-2.4h2.4v16.8zm14.7-8.4c0 5.4-2.1 8.7-6 8.7s-6-3.4-6-8.7c0-5.3 2.1-8.7 6-8.7s6 3.3 6 8.7zm-8.6 0c0 3.5.9 5.7 2.6 5.7 1.8 0 2.6-2.1 2.6-5.7 0-3.5-.9-5.6-2.6-5.6-1.7 0-2.6 2-2.6 5.6zm22.6 0c0 5.4-2.1 8.7-6 8.7s-6-3.4-6-8.7c0-5.3 2.1-8.7 6-8.7 3.8 0 6 3.3 6 8.7zm-8.6 0c0 3.5.9 5.7 2.6 5.7 1.8 0 2.6-2.1 2.6-5.7 0-3.5-.9-5.6-2.6-5.6-1.8 0-2.6 2-2.6 5.6zm22.5 0c0 5.4-2.1 8.7-6 8.7s-6-3.4-6-8.7c0-5.3 2.1-8.7 6-8.7s6 3.3 6 8.7zm-8.6 0c0 3.5.9 5.7 2.6 5.7 1.8 0 2.6-2.1 2.6-5.7 0-3.5-.9-5.6-2.6-5.6-1.7 0-2.6 2-2.6 5.6zm23.9 2.3c0 3.6-2.4 6.4-5.7 6.4-1.8 0-3-.7-3.6-1.6v6.5h-3.1v-17.3h2.7l.2 1.6c.7-1 1.8-1.9 3.9-1.9 3.2 0 5.6 2.7 5.6 6.3zm-9.4-.1v.1c0 2.1 1.6 3.3 3.1 3.3 1.7 0 3.1-1.3 3.1-3.4s-1.3-3.4-3.1-3.4c-1.5.1-3.1 1.3-3.1 3.4zm18.5 0l3.8 6.2h-3.6l-2.4-3.8-2.4 3.8h-3.6l3.8-6.2-3.7-6h3.6l2.2 3.5 2.2-3.5h3.6l-3.5 6zm10.6-1.5c0 4.4-1.6 7.4-3.8 10.1l-2.2-1.5c2-2.7 3-5 3-8.6 0-3.6-1-6-3-8.6l2.2-1.5c2.3 2.7 3.8 5.7 3.8 10.1z"/></g><g class="st5"><path class="st12" d="M1.6 30.2H6v1.3H1.6v-1.3zm13.2 1.2v4.7h-1.5V23.9H17c2.4 0 4.2 1.1 4.2 3.8 0 2.6-1.8 3.8-4.3 3.8h-2.1zm2.1-1.2c1.8 0 2.8-.9 2.8-2.6 0-1.8-1-2.6-2.8-2.6h-2.1v5.2h2.1zm6.4-6.7h1.4v12.6h-1.4V23.5zm4.2 6.5c0-1.5 1.2-2.5 3.2-2.5 2.1 0 3.1.9 3.1 3.1V34c0 .7.1.9.8 1v1.2h-.2c-1.3 0-1.8-.5-1.9-1.5-.5 1-1.5 1.6-2.7 1.6-1.7 0-2.7-.9-2.7-2.4 0-.9.4-1.7 1.3-2.1.9-.5 2.2-.6 4.1-.7v-.4c0-1.5-.6-2.1-1.8-2.1-1.3 0-1.7.7-1.8 1.4h-1.4zm4.9 2.3v-.2c-1.8.1-2.9.2-3.4.6-.3.2-.5.6-.5 1 0 .9.6 1.3 1.5 1.3 1.1.1 2.4-.7 2.4-2.7zm9.5-2.1c-.1-.9-.7-1.6-1.9-1.6-1.5 0-2.3 1.3-2.3 3.3 0 1.9.6 3.3 2.3 3.3 1.6 0 2-1.2 2.1-1.8h1.3c-.2 2-1.6 3-3.4 3-2.4 0-3.8-1.7-3.8-4.4 0-2.6 1.4-4.5 3.8-4.5 1.7 0 3.2.8 3.3 2.8 0-.1-1.4-.1-1.4-.1zm6.9 6.1c-2.6 0-3.8-1.9-3.8-4.4 0-2.5 1.3-4.5 3.8-4.5s3.5 2 3.5 4.1v.7h-5.8c.1 1.7.8 2.9 2.4 2.9 1.4 0 1.8-.8 1.9-1.3h1.4c-.3 1.5-1.6 2.5-3.4 2.5zm2-5.3c0-1.4-.6-2.5-2.1-2.5-1.3 0-2.1 1.1-2.3 2.6l4.4-.1zm7.5-3.3h1.4l1.8 5.3c.3.8.4 1.3.4 1.3s.1-.5.4-1.3l1.7-5.3h1.4l-3.1 9c-.7 1.9-1.2 2.7-3.1 2.7-.3 0-.6 0-.9-.1V38c.3.1.6.1.7.1 1.1 0 1.4-.4 1.8-1.5l.2-.5-2.7-8.4zm8.6 4.2c0-2.6 1.4-4.4 3.8-4.4 2.5 0 3.8 1.8 3.8 4.4 0 2.6-1.4 4.4-3.8 4.4-2.6 0-3.8-1.8-3.8-4.4zm1.4 0c0 2.1.7 3.3 2.3 3.3 1.6 0 2.3-1.3 2.3-3.3 0-2-.7-3.3-2.3-3.3-1.5 0-2.3 1.2-2.3 3.3zm9.9.9c0 .6 0 1.3.3 1.7.3.4.7.6 1.3.6 1.6 0 2.3-1 2.3-2.9v-4.6h1.4V36h-1.4v-1.4c-.4.9-1.3 1.7-2.7 1.7-1.6 0-2.7-.8-2.7-2.8v-5.9h1.4l.1 5.2zm8.5-5.1h1.4v1.6c.4-.9 1.4-1.8 2.7-1.8h.1V29h-.3c-1.5 0-2.5.9-2.5 2.5v4.6h-1.4v-8.4zm11-4.2h1.4v12.6h-1.4V23.5zm3.8 8.4c0-2.6 1.4-4.4 3.8-4.4 2.5 0 3.8 1.8 3.8 4.4 0 2.6-1.4 4.4-3.8 4.4-2.5 0-3.8-1.8-3.8-4.4zm1.5 0c0 2.1.7 3.3 2.3 3.3 1.6 0 2.3-1.3 2.3-3.3 0-2-.7-3.3-2.3-3.3-1.6 0-2.3 1.2-2.3 3.3zm8.1 5h1.4c.2.7.7 1.2 2.1 1.2 1.6 0 2.4-.6 2.4-2.5v-1.3c-.4.8-1.4 1.5-2.7 1.5-1.8 0-3.4-1.1-3.4-4.2 0-2.8 1.5-4.3 3.6-4.3 1.4 0 2.2.8 2.5 1.5v-1.3h1.4v8.2c0 2.4-1.6 3.4-3.8 3.4-1.7.2-3.3-.4-3.5-2.2zm5.9-5.5c0-1.7-.9-2.8-2.4-2.8s-2.2 1.3-2.2 3.2c0 1.9.5 3.1 2.3 3.1 1.4 0 2.3-1.2 2.3-2.6v-.9zm3.8.5c0-2.6 1.4-4.4 3.8-4.4 2.5 0 3.8 1.8 3.8 4.4 0 2.6-1.4 4.4-3.8 4.4-2.5 0-3.8-1.8-3.8-4.4zm1.5 0c0 2.1.7 3.3 2.3 3.3 1.6 0 2.3-1.3 2.3-3.3 0-2-.7-3.3-2.3-3.3-1.6 0-2.3 1.2-2.3 3.3zm11.9-4.2h1.5l1.6 5.7c.1.5.3 1.1.3 1.1s.2-.6.3-1.1l1.8-5.7h1.5l1.8 5.7c.2.5.3 1.1.3 1.1s.1-.6.3-1.1l1.7-5.7h1.4l-2.6 8.4h-1.5l-1.5-5c-.2-.8-.5-1.8-.5-1.8s-.3 1-.5 1.8l-1.6 5H137l-2.8-8.4zm14.5-3.5h1.5v1.5h-1.5v-1.5zm.1 3.5h1.5v8.4h-1.5v-8.4zm6.3-2.5v2.5h2.1v1.1h-2.1v5c0 .9.4 1.3 1.3 1.3.4 0 .9-.1.9-.1v1.2s-.6.1-1.3.1c-1.6 0-2.3-.8-2.3-2.2v-5.2h-1.5v-1.1h.3c1.1 0 1.4-.3 1.4-1.9v-.6h1.2zm9.6 5.7c0-.6 0-1.3-.3-1.7-.3-.4-.8-.6-1.3-.6-1.6 0-2.3 1-2.3 2.4v5.1h-1.4V23.5h1.4V29c.4-.8 1.3-1.6 2.6-1.6 1.6 0 2.7.8 2.7 2.8v5.9h-1.4v-5.2zm4.5-6.7h1.5v1.5h-1.5v-1.5zm0 3.5h1.5v8.4h-1.5v-8.4zm10 3.2c0-.6 0-1.3-.3-1.7-.3-.4-.8-.6-1.3-.6-1.6 0-2.3 1-2.3 2.4v5.1h-1.4v-8.4h1.4v1.4c.4-.9 1.4-1.6 2.7-1.6 1.6 0 2.7.8 2.7 2.8v5.9h-1.4v-5.3zm10.8-5.7v2.5h2.1v1.1H190v5c0 .9.4 1.3 1.3 1.3.4 0 .9-.1.9-.1v1.2s-.6.1-1.3.1c-1.6 0-2.3-.8-2.3-2.2v-5.2h-1.5v-1.1h.3c1.1 0 1.4-.3 1.4-1.9v-.6h1.2zm9.6 5.7c0-.6 0-1.3-.3-1.7-.3-.4-.8-.6-1.3-.6-1.6 0-2.3 1-2.3 2.4v5.1h-1.4V23.5h1.4V29c.4-.8 1.3-1.6 2.6-1.6 1.6 0 2.7.8 2.7 2.8v5.9h-1.4v-5.2zm7.6 5.4c-2.6 0-3.8-1.9-3.8-4.4 0-2.5 1.3-4.5 3.8-4.5s3.5 2 3.5 4.1v.7h-5.8c.1 1.7.8 2.9 2.4 2.9 1.4 0 1.8-.8 1.9-1.3h1.4c-.4 1.5-1.6 2.5-3.4 2.5zm2-5.3c0-1.4-.6-2.5-2.1-2.5-1.3 0-2.1 1.1-2.3 2.6l4.4-.1zm13.3-.8c-.1-.9-.7-1.6-1.9-1.6-1.5 0-2.3 1.3-2.3 3.3 0 1.9.6 3.3 2.3 3.3 1.6 0 2-1.2 2.1-1.8h1.3c-.2 2-1.6 3-3.4 3-2.4 0-3.8-1.7-3.8-4.4 0-2.6 1.4-4.5 3.8-4.5 1.7 0 3.2.8 3.3 2.8 0-.1-1.4-.1-1.4-.1zm3.8-2.5h1.4v1.6c.4-.9 1.4-1.8 2.7-1.8h.1V29h-.3c-1.5 0-2.5.9-2.5 2.5v4.6h-1.4v-8.4zm5.5 4.2c0-2.6 1.4-4.4 3.8-4.4 2.5 0 3.8 1.8 3.8 4.4 0 2.6-1.4 4.4-3.8 4.4-2.5 0-3.8-1.8-3.8-4.4zm1.5 0c0 2.1.7 3.3 2.3 3.3 1.6 0 2.3-1.3 2.3-3.3 0-2-.7-3.3-2.3-3.3-1.5 0-2.3 1.2-2.3 3.3zm8.5-4.2h1.4v1.4c.5-.9 1.4-1.6 2.7-1.6 1.8 0 3.4 1.1 3.4 4.3 0 3.1-1.6 4.5-3.5 4.5-1.2 0-2.2-.7-2.5-1.4v4.2h-1.4V27.7zm3.8 7.5c1.5 0 2.2-1.2 2.2-3.4 0-1.8-.5-3.1-2.3-3.1-1.5 0-2.4 1.3-2.4 2.7v.9c.1 1.5.9 2.9 2.5 2.9zm6.1-7.5h1.4v1.4c.5-.9 1.4-1.6 2.7-1.6 1.8 0 3.4 1.1 3.4 4.3 0 3.1-1.6 4.5-3.5 4.5-1.2 0-2.2-.7-2.5-1.4v4.2h-1.4l-.1-11.4zm3.9 7.5c1.5 0 2.2-1.2 2.2-3.4 0-1.8-.5-3.1-2.3-3.1-1.5 0-2.4 1.3-2.4 2.7v.9c0 1.5.8 2.9 2.5 2.9zm6-11h1.5v1.5h-1.5v-1.5zm.1 3.5h1.5v8.4h-1.5v-8.4zm10 3.2c0-.6 0-1.3-.3-1.7-.3-.4-.8-.6-1.3-.6-1.6 0-2.3 1-2.3 2.4v5.1h-1.4v-8.4h1.4v1.4c.4-.9 1.4-1.6 2.7-1.6 1.6 0 2.7.8 2.7 2.8v5.9h-1.4v-5.3zm3.9 6h1.4c.2.7.7 1.2 2.1 1.2 1.6 0 2.4-.6 2.4-2.5v-1.3c-.4.8-1.4 1.5-2.7 1.5-1.8 0-3.4-1.1-3.4-4.2 0-2.8 1.5-4.3 3.5-4.3 1.4 0 2.2.8 2.5 1.5v-1.3h1.4v8.2c0 2.4-1.5 3.4-3.8 3.4-1.5.2-3.2-.4-3.4-2.2zm5.9-5.5c0-1.7-.9-2.8-2.4-2.8s-2.2 1.3-2.2 3.2c0 1.9.5 3.1 2.3 3.1 1.4 0 2.3-1.2 2.3-2.6v-.9zm8.6 5.5h1.4c.2.7.7 1.2 2.1 1.2 1.6 0 2.4-.6 2.4-2.5v-1.3c-.4.8-1.4 1.5-2.7 1.5-1.8 0-3.4-1.1-3.4-4.2 0-2.8 1.5-4.3 3.5-4.3 1.4 0 2.2.8 2.5 1.5v-1.3h1.4v8.2c0 2.4-1.5 3.4-3.8 3.4-1.6.2-3.2-.4-3.4-2.2zm5.9-5.5c0-1.7-.9-2.8-2.4-2.8s-2.2 1.3-2.2 3.2c0 1.9.5 3.1 2.3 3.1 1.4 0 2.3-1.2 2.3-2.6v-.9zm5.8 1.4c0 .6 0 1.3.3 1.7.3.4.7.6 1.3.6 1.6 0 2.3-1 2.3-2.9v-4.6h1.4V36h-1.4v-1.4c-.4.9-1.3 1.7-2.7 1.7-1.6 0-2.7-.8-2.7-2.8v-5.9h1.4l.1 5.2zm8.5-8.6h1.5v1.5h-1.5v-1.5zm0 3.5h1.5v8.4h-1.5v-8.4zm11.4 8.4h-1.4v-1.4c-.5.8-1.4 1.6-2.7 1.6-1.8 0-3.4-1.1-3.4-4.4 0-2.9 1.5-4.5 3.6-4.5 1.3 0 2.1.7 2.4 1.5v-5.5h1.4l.1 12.7zm-1.4-4.6c0-1.8-.9-3-2.3-3-1.6 0-2.4 1.3-2.4 3.3 0 1.9.6 3.3 2.2 3.3 1.5 0 2.4-1.2 2.4-2.7l.1-.9zm7.6 4.8c-2.6 0-3.8-1.9-3.8-4.4 0-2.5 1.3-4.5 3.8-4.5s3.5 2 3.5 4.1v.7h-5.8c.1 1.7.8 2.9 2.4 2.9 1.4 0 1.8-.8 1.9-1.3h1.4c-.3 1.5-1.6 2.5-3.4 2.5zm2-5.3c0-1.4-.6-2.5-2.1-2.5-1.3 0-2.1 1.1-2.3 2.6l4.4-.1zm8.1-1.2c-.1-.8-.7-1.2-1.7-1.2s-1.6.6-1.6 1.4c0 .7.4 1 1.3 1.1l1.3.2c1.8.3 2.4 1 2.4 2.5 0 1.7-1.4 2.6-3.3 2.6-1.8 0-3.2-.8-3.3-2.6h1.4c.1.7.4 1.5 1.9 1.5 1.1 0 1.9-.5 1.9-1.4 0-.7-.2-1-1.3-1.2l-1.3-.2c-1.5-.2-2.3-.9-2.3-2.3 0-1.5 1.1-2.6 3.1-2.6 1.8 0 2.9.9 3 2.3l-1.5-.1zm3.5 4.3h2v2h-2v-2zM1.6 60.2H6v1.3H1.6v-1.3zm16.6-6.5c3 0 5.5 2 5.5 6.3 0 4.4-2.5 6.3-5.5 6.3s-5.5-2-5.5-6.3c.1-4.4 2.6-6.3 5.5-6.3zm4 6.3c0-3.4-1.6-5.2-4-5.2-2.3 0-3.9 1.7-3.9 5.2 0 3.3 1.6 5.1 3.9 5.1 2.3.1 4-1.8 4-5.1zm5.7 2.8c0 .6 0 1.3.3 1.7.3.4.7.6 1.3.6 1.6 0 2.3-1 2.3-2.9v-4.6h1.4V66h-1.4v-1.4c-.4.9-1.3 1.7-2.7 1.7-1.6 0-2.7-.8-2.7-2.8v-5.9h1.4l.1 5.2zm10.3-7.6v2.5h2.1v1.1h-2.1v5c0 .9.4 1.3 1.3 1.3.4 0 .9-.1.9-.1v1.2s-.6.1-1.3.1c-1.7 0-2.3-.8-2.3-2.2v-5.2h-1.5v-1.1h.3c1.1 0 1.4-.3 1.4-1.9v-.6c-.1-.1 1.2-.1 1.2-.1zm4.2-1.7h1.4v12.6h-1.4V53.5zm4.5.7h1.5v1.5h-1.5v-1.5zm.1 3.5h1.5v8.4H47v-8.4zm10 3.2c0-.6 0-1.3-.3-1.7-.3-.4-.8-.6-1.3-.6-1.6 0-2.3 1-2.3 2.4v5.1h-1.4v-8.4H53v1.4c.4-.9 1.4-1.6 2.7-1.6 1.6 0 2.7.8 2.7 2.8v5.9H57v-5.3zm7.5 5.4c-2.6 0-3.8-1.9-3.8-4.4 0-2.5 1.3-4.5 3.8-4.5s3.5 2 3.5 4.1v.7h-5.8c.1 1.7.8 2.9 2.4 2.9 1.4 0 1.8-.8 1.9-1.3h1.4c-.3 1.5-1.6 2.5-3.4 2.5zm2-5.3c0-1.4-.6-2.5-2.1-2.5-1.3 0-2.1 1.1-2.3 2.6l4.4-.1c0 .1 0 0 0 0zm8.1-1c0-1.5 1.2-2.5 3.2-2.5 2.1 0 3.1.9 3.1 3.1V64c0 .7.1.9.8 1v1.2h-.2c-1.3 0-1.8-.5-1.9-1.5-.4 1-1.5 1.6-2.7 1.6-1.7 0-2.7-.9-2.7-2.4 0-.9.4-1.7 1.3-2.1.9-.5 2.2-.6 4.1-.7v-.4c0-1.5-.6-2.1-1.8-2.1-1.3 0-1.7.7-1.8 1.4h-1.4zm4.9 2.3v-.2c-1.8.1-2.9.2-3.4.6-.3.2-.5.6-.5 1 0 .9.6 1.3 1.5 1.3 1.1.1 2.4-.7 2.4-2.7zm4.4-8.8h1.4v12.6h-1.4V53.5zm4.6 0H90v12.6h-1.4V53.5zm10.9 12.6H98v-7.3h-1.5v-1.1H98v-1.9c0-1.7 1-2.3 2.6-2.3.3 0 .6 0 .9.1v1.2c-.2 0-.4-.1-.8-.1-.8 0-1.2.3-1.2 1.3v1.7h2v1.1h-2l-.1 7.3zm3.2-4.2c0-2.6 1.4-4.4 3.8-4.4 2.5 0 3.8 1.8 3.8 4.4 0 2.6-1.4 4.4-3.8 4.4-2.5 0-3.8-1.8-3.8-4.4zm1.5 0c0 2.1.7 3.3 2.3 3.3 1.6 0 2.3-1.3 2.3-3.3 0-2-.7-3.3-2.3-3.3-1.5 0-2.3 1.2-2.3 3.3zm13.9-1c0-.6 0-1.3-.3-1.7-.3-.4-.8-.6-1.3-.6-1.6 0-2.3 1-2.3 2.4v5.1h-1.4v-8.4h1.4v1.4c.4-.9 1.4-1.6 2.7-1.6 1.6 0 2.7.8 2.7 2.8v5.9H118v-5.3zm6.3-5.7v2.5h2.1v1.1h-2.1v5c0 .9.4 1.3 1.3 1.3.4 0 .9-.1.9-.1v1.2s-.6.1-1.3.1c-1.7 0-2.3-.8-2.3-2.2v-5.2h-1.5v-1.1h.3c1.1 0 1.4-.3 1.4-1.9v-.6c-.2-.1 1.2-.1 1.2-.1zm8.4 4.6c-.1-.8-.7-1.2-1.7-1.2s-1.6.6-1.6 1.4c0 .7.4 1 1.3 1.2l1.3.2c1.8.3 2.4 1 2.4 2.5 0 1.7-1.4 2.6-3.3 2.6-1.8 0-3.2-.8-3.3-2.6h1.4c.1.7.4 1.5 1.9 1.5 1.1 0 1.9-.5 1.9-1.4 0-.7-.2-1-1.3-1.2l-1.3-.2c-1.5-.2-2.3-.9-2.3-2.3 0-1.5 1.1-2.6 3.1-2.6 1.8 0 2.9.8 3 2.3l-1.5-.2zm9.9 3c0 .6 0 1.3.3 1.7.3.4.7.6 1.3.6 1.6 0 2.3-1 2.3-2.9v-4.6h1.4V66h-1.4v-1.4c-.4.9-1.3 1.7-2.7 1.7-1.6 0-2.7-.8-2.7-2.8v-5.9h1.4l.1 5.2zm12.7-3c-.1-.8-.7-1.2-1.7-1.2s-1.6.6-1.6 1.4c0 .7.4 1 1.3 1.2l1.3.2c1.8.3 2.4 1 2.4 2.5 0 1.7-1.4 2.6-3.3 2.6-1.8 0-3.2-.8-3.3-2.6h1.4c.1.7.4 1.5 1.9 1.5 1.1 0 1.9-.5 1.9-1.4 0-.7-.2-1-1.3-1.2l-1.3-.2c-1.5-.2-2.3-.9-2.3-2.3 0-1.5 1.1-2.6 3.1-2.6 1.8 0 2.9.8 3 2.3l-1.5-.2zm7.2 6.5c-2.6 0-3.8-1.9-3.8-4.4 0-2.5 1.3-4.5 3.8-4.5s3.5 2 3.5 4.1v.7h-5.8c.1 1.7.8 2.9 2.4 2.9 1.4 0 1.8-.8 1.9-1.3h1.4c-.3 1.5-1.6 2.5-3.4 2.5zm2-5.3c0-1.4-.6-2.5-2.1-2.5-1.3 0-2.1 1.1-2.3 2.6l4.4-.1zm10.8 5.1h-1.4v-1.4h-.1c-.4.8-1.4 1.6-2.7 1.6-1.8 0-3.4-1.1-3.4-4.4 0-2.9 1.5-4.5 3.6-4.5 1.3 0 2.1.7 2.4 1.5v-5.5h1.4l.2 12.7zm-1.5-4.6c0-1.8-.9-3-2.3-3-1.6 0-2.4 1.3-2.4 3.3 0 1.9.6 3.3 2.2 3.3 1.5 0 2.4-1.2 2.4-2.7v-.9zm9.1-7.3h1.5v1.5h-1.5v-1.5zm0 3.5h1.5v8.4h-1.5v-8.4zm10 3.2c0-.6 0-1.3-.3-1.7-.3-.4-.8-.6-1.3-.6-1.6 0-2.3 1-2.3 2.4v5.1h-1.4v-8.4h1.4v1.4c.4-.9 1.4-1.6 2.7-1.6 1.6 0 2.7.8 2.7 2.8v5.9H193v-5.3zm8.2-3.2h1.4l1.8 5.3c.3.8.4 1.3.4 1.3h.1s.1-.5.4-1.3l1.7-5.3h1.4l-3.1 9c-.7 1.9-1.2 2.7-3.1 2.7-.3 0-.6-.1-.9-.1V68c.3.1.6.1.7.1 1.1 0 1.4-.4 1.8-1.5l.2-.4-2.8-8.5zm8.5 4.2c0-2.6 1.4-4.4 3.8-4.4 2.5 0 3.8 1.8 3.8 4.4 0 2.6-1.4 4.4-3.8 4.4-2.5 0-3.8-1.8-3.8-4.4zm1.5 0c0 2.1.7 3.3 2.3 3.3 1.6 0 2.3-1.3 2.3-3.3 0-2-.7-3.3-2.3-3.3-1.6 0-2.3 1.2-2.3 3.3zm9.9.9c0 .6 0 1.3.3 1.7.3.4.7.6 1.3.6 1.6 0 2.3-1 2.3-2.9v-4.6h1.4V66h-1.4v-1.4c-.4.9-1.3 1.7-2.7 1.7-1.6 0-2.7-.8-2.7-2.8v-5.9h1.4l.1 5.2zm8.5-5.1h1.4v1.6c.4-.9 1.4-1.8 2.7-1.8h.1V59h-.3c-1.5 0-2.5.9-2.5 2.5v4.6h-1.4v-8.4zm17.7 8.4h-1.4v-1.4h-.1c-.4.8-1.4 1.6-2.7 1.6-1.8 0-3.4-1.1-3.4-4.4 0-2.9 1.5-4.5 3.6-4.5 1.3 0 2.1.7 2.4 1.5v-5.5h1.4l.2 12.7zm-1.4-4.6c0-1.8-.9-3-2.3-3-1.6 0-2.4 1.3-2.4 3.3 0 1.9.6 3.3 2.2 3.3 1.5 0 2.4-1.2 2.4-2.7v-.9zm7.6 4.8c-2.6 0-3.8-1.9-3.8-4.4 0-2.5 1.3-4.5 3.8-4.5s3.5 2 3.5 4.1v.7H251c.1 1.7.8 2.9 2.4 2.9 1.4 0 1.8-.8 1.9-1.3h1.4c-.2 1.5-1.5 2.5-3.3 2.5zm2-5.3c0-1.4-.6-2.5-2.1-2.5-1.3 0-2.1 1.1-2.3 2.6l4.4-.1zm8.1-1.2c-.1-.8-.7-1.2-1.7-1.2s-1.6.6-1.6 1.4c0 .7.4 1 1.3 1.2l1.3.2c1.8.3 2.4 1 2.4 2.5 0 1.7-1.4 2.6-3.3 2.6-1.8 0-3.2-.8-3.3-2.6h1.4c.1.7.4 1.5 1.9 1.5 1.1 0 1.9-.5 1.9-1.4 0-.7-.2-1-1.3-1.2l-1.3-.2c-1.5-.2-2.3-.9-2.3-2.3 0-1.5 1.1-2.6 3.1-2.6 1.8 0 2.9.8 3 2.3l-1.5-.2zm4-5.6h1.5v1.5h-1.5v-1.5zm.1 3.5h1.5v8.4h-1.5v-8.4zm4.1 9.2h1.4c.2.7.7 1.2 2.1 1.2 1.6 0 2.4-.6 2.4-2.4v-1.3c-.4.8-1.4 1.6-2.7 1.6-1.8 0-3.4-1.1-3.4-4.2 0-2.8 1.5-4.3 3.5-4.3 1.4 0 2.2.8 2.5 1.5v-1.3h1.4v8.2c0 2.4-1.5 3.4-3.8 3.4-1.6 0-3.2-.6-3.4-2.4zm5.9-5.5c0-1.7-.9-2.8-2.4-2.8s-2.2 1.3-2.2 3.2c0 1.9.5 3.1 2.3 3.1 1.4 0 2.3-1.2 2.3-2.6v-.9zm9.9-.5c0-.6 0-1.3-.3-1.7-.3-.4-.8-.6-1.3-.6-1.6 0-2.3 1-2.3 2.4v5.1h-1.4v-8.4h1.4v1.4c.4-.9 1.4-1.6 2.7-1.6 1.6 0 2.7.8 2.7 2.8v5.9h-1.4v-5.3zm3.9 3.2h2V66h-2v-1.9zM1.6 90.2H6v1.3H1.6v-1.3zm11.8-6.4h7.8v1.3h-6.3v4.1h5.8v1.3h-5.8v4.2h6.4V96h-7.9V83.8zm12.5 7.9l-2.7-4.1h1.7l1.8 2.9 1.9-2.9h1.6l-2.7 4 2.9 4.4h-1.7l-2.1-3.3-2.1 3.3H23l2.9-4.3zm6.5-4h1.4v1.4c.5-.9 1.4-1.6 2.7-1.6 1.8 0 3.4 1.1 3.4 4.3 0 3.1-1.6 4.6-3.5 4.6-1.2 0-2.2-.7-2.5-1.4v4.2h-1.4c-.1-.1-.1-11.5-.1-11.5zm3.8 7.5c1.5 0 2.2-1.2 2.2-3.4 0-1.8-.5-3.2-2.3-3.2-1.5 0-2.4 1.3-2.4 2.7v.9c.1 1.6.9 3 2.5 3zm5.5-3.3c0-2.6 1.4-4.4 3.8-4.4 2.5 0 3.8 1.8 3.8 4.4 0 2.6-1.4 4.4-3.8 4.4-2.5 0-3.8-1.8-3.8-4.4zm1.5 0c0 2.1.7 3.3 2.3 3.3 1.6 0 2.3-1.3 2.3-3.3 0-2.1-.7-3.3-2.3-3.3-1.5 0-2.3 1.2-2.3 3.3zm8.5-4.2h1.4v1.6c.4-.9 1.4-1.8 2.7-1.8h.1V89h-.3c-1.5 0-2.5.9-2.5 2.5v4.6h-1.4v-8.4zm8.4-2.5v2.4h2.1v1.1h-2.1v5c0 .9.4 1.3 1.3 1.3.4 0 .9-.1.9-.1v1.2s-.6.1-1.3.1c-1.7 0-2.3-.8-2.3-2.2v-5.2h-1.5v-1.1h.3c1.1 0 1.4-.3 1.4-1.9v-.6h1.2zm8.4 4.8c0-1.5 1.2-2.5 3.2-2.5 2.1 0 3.1.9 3.1 3.1V94c0 .7.1.9.8 1v1.2h-.2c-1.3 0-1.8-.5-1.9-1.5-.4 1-1.5 1.6-2.7 1.6-1.7 0-2.7-.9-2.7-2.4 0-.9.4-1.7 1.3-2.1.9-.5 2.2-.6 4.1-.7v-.4c0-1.5-.6-2.1-1.8-2.1-1.3 0-1.7.7-1.8 1.4h-1.4zm4.9 2.3v-.2c-1.8.1-2.9.2-3.4.6-.3.2-.5.6-.5 1 0 .9.6 1.3 1.5 1.3 1.1.1 2.4-.7 2.4-2.7zm9.8-1.4c0-.6 0-1.3-.3-1.7-.3-.4-.8-.6-1.3-.6-1.6 0-2.3 1-2.3 2.4v5.1h-1.4v-8.4h1.4v1.4c.4-.9 1.4-1.6 2.7-1.6 1.6 0 2.7.8 2.7 2.8v5.9h-1.4v-5.3zm11.3 5.2h-1.4v-1.4H93c-.4.8-1.4 1.6-2.7 1.6-1.8 0-3.4-1.1-3.4-4.4 0-2.9 1.5-4.5 3.6-4.5 1.3 0 2.1.7 2.4 1.5v-5.5h1.4l.2 12.7zm-1.4-4.5c0-1.8-.9-2.9-2.3-2.9-1.6 0-2.3 1.3-2.3 3.3 0 1.9.6 3.3 2.2 3.3 1.5 0 2.4-1.2 2.4-2.7v-1zm13.2-1.8c-.1-.8-.7-1.2-1.7-1.2s-1.7.6-1.7 1.4c0 .7.4 1 1.3 1.2l1.3.2c1.8.3 2.4 1 2.4 2.4 0 1.7-1.4 2.6-3.3 2.6-1.8 0-3.2-.8-3.3-2.6h1.4c.1.7.4 1.5 1.9 1.5 1.2 0 1.9-.5 1.9-1.4 0-.7-.2-1-1.3-1.2l-1.3-.2c-1.5-.2-2.3-.9-2.3-2.3 0-1.5 1.1-2.6 3.1-2.6 1.8 0 2.9.8 3 2.3l-1.4-.1zm5.4 3c0 .6 0 1.3.3 1.7.3.4.7.6 1.3.6 1.6 0 2.3-1 2.3-2.9v-4.6h1.4V96h-1.4v-1.4c-.4.9-1.3 1.7-2.7 1.7-1.6 0-2.7-.8-2.7-2.8v-5.9h1.4l.1 5.2zm8.5-9.3h1.4v5.6c.5-.9 1.4-1.6 2.7-1.6 1.8 0 3.4 1.1 3.4 4.3 0 3.1-1.6 4.6-3.5 4.6-1.3 0-2.2-.7-2.6-1.6v1.3h-1.4V83.5zm6 8.3c0-1.8-.5-3.2-2.3-3.2-1.5 0-2.4 1.3-2.4 2.7v.9c0 1.7.8 3 2.4 3 1.6 0 2.3-1.2 2.3-3.4zm3.9-4.1h1.4v1.4c.4-.9 1.4-1.6 2.7-1.6 1.3 0 2.2.6 2.5 1.8.3-.9 1.4-1.8 2.8-1.8 1.6 0 2.7.8 2.7 2.8v5.9h-1.4V91c0-.6 0-1.3-.3-1.7-.3-.4-.8-.5-1.3-.5-1.6 0-2.3 1-2.3 2.4v5.1h-1.4v-5.2c0-.6 0-1.3-.3-1.7-.3-.4-.8-.6-1.3-.6-1.6 0-2.3 1-2.3 2.3v5.1h-1.4l-.1-8.5zm15.2-3.5h1.5v1.6h-1.5v-1.6zm0 3.5h1.5v8.4h-1.5v-8.4zm6.4-2.5v2.4h2.1v1.1h-2.1v5c0 .9.4 1.3 1.3 1.3.4 0 .9-.1.9-.1v1.2s-.6.1-1.3.1c-1.6 0-2.3-.8-2.3-2.2v-5.2h-1.5v-1.1h.3c1.1 0 1.4-.3 1.4-1.9v-.6h1.2zm8.7-1.7h1.4v12.6h-1.4V83.5zm3.9 8.4c0-2.6 1.4-4.4 3.8-4.4 2.5 0 3.8 1.8 3.8 4.4 0 2.6-1.4 4.4-3.8 4.4-2.6 0-3.8-1.8-3.8-4.4zm1.4 0c0 2.1.7 3.3 2.3 3.3 1.6 0 2.3-1.3 2.3-3.3 0-2.1-.7-3.3-2.3-3.3-1.5 0-2.3 1.2-2.3 3.3zm8.2 5h1.4c.2.7.7 1.2 2.1 1.2 1.6 0 2.4-.6 2.4-2.4v-1.3c-.4.8-1.4 1.6-2.7 1.6-1.8 0-3.4-1.1-3.4-4.2 0-2.8 1.5-4.3 3.6-4.3 1.4 0 2.2.8 2.5 1.5v-1.3h1.4v8.2c0 2.4-1.6 3.4-3.8 3.4-1.7 0-3.4-.6-3.5-2.4zm5.9-5.5c0-1.7-.9-2.8-2.4-2.8s-2.2 1.3-2.2 3.2c0 1.9.5 3.1 2.3 3.1 1.4 0 2.3-1.2 2.3-2.6v-.9zm3.8.5c0-2.6 1.4-4.4 3.8-4.4 2.5 0 3.8 1.8 3.8 4.4 0 2.6-1.4 4.4-3.8 4.4-2.6 0-3.8-1.8-3.8-4.4zm1.4 0c0 2.1.7 3.3 2.3 3.3 1.6 0 2.3-1.3 2.3-3.3 0-2.1-.7-3.3-2.3-3.3-1.5 0-2.3 1.2-2.3 3.3zm12.8-2.1c-.1-.8-.7-1.2-1.7-1.2s-1.6.6-1.6 1.4c0 .7.4 1 1.3 1.2l1.3.2c1.8.3 2.4 1 2.4 2.4 0 1.7-1.4 2.6-3.3 2.6-1.8 0-3.2-.8-3.3-2.6h1.4c.1.7.4 1.5 1.9 1.5 1.1 0 1.9-.5 1.9-1.4 0-.7-.2-1-1.3-1.2l-1.3-.2c-1.5-.2-2.3-.9-2.3-2.3 0-1.5 1.1-2.6 3.1-2.6 1.8 0 2.9.8 3 2.3l-1.5-.1zm8.2.2c0-1.5 1.2-2.5 3.2-2.5 2.1 0 3.1.9 3.1 3.1V94c0 .7.1.9.8 1v1.2h-.2c-1.3 0-1.8-.5-1.9-1.5-.4 1-1.5 1.6-2.7 1.6-1.7 0-2.7-.9-2.7-2.4 0-.9.4-1.7 1.3-2.1.9-.5 2.2-.6 4.1-.7v-.4c0-1.5-.6-2.1-1.8-2.1-1.3 0-1.7.7-1.8 1.4H206zm4.9 2.3v-.2c-1.8.1-2.9.2-3.4.6-.3.2-.5.6-.5 1 0 .9.6 1.3 1.5 1.3 1.1.1 2.4-.7 2.4-2.7zm6.2-7.1v2.4h2.1v1.1h-2.1v5c0 .9.4 1.3 1.3 1.3.4 0 .9-.1.9-.1v1.2s-.6.1-1.3.1c-1.6 0-2.3-.8-2.3-2.2v-5.2h-1.5v-1.1h.3c1.1 0 1.4-.3 1.4-1.9v-.6h1.2zm10.5 2.2h-2.4v-1h.4c.8 0 1.4-.2 1.7-.6.4-.3.5-.8.5-1.6h1.2v11.9h-1.5l.1-8.7zm9-3.3c2.6 0 4.3 2 4.3 6.2 0 4.1-1.7 6.2-4.3 6.2-2.6 0-4.2-2-4.2-6.2s1.6-6.2 4.2-6.2zm2.7 6.1c0-3.3-1-5-2.7-5-1.7 0-2.7 1.6-2.7 5 0 3.3 1 4.9 2.7 4.9 1.7.1 2.7-1.6 2.7-4.9zm8.3-6.1c2.6 0 4.3 2 4.3 6.2 0 4.1-1.7 6.2-4.3 6.2-2.6 0-4.2-2-4.2-6.2-.1-4.2 1.6-6.2 4.2-6.2zm2.7 6.1c0-3.3-1-5-2.7-5-1.7 0-2.7 1.6-2.7 5 0 3.3 1 4.9 2.7 4.9 1.6.1 2.7-1.6 2.7-4.9zm8.2-6.1c2.6 0 4.3 2 4.3 6.2 0 4.1-1.7 6.2-4.3 6.2-2.6 0-4.2-2-4.2-6.2s1.6-6.2 4.2-6.2zm2.7 6.1c0-3.3-1-5-2.7-5-1.7 0-2.7 1.6-2.7 5 0 3.3 1 4.9 2.7 4.9 1.7.1 2.7-1.6 2.7-4.9zm4.3-2.5h1.4v1.4c.5-.9 1.4-1.6 2.7-1.6 1.8 0 3.4 1.1 3.4 4.3 0 3.1-1.6 4.6-3.5 4.6-1.2 0-2.2-.7-2.5-1.4v4.2h-1.4l-.1-11.5zm3.9 7.5c1.5 0 2.2-1.2 2.2-3.4 0-1.8-.5-3.2-2.3-3.2-1.5 0-2.4 1.3-2.4 2.7v.9c0 1.6.9 3 2.5 3zm7.6-3.5l-2.7-4.1h1.7l1.8 2.9 1.9-2.9h1.6l-2.7 4 2.9 4.4h-1.7l-2.1-3.3-2.1 3.3H274l3-4.3zm15.3-1.9c-.1-.8-.7-1.2-1.7-1.2s-1.6.6-1.6 1.4c0 .7.4 1 1.3 1.2l1.3.2c1.8.3 2.4 1 2.4 2.4 0 1.7-1.4 2.6-3.3 2.6-1.8 0-3.2-.8-3.3-2.6h1.4c.1.7.4 1.5 1.9 1.5 1.1 0 1.9-.5 1.9-1.4 0-.7-.2-1-1.3-1.2l-1.3-.2c-1.5-.2-2.3-.9-2.3-2.3 0-1.5 1.1-2.6 3.1-2.6 1.8 0 2.9.8 3 2.3l-1.5-.1zm10.9 9.3h-1.4v-4.3c-.4.8-1.3 1.5-2.6 1.5-1.8 0-3.4-1.1-3.4-4.4 0-2.9 1.5-4.5 3.6-4.5 1.3 0 2.1.7 2.5 1.5v-1.3h1.4l-.1 11.5zm-1.4-6.7v-.9c0-1.8-.9-2.9-2.3-2.9-1.6 0-2.4 1.3-2.4 3.3 0 1.9.6 3.3 2.2 3.3 1.5 0 2.5-1.2 2.5-2.8zm5.8.4c0 .6 0 1.3.3 1.7.3.4.7.6 1.3.6 1.6 0 2.3-1 2.3-2.9v-4.6h1.4V96h-1.4v-1.4c-.4.9-1.3 1.7-2.7 1.7-1.6 0-2.7-.8-2.7-2.8v-5.9h1.4l.1 5.2zm8.1-2.8c0-1.5 1.2-2.5 3.2-2.5 2.1 0 3.1.9 3.1 3.1V94c0 .7.1.9.8 1v1.2h-.2c-1.3 0-1.8-.5-1.9-1.5-.5 1-1.5 1.6-2.7 1.6-1.7 0-2.7-.9-2.7-2.4 0-.9.4-1.7 1.3-2.1.9-.5 2.2-.6 4.1-.7v-.4c0-1.5-.6-2.1-1.8-2.1-1.3 0-1.7.7-1.8 1.4h-1.4zm4.9 2.3v-.2c-1.8.1-2.9.2-3.4.6-.3.2-.5.6-.5 1 0 .9.6 1.3 1.5 1.3 1.1.1 2.4-.7 2.4-2.7zm4.5-4.6h1.4v1.6c.4-.9 1.4-1.8 2.7-1.8h.1V89h-.3c-1.5 0-2.5.9-2.5 2.5v4.6h-1.4v-8.4zm9.3 8.6c-2.6 0-3.8-1.9-3.8-4.4 0-2.5 1.3-4.5 3.8-4.5s3.5 1.9 3.5 4.1v.7H332c.1 1.7.8 2.9 2.4 2.9 1.4 0 1.8-.8 1.9-1.3h1.4c-.3 1.5-1.5 2.5-3.3 2.5zm2-5.3c0-1.4-.6-2.5-2.1-2.5-1.3 0-2.1 1.1-2.3 2.6l4.4-.1zm10.2-5.8v2.4h2.1v1.1h-2.1v5c0 .9.4 1.3 1.3 1.3.4 0 .9-.1.9-.1v1.2s-.6.1-1.3.1c-1.6 0-2.3-.8-2.3-2.2v-5.2h-1.5v-1.1h.3c1.1 0 1.4-.3 1.4-1.9v-.6h1.2zm3.6 6.7c0-2.6 1.4-4.4 3.8-4.4 2.5 0 3.8 1.8 3.8 4.4 0 2.6-1.4 4.4-3.8 4.4-2.5 0-3.8-1.8-3.8-4.4zm1.5 0c0 2.1.7 3.3 2.3 3.3 1.6 0 2.3-1.3 2.3-3.3 0-2.1-.7-3.3-2.3-3.3-1.6 0-2.3 1.2-2.3 3.3zm8.1-4.2h2v2h-2v-2zm0 8.4v-2h2v2h-2zM19.6 120.2H24v1.3h-4.5c.1 0 .1-1.3.1-1.3zm10.5 5.9v-1.3h.3c2.6 0 3-.7 3-2.5v-8.6H35v8.7c0 2.6-1.4 3.6-4.1 3.6l-.8.1zm9.7-4.7v4.7h-1.5v-12.3H42c2.4 0 4.2 1.1 4.2 3.8 0 2.6-1.8 3.8-4.3 3.8h-2.1zm2.1-1.2c1.8 0 2.8-.9 2.8-2.6 0-1.8-1-2.6-2.8-2.6h-2.1v5.2h2.1zm7.8-.1c0 3.3 1.4 5.1 3.9 5.1 2.3 0 3.7-1.3 3.7-3.7v-.2h-3.5V120h5v6.2h-1.3v-1.8h-.1c-.6 1.1-1.8 2-3.8 2-3.1 0-5.4-2-5.4-6.3 0-4 2.4-6.3 5.6-6.3 2.5 0 4.3 1.3 4.6 3.4h-1.6c-.2-1.4-1.5-2.2-3.1-2.2-2.6-.1-4 1.9-4 5.1zm12.1 4h1.8l-1.3 3.8h-1l.5-3.8zm10.1-2.7v4.7h-1.5v-12.3h3.7c2.4 0 4.2 1.1 4.2 3.8 0 2.6-1.8 3.8-4.3 3.8h-2.1zm2.1-1.2c1.8 0 2.8-.9 2.8-2.6 0-1.8-1-2.6-2.8-2.6h-2v5.2h2zm6.8-6.4h1.9l5.4 9.1c.4.7.6 1.2.6 1.2h.1v-10.3h1.4v12.3h-1.9l-5.4-9.1c-.5-.8-.6-1.2-.6-1.2v10.3h-1.4s0-12.3-.1-12.3zm13.9 6.3c0 3.3 1.4 5.1 3.9 5.1 2.3 0 3.7-1.3 3.7-3.7v-.2h-3.5V120h5v6.2h-1.3v-1.8h-.1c-.6 1.1-1.8 2-3.8 2-3.1 0-5.4-2-5.4-6.3 0-4 2.4-6.3 5.6-6.3 2.5 0 4.3 1.3 4.6 3.4h-1.6c-.2-1.4-1.5-2.2-3.1-2.2-2.6-.1-4 1.9-4 5.1zm12-2.4h2v2h-2v-2zm0 8.4v-2h2v2h-2zm13.3-6.3c-.1-.8-.7-1.2-1.7-1.2s-1.7.6-1.7 1.4c0 .7.4 1 1.3 1.2l1.3.2c1.8.3 2.4 1 2.4 2.4 0 1.7-1.4 2.6-3.3 2.6-1.8 0-3.2-.8-3.3-2.6h1.4c.1.7.4 1.5 1.9 1.5 1.2 0 1.9-.5 1.9-1.4 0-.7-.2-1-1.3-1.2l-1.3-.2c-1.5-.2-2.3-.9-2.3-2.3 0-1.5 1.1-2.6 3.1-2.6 1.8 0 2.9.8 3 2.3l-1.4-.1zm7.2 6.5c-2.6 0-3.8-1.9-3.8-4.4 0-2.5 1.3-4.5 3.8-4.5s3.5 1.9 3.5 4.1v.7h-5.8c.1 1.7.8 2.9 2.4 2.9 1.4 0 1.8-.8 1.9-1.3h1.4c-.4 1.5-1.6 2.5-3.4 2.5zm1.9-5.3c0-1.4-.6-2.5-2.1-2.5-1.3 0-2.1 1.1-2.3 2.6l4.4-.1zm5.7-5.8v2.4h2.1v1.1h-2.1v5c0 .9.4 1.3 1.3 1.3.4 0 .9-.1.9-.1v1.2s-.6.1-1.3.1c-1.6 0-2.3-.8-2.3-2.2v-5.2h-1.5v-1.1h.3c1.1 0 1.4-.3 1.4-1.9v-.6h1.2zm10.5 0v2.4h2.1v1.1h-2.1v5c0 .9.4 1.3 1.3 1.3.4 0 .9-.1.9-.1v1.2s-.6.1-1.3.1c-1.6 0-2.3-.8-2.3-2.2v-5.2h-1.5v-1.1h.3c1.1 0 1.4-.3 1.4-1.9v-.6h1.2zm3.6 6.7c0-2.6 1.4-4.4 3.8-4.4 2.5 0 3.8 1.8 3.8 4.4 0 2.6-1.4 4.4-3.8 4.4-2.5 0-3.8-1.8-3.8-4.4zm1.5 0c0 2.1.7 3.3 2.3 3.3 1.6 0 2.3-1.3 2.3-3.3 0-2.1-.7-3.3-2.3-3.3-1.6 0-2.3 1.2-2.3 3.3zm13-4.2h1.4v1.4c.4-.9 1.4-1.6 2.7-1.6 1.3 0 2.2.6 2.5 1.8.3-.9 1.4-1.8 2.8-1.8 1.6 0 2.7.8 2.7 2.8v5.9h-1.4V121c0-.6 0-1.3-.3-1.7-.3-.4-.8-.5-1.3-.5-1.6 0-2.3 1-2.3 2.4v5.1h-1.4v-5.2c0-.6 0-1.3-.3-1.7-.3-.4-.8-.6-1.3-.6-1.6 0-2.3 1-2.3 2.3v5.1h-1.4l-.1-8.5zm14.9 2.3c0-1.5 1.2-2.5 3.2-2.5 2.1 0 3.1.9 3.1 3.1v3.4c0 .7.1.9.8 1v1.2h-.2c-1.3 0-1.8-.5-1.9-1.5-.4 1-1.5 1.6-2.7 1.6-1.7 0-2.7-.9-2.7-2.4 0-.9.4-1.7 1.3-2.1.9-.5 2.2-.6 4.1-.7v-.4c0-1.5-.6-2.1-1.8-2.1-1.3 0-1.7.7-1.8 1.4h-1.4zm4.9 2.3v-.2c-1.8.1-2.9.2-3.4.6-.3.2-.5.6-.5 1 0 .9.6 1.3 1.5 1.3 1 .1 2.4-.7 2.4-2.7zm6.1-.6l-2.7-4.1h1.7l1.8 2.9 1.9-2.9h1.6l-2.7 4 2.9 4.4h-1.7l-2.1-3.3-2.1 3.3h-1.6l3-4.3zm6.5-7.5h1.5v1.6h-1.5v-1.6zm.1 3.5h1.5v8.4h-1.5v-8.4zm4.6 0h1.4v1.4c.4-.9 1.4-1.6 2.7-1.6 1.3 0 2.2.6 2.5 1.8.3-.9 1.4-1.8 2.8-1.8 1.6 0 2.7.8 2.7 2.8v5.9h-1.4V121c0-.6 0-1.3-.3-1.7-.3-.4-.8-.5-1.3-.5-1.6 0-2.3 1-2.3 2.4v5.1h-1.4v-5.2c0-.6 0-1.3-.3-1.7-.3-.4-.8-.6-1.3-.6-1.6 0-2.3 1-2.3 2.3v5.1h-1.4l-.1-8.5zm16.6 5.1c0 .6 0 1.3.3 1.7.3.4.7.6 1.3.6 1.6 0 2.3-1 2.3-2.9v-4.6h1.4v8.4H221v-1.4c-.4.9-1.3 1.7-2.7 1.7-1.6 0-2.7-.8-2.7-2.8v-5.9h1.4l.1 5.2zm8.5-5.1h1.4v1.4c.4-.9 1.4-1.6 2.7-1.6 1.3 0 2.2.6 2.5 1.8.3-.9 1.4-1.8 2.8-1.8 1.6 0 2.7.8 2.7 2.8v5.9h-1.4V121c0-.6 0-1.3-.3-1.7-.3-.4-.8-.5-1.3-.5-1.6 0-2.3 1-2.3 2.4v5.1H231v-5.2c0-.6 0-1.3-.3-1.7-.3-.4-.8-.6-1.3-.6-1.6 0-2.3 1-2.3 2.3v5.1h-1.4l-.1-8.5zm26.4 11.4h-1.4v-4.3h-.1c-.4.8-1.3 1.5-2.6 1.5-1.8 0-3.4-1.1-3.4-4.4 0-2.9 1.5-4.5 3.6-4.5 1.3 0 2.1.7 2.4 1.5v-1.3h1.4v11.5zm-1.4-6.7v-.9c0-1.8-.9-2.9-2.3-2.9-1.6 0-2.4 1.3-2.4 3.3 0 1.9.6 3.3 2.2 3.3s2.5-1.2 2.5-2.8zm5.9.4c0 .6 0 1.3.3 1.7.3.4.7.6 1.3.6 1.6 0 2.3-1 2.3-2.9v-4.6h1.4v8.4h-1.4v-1.4c-.4.9-1.3 1.7-2.7 1.7-1.6 0-2.7-.8-2.7-2.8v-5.9h1.4l.1 5.2zm8.1-2.8c0-1.5 1.2-2.5 3.2-2.5 2.1 0 3.1.9 3.1 3.1v3.4c0 .7.1.9.8 1v1.2h-.2c-1.3 0-1.8-.5-1.9-1.5-.5 1-1.5 1.6-2.7 1.6-1.7 0-2.7-.9-2.7-2.4 0-.9.4-1.7 1.3-2.1.9-.5 2.2-.6 4.1-.7v-.4c0-1.5-.6-2.1-1.8-2.1-1.3 0-1.7.7-1.8 1.4h-1.4zm4.9 2.3v-.2c-1.8.1-2.9.2-3.4.6-.3.2-.5.6-.5 1 0 .9.6 1.3 1.5 1.3 1.1.1 2.4-.7 2.4-2.7zm4.4-8.8h1.4v12.6h-1.4v-12.6zm4.6.7h1.5v1.6h-1.5v-1.6zm0 3.5h1.5v8.4h-1.5v-8.4zm6.4-2.5v2.4h2.1v1.1h-2.1v5c0 .9.4 1.3 1.3 1.3.4 0 .9-.1.9-.1v1.2s-.6.1-1.3.1c-1.6 0-2.3-.8-2.3-2.2v-5.2H282v-1.1h.3c1.1 0 1.4-.3 1.4-1.9v-.6h1.2zm3.6 2.5h1.4l1.8 5.3c.3.8.4 1.3.4 1.3s.1-.5.4-1.3l1.7-5.3h1.4l-3.1 9c-.7 1.9-1.2 2.7-3.1 2.7-.3 0-.6-.1-.9-.1V128c.3.1.6.1.7.1 1.1 0 1.4-.4 1.8-1.5l.2-.4-2.7-8.5zm7.7 6.4h2v1.9h-2v-1.9zM19.6 150.2H24v1.3h-4.5c.1 0 .1-1.3.1-1.3zm13.3 1.2v4.7h-1.5v-12.3h3.7c2.4 0 4.2 1.1 4.2 3.8 0 2.6-1.8 3.8-4.3 3.8h-2.1zm2.1-1.2c1.8 0 2.8-.9 2.8-2.6 0-1.8-1-2.6-2.8-2.6h-2.1v5.2H35zm6.8-6.3h3.8c3.3 0 5.9 1.6 5.9 6 0 4.3-2.4 6.3-5.8 6.3h-3.9v-12.3zm3.7 10.9c2.6 0 4.4-1.3 4.4-4.9 0-3.4-1.8-4.7-4.3-4.7h-2.4v9.7l2.3-.1zm10.3 1.3h-1.5v-12.3h7.3v1.3h-5.8v4.4h5.3v1.3h-5.3v5.3zm-36.2 24.1H24v1.3h-4.5c.1 0 .1-1.3.1-1.3zm11.8-6.3h7.8v1.3h-6.3v4.1h5.8v1.3h-5.8v4.2h6.4v1.3h-7.9v-12.2zm12.5 7.5v4.7h-1.5v-12.3h3.7c2.4 0 4.2 1.1 4.2 3.8 0 2.6-1.8 3.8-4.3 3.8h-2.1zm2-1.2c1.8 0 2.8-.9 2.8-2.6 0-1.8-1-2.6-2.8-2.6h-2.1v5.2h2.1zm13.4-3.1c-.1-1.2-.8-2.3-2.5-2.3s-2.6.9-2.6 2.1c0 1.1.6 1.8 2 2l1.7.3c2.4.4 3.2 1.6 3.2 3.4 0 2.2-1.5 3.7-4.5 3.7-2.8 0-4.5-1.5-4.6-3.7h1.5c.2 1.3 1.1 2.5 3.1 2.5 2.2 0 2.9-1.1 2.9-2.4 0-1.1-.6-1.8-2.1-2.1l-1.7-.3c-2.4-.4-3.3-1.7-3.3-3.3 0-2 1.6-3.4 4.2-3.4s3.9 1.4 4 3.5h-1.3zm4.3.6h2v2h-2v-2zm0 8.4v-2h2v2h-2zm12.2.2c-2.6 0-3.8-1.9-3.8-4.4 0-2.5 1.3-4.5 3.8-4.5s3.5 1.9 3.5 4.1v.7h-5.8c.1 1.7.8 2.9 2.4 2.9 1.4 0 1.8-.8 1.9-1.3h1.4c-.4 1.5-1.6 2.5-3.4 2.5zm2-5.3c0-1.4-.6-2.5-2.1-2.5-1.3 0-2.1 1.1-2.3 2.6l4.4-.1zm5.5.7l-2.7-4.1h1.7l1.8 2.9 1.9-2.9h1.6l-2.7 4 2.9 4.4h-1.7l-2.1-3.3-2.1 3.3h-1.6l3-4.3zm6.5-4h1.4v1.4c.5-.9 1.4-1.6 2.7-1.6 1.8 0 3.4 1.1 3.4 4.3 0 3.1-1.6 4.6-3.5 4.6-1.2 0-2.2-.7-2.5-1.4v4.2h-1.4v-11.5zm3.8 7.5c1.5 0 2.2-1.2 2.2-3.4 0-1.8-.5-3.1-2.3-3.1-1.5 0-2.4 1.3-2.4 2.7v.9c.1 1.6.9 2.9 2.5 2.9zm5.5-3.3c0-2.6 1.4-4.4 3.8-4.4 2.5 0 3.8 1.8 3.8 4.4 0 2.6-1.4 4.4-3.8 4.4-2.5 0-3.8-1.8-3.8-4.4zm1.5 0c0 2.1.7 3.3 2.3 3.3 1.6 0 2.3-1.3 2.3-3.3 0-2.1-.7-3.3-2.3-3.3-1.5 0-2.3 1.2-2.3 3.3zm8.5-4.2h1.4v1.6c.4-.9 1.4-1.8 2.7-1.8h.1v1.5h-.3c-1.5 0-2.5.9-2.5 2.5v4.6h-1.4v-8.4zm8.4-2.5v2.4h2.1v1.1h-2.1v5c0 .9.4 1.3 1.3 1.3.4 0 .9-.1.9-.1v1.2s-.6.1-1.3.1c-1.7 0-2.3-.8-2.3-2.2v-5.2h-1.5v-1.1h.3c1.1 0 1.4-.3 1.4-1.9v-.6h1.2zm13.1 5.7h-2.7v5.2h-1.5v-12.3h4.4c.9 0 1.7.2 2.4.5 1 .5 1.6 1.5 1.6 2.9 0 2.3-1.5 3.1-2.6 3.4l2.7 5.4h-1.7l-2.6-5.1zm.1-1.2c1.4 0 2.5-.7 2.5-2.4 0-1.5-1-2.2-2.4-2.2h-2.9v4.6h2.8zm7.8.4c0 3.3 1.4 5.1 3.9 5.1 2.3 0 3.7-1.3 3.7-3.7v-.2h-3.5V180h5v6.2h-1.3v-1.8h-.1c-.6 1.1-1.8 2-3.8 2-3.1 0-5.4-2-5.4-6.3 0-4 2.4-6.4 5.6-6.4 2.5 0 4.3 1.3 4.6 3.4h-1.6c-.2-1.4-1.5-2.2-3.1-2.2-2.6 0-4 2-4 5.2zm12.5 6v-12.3h4.8c2.1 0 3.8 1 3.8 3 0 1.5-.8 2.4-2.2 2.7 1.5.3 2.6 1.5 2.6 2.9 0 2.8-2.1 3.6-4.5 3.6H151zm4.5-7.1c1.3 0 2.5-.5 2.5-2 0-1.3-.9-1.9-2.3-1.9h-3.3v3.9h3.1zm-.1 5.9c1.8 0 3-.6 3-2.4 0-1.6-1.1-2.2-3.1-2.2h-2.9v4.7h3zm13.8 3.3c-.9-1.8-2.1-4.1-2.1-7.4 0-3.3 1.2-5.5 2.1-7.4h1.1c-.9 1.9-1.8 4.1-1.8 7.4 0 3.3.8 5.4 1.8 7.4h-1.1zm10-2.1h-1.4v-1.4h-.1c-.4.8-1.4 1.6-2.7 1.6-1.8 0-3.4-1.1-3.4-4.4 0-2.9 1.5-4.5 3.6-4.5 1.3 0 2.1.7 2.4 1.5v-5.5h1.4l.2 12.7zm-1.4-4.5c0-1.8-.9-2.9-2.3-2.9-1.6 0-2.4 1.3-2.4 3.3 0 1.9.6 3.3 2.2 3.3 1.5 0 2.4-1.2 2.4-2.7v-1zm4.5-7.4h1.5v1.6h-1.5v-1.6zm.1 3.5h1.5v8.4h-1.5v-8.4zm4 9.2h1.4c.2.7.7 1.2 2.1 1.2 1.6 0 2.4-.6 2.4-2.4v-1.3c-.4.8-1.4 1.6-2.7 1.6-1.8 0-3.4-1.1-3.4-4.2 0-2.8 1.5-4.3 3.6-4.3 1.4 0 2.2.8 2.5 1.5v-1.3h1.4v8.2c0 2.4-1.6 3.4-3.8 3.4-1.6 0-3.3-.6-3.5-2.4zm6-5.5c0-1.7-.9-2.8-2.4-2.8s-2.2 1.3-2.2 3.2c0 1.9.5 3.1 2.3 3.1 1.4 0 2.3-1.2 2.3-2.6v-.9zm4.5-7.2h1.5v1.6h-1.5v-1.6zm0 3.5h1.5v8.4h-1.5v-8.4zm6.4-2.5v2.4h2.1v1.1h-2.1v5c0 .9.4 1.3 1.3 1.3.4 0 .9-.1.9-.1v1.2s-.6.1-1.3.1c-1.6 0-2.3-.8-2.3-2.2v-5.2h-1.5v-1.1h.3c1.1 0 1.4-.3 1.4-1.9v-.6h1.2zm4.5 4.8c0-1.5 1.2-2.5 3.2-2.5 2.1 0 3.1.9 3.1 3.1v3.4c0 .7.1.9.8 1v1.2h-.2c-1.3 0-1.8-.5-1.9-1.5-.4 1-1.5 1.6-2.7 1.6-1.7 0-2.7-.9-2.7-2.4 0-.9.4-1.7 1.3-2.1.9-.5 2.2-.6 4.1-.7v-.4c0-1.5-.6-2.1-1.8-2.1-1.3 0-1.7.7-1.8 1.4h-1.4zm4.9 2.3v-.2c-1.8.1-2.9.2-3.4.6-.3.2-.5.6-.5 1 0 .9.6 1.3 1.5 1.3 1.1.1 2.4-.6 2.4-2.7zm4.4-8.8h1.4v12.6h-1.4v-12.6zm5.4 7.3c0-3.3-.8-5.4-1.8-7.4h1.1c.9 1.8 2.1 4.1 2.1 7.4 0 3.2-1.2 5.5-2.1 7.4h-1.1c1-2 1.8-4.1 1.8-7.4zm8.9-.8c0-1.5 1.2-2.5 3.2-2.5 2.1 0 3.1.9 3.1 3.1v3.4c0 .7.1.9.8 1v1.2h-.2c-1.3 0-1.8-.5-1.9-1.5-.4 1-1.5 1.6-2.7 1.6-1.7 0-2.7-.9-2.7-2.4 0-.9.4-1.7 1.3-2.1.9-.5 2.2-.6 4.1-.7v-.4c0-1.5-.6-2.1-1.8-2.1-1.3 0-1.7.7-1.8 1.4h-1.4zm4.9 2.3v-.2c-1.8.1-2.9.2-3.4.6-.3.2-.5.6-.5 1 0 .9.6 1.3 1.5 1.3 1.1.1 2.4-.6 2.4-2.7zm9.8-1.4c0-.6 0-1.3-.3-1.7-.3-.4-.8-.6-1.3-.6-1.6 0-2.3 1-2.3 2.4v5.1h-1.4v-8.4h1.4v1.4c.4-.9 1.4-1.6 2.7-1.6 1.6 0 2.7.8 2.7 2.8v5.9h-1.4v-5.3zm11.3 5.2H256v-1.4h-.1c-.4.8-1.4 1.6-2.7 1.6-1.8 0-3.4-1.1-3.4-4.4 0-2.9 1.5-4.5 3.6-4.5 1.3 0 2.1.7 2.4 1.5v-5.5h1.4l.2 12.7zm-1.4-4.5c0-1.8-.9-2.9-2.3-2.9-1.6 0-2.4 1.3-2.4 3.3 0 1.9.6 3.3 2.2 3.3 1.5 0 2.4-1.2 2.4-2.7v-1zm10.2-1.6c0 3.2 1.4 5.1 3.9 5.1 2.2 0 3.1-1.5 3.2-2.9h1.5c-.2 2.3-2 4.1-4.7 4.1-3.2 0-5.4-2.1-5.4-6.3 0-4 2.3-6.3 5.5-6.3 2.1 0 4.4 1.1 4.7 3.8h-1.6c-.2-1.3-1.2-2.6-3.1-2.6-2.6 0-4 2-4 5.1zm11.5-6.1h2.3l3.1 8.8c.4 1.1.5 1.6.5 1.6s.2-.5.5-1.6l3.1-8.8h2.2v12.3H288v-10.5s-.2.6-.7 1.9l-3.1 8.6h-1.4l-3-8.6c-.4-1.3-.7-1.9-.7-1.9v10.5h-1.4v-12.3zm18.2 7l-4.3-7h1.7l3.3 5.6 3.4-5.6h1.6l-4.3 6.9v5.3h-1.5l.1-5.2zm9.2 5.2h-1.5v-12.3h1.5v6.3l5.7-6.3h1.8L308 179l5 7.1h-1.8l-4.3-6-1.8 2v4zm16.6 2.1c-.9-1.8-2.1-4.1-2.1-7.4 0-3.3 1.2-5.5 2.1-7.4h1.1c-.9 1.9-1.8 4.1-1.8 7.4 0 3.3.8 5.4 1.8 7.4h-1.1zm3.4-10.5h1.4v1.4c.5-.9 1.4-1.6 2.7-1.6 1.8 0 3.4 1.1 3.4 4.3 0 3.1-1.6 4.6-3.5 4.6-1.2 0-2.2-.7-2.5-1.4v4.2h-1.4l-.1-11.5zm3.8 7.5c1.5 0 2.2-1.2 2.2-3.4 0-1.8-.5-3.1-2.3-3.1-1.5 0-2.4 1.3-2.4 2.7v.9c.1 1.6.9 2.9 2.5 2.9zm6.1-7.5h1.4v1.6c.4-.9 1.4-1.8 2.7-1.8h.1v1.5h-.3c-1.5 0-2.5.9-2.5 2.5v4.6H335v-8.4zm6.4-3.5h1.5v1.6h-1.5v-1.6zm0 3.5h1.5v8.4h-1.5v-8.4zm10 3.2c0-.6 0-1.3-.3-1.7-.3-.4-.8-.6-1.3-.6-1.6 0-2.3 1-2.3 2.4v5.1h-1.4v-8.4h1.4v1.4c.4-.9 1.4-1.6 2.7-1.6 1.6 0 2.7.8 2.7 2.8v5.9h-1.4v-5.3zm6.3-5.7v2.4h2.1v1.1h-2.1v5c0 .9.4 1.3 1.3 1.3.4 0 .9-.1.9-.1v1.2s-.6.1-1.3.1c-1.6 0-2.3-.8-2.3-2.2v-5.2h-1.5v-1.1h.3c1.1 0 1.4-.3 1.4-1.9v-.6h1.2zm5.3 5.6c0-3.3-.8-5.4-1.8-7.4h1.1c.9 1.8 2.1 4.1 2.1 7.4 0 3.2-1.2 5.5-2.1 7.4h-1.1c1-2 1.8-4.1 1.8-7.4zm8.1-3.1h1.5l1.8 5.4c.2.7.4 1.3.4 1.3s.2-.6.4-1.3l1.9-5.4h1.4l-2.9 8.4H374l-2.9-8.4zm12.4 8.6c-2.6 0-3.8-1.9-3.8-4.4 0-2.5 1.3-4.5 3.8-4.5s3.5 1.9 3.5 4.1v.7h-5.8c.1 1.7.8 2.9 2.4 2.9 1.4 0 1.8-.8 1.9-1.3h1.4c-.3 1.5-1.6 2.5-3.4 2.5zm2-5.3c0-1.4-.6-2.5-2.1-2.5-1.3 0-2.1 1.1-2.3 2.6l4.4-.1zm3.8-3.3h1.4v1.6c.4-.9 1.4-1.8 2.7-1.8h.1v1.5h-.3c-1.5 0-2.5.9-2.5 2.5v4.6h-1.4v-8.4zm10.4 2.1c-.1-.8-.7-1.2-1.7-1.2s-1.6.6-1.6 1.4c0 .7.4 1 1.3 1.1l1.3.2c1.8.3 2.4 1 2.4 2.4 0 1.7-1.4 2.6-3.3 2.6-1.8 0-3.2-.8-3.3-2.6h1.4c.1.7.4 1.5 1.9 1.5 1.1 0 1.9-.5 1.9-1.4 0-.7-.2-1-1.3-1.2l-1.3-.2c-1.5-.2-2.3-.9-2.3-2.3 0-1.5 1.1-2.6 3.1-2.6 1.8 0 2.9.9 3 2.3h-1.5zm4.1-5.6h1.5v1.6h-1.5v-1.6zm.1 3.5h1.5v8.4h-1.5v-8.4zm3.8 4.2c0-2.6 1.4-4.4 3.8-4.4 2.5 0 3.8 1.8 3.8 4.4 0 2.6-1.4 4.4-3.8 4.4-2.5 0-3.8-1.8-3.8-4.4zm1.5 0c0 2.1.7 3.3 2.3 3.3 1.6 0 2.3-1.3 2.3-3.3 0-2.1-.7-3.3-2.3-3.3-1.5 0-2.3 1.2-2.3 3.3zm13.9-1c0-.6 0-1.3-.3-1.7-.3-.4-.8-.6-1.3-.6-1.6 0-2.3 1-2.3 2.4v5.1h-1.4v-8.4h1.4v1.4c.4-.9 1.4-1.6 2.7-1.6 1.6 0 2.7.8 2.7 2.8v5.9h-1.4v-5.3zm8.7-1.1c-.1-.8-.7-1.2-1.7-1.2s-1.6.6-1.6 1.4c0 .7.4 1 1.3 1.1l1.3.2c1.8.3 2.4 1 2.4 2.4 0 1.7-1.4 2.6-3.3 2.6-1.8 0-3.2-.8-3.3-2.6h1.4c.1.7.4 1.5 1.9 1.5 1.1 0 1.9-.5 1.9-1.4 0-.7-.2-1-1.3-1.2l-1.3-.2c-1.5-.2-2.3-.9-2.3-2.3 0-1.5 1.1-2.6 3.1-2.6 1.8 0 2.9.9 3 2.3h-1.5zm3.5 4.3h2v1.9h-2v-1.9z"/></g></g></svg>