<svg xmlns="http://www.w3.org/2000/svg" width="286.299" height="136.063"><path d="M247.73 44.243v14.573h20.548a21.174 21.174 0 01-7.553 12.608 23.9 23.9 0 01-15.759 5.906c-6.873 0-13.361-2.69-19.279-8a28.283 28.283 0 01-9.51-21.873c0-8.56 2.872-15.772 8.546-21.447a28.6 28.6 0 0121.159-8.692c9.3 0 17.325 4.4 23.844 13.08l.937 1.249 11.03-10.564-.874-1c-5.307-6.065-10.8-10.516-16.35-13.24a45.2 45.2 0 00-50.6 8.966 43.232 43.232 0 00-13.073 31.7 45.955 45.955 0 001.404 11.279l-27-57.255L138.456 76.7l-16.248-22.362a23.772 23.772 0 0012.127-8.114 25.1 25.1 0 005.365-16.059c0-7.934-2.883-14.416-8.574-19.272-5.121-4.33-13.435-6.526-24.713-6.526h-16.1V41.3a42.768 42.768 0 00-12.667-25.23A42.969 42.969 0 0054.8 3.777l-1.4-.26V18l.881.234a27.973 27.973 0 0112.9 7.642 29.43 29.43 0 018.547 21.455 29.581 29.581 0 01-8.655 21.449 28.932 28.932 0 01-21.25 8.694 28.748 28.748 0 01-20.466-8.553c-5.907-5.661-8.9-13-8.9-21.809a28.963 28.963 0 018.6-21.24 28.415 28.415 0 0112.854-7.613l.877-.238V3.551l-1.409.267a43.626 43.626 0 00-22.727 12.134A42.079 42.079 0 001.417 46.977c0 13.625 4.887 24.8 14.526 33.228 8.732 7.595 18.73 11.446 29.717 11.446a44.261 44.261 0 0031.923-12.893A41.97 41.97 0 0090.319 53.64v36.7h15.327V56.283h.155l23.763 34.058h18.86l9.268-20.208h33.82l8.73 20.208h16.837l-7.927-16.81a47.675 47.675 0 004.491 5.351A42.043 42.043 0 00244.537 91.9c12.284 0 22.549-4.544 30.513-13.511a36.831 36.831 0 007.563-13.012 58.519 58.519 0 002.269-17v-4.134zm-62.588 11.316h-20.908l10.7-22.244zM124.7 30.325c0 8.242-5.382 12.249-16.452 12.249h-2.6V18.94h3.087c10.743 0 15.965 3.724 15.965 11.385zm31.534 75.859h2.387v28.346h-2.387z" fill="#cd132c"/><path d="M14.861 109.051v21.679h-1.429v-21.679zm5.591 8.418h1.3v1.658a3.774 3.774 0 013.445-1.95 3.661 3.661 0 013.705 2.4 4.111 4.111 0 013.933-2.4 4.056 4.056 0 012.99 1.1 4.842 4.842 0 011.137 3.608v8.841h-1.3v-8.841a3.845 3.845 0 00-.78-2.73 2.641 2.641 0 00-1.983-.748c-3.509 0-3.542 3.511-3.542 4.323v8h-1.3v-8.516c0-.845-.065-3.8-2.925-3.8-2.308 0-3.38 2.016-3.38 4.649v7.67h-1.3zm21.515 0h1.3v1.658a3.773 3.773 0 013.445-1.95 3.662 3.662 0 013.7 2.4 4.111 4.111 0 013.933-2.4 4.056 4.056 0 012.99 1.1 4.842 4.842 0 011.137 3.608v8.841h-1.3v-8.841a3.85 3.85 0 00-.78-2.73 2.643 2.643 0 00-1.983-.748c-3.51 0-3.542 3.511-3.542 4.323v8h-1.3v-8.516c0-.845-.064-3.8-2.924-3.8-2.308 0-3.38 2.016-3.38 4.649v7.67h-1.3zm34.58 6.663a6.956 6.956 0 11-6.956-6.955 6.842 6.842 0 016.956 6.955zm-1.365 0a5.592 5.592 0 10-5.591 5.72 5.56 5.56 0 005.591-5.72zm6.824-17.096v12.74a6.233 6.233 0 015.2-2.6c4 0 6.436 2.99 6.436 6.825 0 3.9-2.47 7.085-6.5 7.085a5.771 5.771 0 01-5.136-2.73v2.373h-1.3v-23.693zM92.276 124c0-3.641-2.405-5.591-5.134-5.591a5.156 5.156 0 00-5.2 5.526c0 3.315 1.82 5.915 5.167 5.915s5.167-2.598 5.167-5.85zm5.004-10.951a1.17 1.17 0 111.17 1.2 1.153 1.153 0 01-1.17-1.2zm1.821 4.42v13.261H97.8v-13.261zm6.304-10.433v23.694h-1.3v-23.694zm4.485 6.013a1.17 1.17 0 111.17 1.2 1.153 1.153 0 01-1.17-1.2zm1.82 4.42v13.261h-1.3v-13.261zm5.525 6.793a5.324 5.324 0 005.265 5.59 5.059 5.059 0 004.615-3.023l1.106.651a6.409 6.409 0 01-5.819 3.607c-4.127 0-6.532-3.055-6.532-6.923 0-4.615 3.185-6.987 6.435-6.987 3.575 0 6.273 2.859 6.273 7.085zm9.978-1.236a4.981 4.981 0 00-4.908-4.615 5.068 5.068 0 00-4.973 4.615zm5.524-5.557h1.3v2.08a4.427 4.427 0 014.063-2.372 4.114 4.114 0 013.672 1.852 6.391 6.391 0 01.651 3.348v8.353h-1.3v-8.353a4.92 4.92 0 00-.519-2.665 2.818 2.818 0 00-2.6-1.3 3.489 3.489 0 00-3.25 1.853 7.2 7.2 0 00-.715 3.575v6.891h-1.3zm49.491-4.743a4.634 4.634 0 00-4.258-2.665 3.853 3.853 0 00-4.03 4.03c0 2.34 1.625 3.12 3.8 4.192a30.473 30.473 0 014.323 2.276 4.765 4.765 0 012.307 4.192 6.487 6.487 0 01-6.76 6.338 6.188 6.188 0 01-5.037-2.275 7.117 7.117 0 01-1.4-2.372l1.235-.585a7.535 7.535 0 001.17 2.08 5.214 5.214 0 004.063 1.852 5.04 5.04 0 005.233-5 3.814 3.814 0 00-2.113-3.413c-.617-.357-1.885-1.008-3.672-1.885-2.145-1.04-3.218-1.625-3.966-2.86a4.663 4.663 0 01-.682-2.47 5.266 5.266 0 015.558-5.4 5.811 5.811 0 015.265 3.088zm7.085 11.538a5.324 5.324 0 005.264 5.59 5.061 5.061 0 004.616-3.023l1.1.651a6.407 6.407 0 01-5.818 3.607c-4.127 0-6.532-3.055-6.532-6.923 0-4.615 3.184-6.987 6.434-6.987 3.575 0 6.274 2.859 6.274 7.085zm9.977-1.236a4.981 4.981 0 00-4.908-4.615 5.068 5.068 0 00-4.972 4.615zm5.004-9.977a1.17 1.17 0 111.17 1.2 1.153 1.153 0 01-1.17-1.2zm1.821 4.42v13.261h-1.3v-13.261zm6.402 1.235v12.026h-1.3v-12.026h-1.462v-1.235h1.462v-4.745h1.3v4.745h2.308v1.235zm16.054-8.352h-3.38l.65-1.3H230v21.679h-1.43zm18.46 14.625a6.275 6.275 0 01-12.545 0 5.694 5.694 0 013.542-5.493 5.5 5.5 0 01-3.023-5.005 5.753 5.753 0 0111.506 0 5.5 5.5 0 01-3.023 5.005 5.7 5.7 0 013.543 5.493zm-1.5 0a4.778 4.778 0 10-4.778 4.81 4.634 4.634 0 004.783-4.81zm-.52-10.5a4.26 4.26 0 10-4.258 4.387 4.251 4.251 0 004.263-4.385zm17.689-4.125h-13.167v-1.3h15.7l-15.5 22.036-1.073-.813zm8.738 0h-3.38l.649-1.3h4.161v21.679h-1.43z" fill="#575756"/><path fill="none" d="M0 0h286.299v136.063H0z"/></svg>