<svg xmlns="http://www.w3.org/2000/svg" xmlns:xlink="http://www.w3.org/1999/xlink" viewBox="0 0 520 187"><style>.st2{fill:#676463}.st3{fill:#6599d2}.st4{fill:#649cd4}.st5{display:none}.st6{display:inline}.st13{fill:#a29f9d}</style><g id="Your_design"><circle cx="127" cy="73" r="101" fill="#fff"/><path fill="#6097d0" d="M263.48 191.91l-.47.95.45-.95z"/><path class="st2" d="M208.99 56.91V78c0 .47.18.83.53 1.06.35.24 1.06.35 2.1.35l.51 2.12c-3.15-.08-5.3-.12-6.45-.12-1.15 0-2.74.04-4.76.12l-.47-2.12c1.26-.03 2.09-.16 2.5-.39.41-.24.61-.58.61-1.02V56.91c0-.47-.18-.83-.53-1.06-.35-.24-1.06-.35-2.1-.35l-.51-2.12c3.15.08 5.3.12 6.47.12s2.75-.04 4.74-.12l.47 2.12c-1.26.03-2.09.16-2.5.39-.4.24-.61.58-.61 1.02zm34.7-3.58l3.89.16c.97 0 2.45-.04 4.45-.12l.47 2.12c-1.26.03-2.09.16-2.5.39-.41.24-.61.58-.61 1.02V78c0 .47.18.83.53 1.06.35.24 1.06.35 2.1.35l.51 2.12c-3.15-.08-5.3-.12-6.45-.12-1.15 0-2.74.04-4.76.12l-.47-2.12c1.26-.03 2.09-.16 2.5-.39.41-.24.61-.58.61-1.02V61.63c-.76 1.6-2.23 4.68-4.41 9.23-2.18 4.55-3.83 8.02-4.96 10.41l-1.02.47-10.39-20.93V78c0 .47.18.83.53 1.06.35.24 1.06.35 2.1.35l.51 2.12c-3.15-.08-5.09-.12-5.82-.12-.73 0-2.11.04-4.13.12l-.47-2.12c2.25-.05 3.38-.52 3.38-1.42V56.91c0-.94-.97-1.42-2.91-1.42l-.51-2.12c3.15.08 5.27.12 6.37.12s1.99-.04 2.68-.12c.5 1.47 1.41 3.5 2.73 6.08s2.17 4.31 2.54 5.17c.6 1.6 2.18 4.67 4.72 9.21 1.05-2.36 1.97-4.48 2.77-6.35.8-1.87 1.5-3.46 2.08-4.74.59-1.28 1.15-2.53 1.67-3.74 1.52-3.28 2.27-5.17 2.27-5.67zm40.4 0l3.9.16c.97 0 2.45-.04 4.45-.12l.47 2.12c-1.26.03-2.09.16-2.5.39s-.61.58-.61 1.02V78c0 .47.18.83.53 1.06.35.24 1.05.35 2.11.35l.51 2.12c-3.15-.08-5.3-.12-6.45-.12s-2.74.04-4.76.12l-.47-2.12c1.26-.03 2.09-.16 2.5-.39.41-.24.61-.58.61-1.02V61.63c-.76 1.6-2.23 4.68-4.4 9.23-2.18 4.55-3.83 8.02-4.96 10.41l-1.02.47-10.4-20.93V78c0 .47.18.83.53 1.06.36.24 1.06.35 2.11.35l.51 2.12c-3.15-.08-5.09-.12-5.82-.12-.73 0-2.11.04-4.13.12l-.47-2.12c2.25-.05 3.38-.52 3.38-1.42V56.91c0-.94-.97-1.42-2.91-1.42l-.51-2.12c3.15.08 5.27.12 6.37.12s1.99-.04 2.68-.12c.5 1.47 1.41 3.5 2.73 6.08s2.17 4.31 2.54 5.17c.6 1.6 2.18 4.67 4.72 9.21 1.05-2.36 1.97-4.48 2.77-6.35.8-1.87 1.49-3.46 2.08-4.74.59-1.28 1.15-2.53 1.67-3.74 1.5-3.28 2.24-5.17 2.24-5.67zm27.82 28.57c-4.33 0-7.88-1.29-10.66-3.88-2.78-2.58-4.17-5.94-4.17-10.07s1.48-7.65 4.45-10.56 6.6-4.37 10.92-4.37 7.83 1.3 10.56 3.91c2.73 2.61 4.09 6 4.09 10.17s-1.45 7.68-4.35 10.52c-2.9 2.85-6.52 4.28-10.84 4.28zm-4.49-4.73c1.52 1.26 3.45 1.89 5.78 1.89s4.22-1 5.65-2.99c1.43-1.99 2.14-4.48 2.14-7.47 0-3.7-.83-6.77-2.48-9.21-1.65-2.44-4.04-3.66-7.16-3.66-2.47 0-4.45 1.02-5.94 3.07-1.5 2.05-2.24 4.56-2.24 7.55 0 4.91 1.42 8.52 4.25 10.82zm35.6 4.41l-5.59-.16c-1.78 0-3.68.04-5.7.12l-.47-2.12c1.26-.03 2.09-.16 2.5-.39.41-.24.61-.58.61-1.02v-21.1c0-.47-.18-.83-.53-1.06-.35-.24-1.06-.35-2.1-.35l-.51-2.12c3.15.08 4.98.12 5.51.12l6.29-.16c6.16 0 9.25 2.15 9.25 6.45 0 2.89-1.75 5.01-5.23 6.37 1.99.37 3.69 1.17 5.09 2.42s2.1 2.76 2.1 4.54c0 2.68-.95 4.75-2.85 6.24-1.91 1.48-4.7 2.22-8.37 2.22zm3.7-20.99c0-1.59-.46-2.77-1.38-3.56-.92-.79-2.07-1.18-3.46-1.18-1.39 0-2.09.09-2.09.27v9.64c.05.03.59.04 1.61.04 1.65 0 2.95-.47 3.89-1.42s1.43-2.2 1.43-3.79zM339.8 76.9c0 1.47.95 2.2 2.85 2.2s3.35-.53 4.35-1.59c1-1.06 1.5-2.31 1.5-3.76 0-2.05-.65-3.53-1.95-4.45-1.3-.92-2.74-1.38-4.33-1.38s-2.39.01-2.42.04v8.94zm27.06-19.99V78c0 .47.18.83.53 1.06.35.24 1.06.35 2.11.35l.51 2.12c-3.15-.08-5.3-.12-6.45-.12-1.15 0-2.74.04-4.76.12l-.47-2.12c1.26-.03 2.09-.16 2.5-.39.41-.24.61-.58.61-1.02V56.91c0-.47-.18-.83-.53-1.06-.35-.24-1.06-.35-2.1-.35l-.51-2.12c3.15.08 5.3.12 6.47.12s2.75-.04 4.74-.12l.47 2.12c-1.26.03-2.09.16-2.5.39-.41.24-.62.58-.62 1.02zm18.65 24.59l-6.18-.08c-1.42 0-3.12.04-5.11.12l-.47-2.12c1.26-.03 2.09-.16 2.5-.39.41-.24.61-.58.61-1.02l.16-21.09c0-.47-.18-.83-.53-1.06-.35-.24-1.06-.35-2.1-.35l-.51-2.12c3.15.08 5.3.12 6.47.12s2.75-.04 4.74-.12l.47 2.12c-1.26.03-2.09.16-2.5.39-.41.24-.61.58-.61 1.02v20.02c0 1.39.64 2.08 1.93 2.08h3.7c3.54 0 5.95-1.89 7.24-5.67l2.13.43c0 .45-.38 1.83-1.14 4.15-.76 2.32-1.32 3.48-1.69 3.48l-9.11.09zm23.05-24.59V78c0 .47.18.83.53 1.06.35.24 1.06.35 2.11.35l.51 2.12c-3.15-.08-5.3-.12-6.45-.12-1.15 0-2.74.04-4.76.12l-.47-2.12c1.26-.03 2.09-.16 2.5-.39.41-.24.61-.58.61-1.02V56.91c0-.47-.18-.83-.53-1.06-.35-.24-1.06-.35-2.1-.35l-.51-2.12c3.15.08 5.3.12 6.47.12s2.75-.04 4.74-.12l.47 2.12c-1.26.03-2.09.16-2.5.39-.41.24-.62.58-.62 1.02zm22.94-1.1l-4.92.04h-.94c-1.08.05-1.61.1-1.61.16v9.72h6.53c.31 0 .47-1.26.47-3.78l2.2-.35-.12 5.43c0 1.5.04 3.11.12 4.84l-2.28.43c0-1.49-.03-2.45-.08-2.87-.05-.42-.18-.63-.39-.63h-6.45v8.1c0 .87.24 1.43.71 1.69s1.27.39 2.4.39h3.7c3.54 0 5.95-1.89 7.24-5.67l2.12.43c0 .45-.38 1.84-1.14 4.17-.76 2.33-1.32 3.5-1.69 3.5l-9.09.04-7.2-.04c-1.39 0-3.09.04-5.11.12l-.47-2.12c1.26-.03 2.09-.16 2.5-.39.41-.24.61-.58.61-1.02V56.91c0-.47-.18-.83-.53-1.06-.35-.24-1.06-.35-2.1-.35l-.51-2.12c3.15.08 4.98.12 5.51.12h10.19l6.14.04c.32.71.47 1.85.47 3.42 0 1.57-.07 2.98-.2 4.21l-1.73-.28c-.29-1.81-.77-3.11-1.44-3.89-.69-.79-1.65-1.19-2.91-1.19zm38.83 25.77c-.53-.1-1.1-.16-1.71-.16-.62 0-1.12.04-1.51.12l-16.64-21.13V78c0 .47.18.83.53 1.06.35.24 1.06.35 2.1.35l.51 2.12c-3.15-.08-5.09-.12-5.82-.12s-2.11.04-4.13.12l-.47-2.12c2.25-.05 3.38-.52 3.38-1.42V56.91c0-.94-.97-1.42-2.91-1.42l-.51-2.12c3.15.08 5.27.12 6.37.12s1.99-.04 2.67-.12c0 .31.18.74.55 1.28.37.54.67 1 .92 1.38.25.38.58.84.98 1.38.41.54.76 1 1.06 1.4s.69.88 1.16 1.46a640.3 640.3 0 003.17 3.97c.38.47 1.44 1.84 3.19 4.11 1.74 2.27 2.81 3.64 3.21 4.11l-.04-15.54c0-.47-.18-.83-.53-1.06-.35-.24-1.06-.35-2.11-.35l-.51-2.12c3.15.08 5.09.12 5.84.12s2.12-.04 4.11-.12l.47 2.12c-2.26.05-3.38.52-3.38 1.42l.05 24.65zm-242.37 37.84l-3.89-.12c-.84 0-2.33.03-4.48.08-.24-.32-.53-.74-.89-1.28-.35-.54-.79-1.19-1.3-1.97-.51-.77-1.44-2.18-2.79-4.23-1.35-2.05-2.38-3.54-3.09-4.49 0-.03.01-.04.04-.04H209v8.5c0 .47.18.83.53 1.06s1.06.35 2.1.35l.51 2.12c-3.15-.08-5.3-.12-6.45-.12-1.15 0-2.74.04-4.76.12l-.47-2.12c1.26-.03 2.09-.16 2.5-.39.41-.24.61-.58.61-1.02V94.8c0-.47-.18-.83-.53-1.06-.35-.24-1.06-.35-2.1-.35l-.51-2.13c3.15.08 4.98.12 5.51.12l5.86-.16c3.09 0 5.62.64 7.57 1.91 1.95 1.27 2.93 3.21 2.93 5.8 0 3.49-1.84 5.97-5.51 7.43 1.1 1.44 1.9 2.53 2.4 3.27h-.04c2.88 3.96 4.46 6.06 4.72 6.29.94.89 2.06 1.38 3.34 1.46l.75 2.04zm-18.97-25.41v11.21c.45.03 1 .04 1.65.04 2.07 0 3.64-.56 4.7-1.69s1.59-2.6 1.59-4.43c0-1.82-.54-3.18-1.61-4.07-1.08-.89-2.4-1.34-3.97-1.34s-2.36.1-2.36.28zm36.98-.31l-4.92.04h-.94c-1.08.05-1.61.11-1.61.16v9.72h6.53c.31 0 .47-1.26.47-3.78l2.2-.35-.12 5.43c0 1.5.04 3.11.12 4.84l-2.28.43c0-1.5-.03-2.45-.08-2.87-.05-.42-.18-.63-.39-.63h-6.45v8.1c0 .87.24 1.43.71 1.69s1.27.39 2.4.39h3.7c3.54 0 5.95-1.89 7.24-5.67l2.12.43c0 .45-.38 1.84-1.14 4.17-.76 2.33-1.32 3.5-1.69 3.5l-9.09.04-7.2-.04c-1.39 0-3.09.04-5.11.12l-.47-2.12c1.26-.03 2.09-.16 2.5-.39.41-.24.61-.58.61-1.02V94.8c0-.47-.18-.83-.53-1.06-.35-.24-1.06-.35-2.1-.35l-.51-2.13c3.15.08 4.98.12 5.51.12h10.19l6.14.04c.31.71.47 1.85.47 3.42 0 1.57-.07 2.98-.2 4.21l-1.73-.28c-.29-1.81-.77-3.11-1.44-3.9-.68-.78-1.65-1.17-2.91-1.17zm24.35 25.72l-7.08-.2c-1.39 0-3.09.04-5.11.12l-.47-2.12c1.26-.03 2.09-.16 2.5-.39.41-.24.61-.58.61-1.02V94.84c0-.47-.18-.83-.53-1.06-.35-.24-1.06-.35-2.1-.35l-.51-2.12c3.15.08 4.98.12 5.51.12l7.87-.08c5.19 0 9.26 1.17 12.2 3.52 2.94 2.35 4.41 5.72 4.41 10.11s-1.5 7.9-4.5 10.52c-3.03 2.61-7.29 3.92-12.8 3.92zm8.58-5.42c1.73-1.97 2.6-4.82 2.6-8.56s-.99-6.63-2.97-8.69c-1.98-2.06-4.81-3.09-8.48-3.09h-2.95c-.68 0-1.02.09-1.02.28v20.42c0 .68.06 1.17.2 1.46s.59.55 1.38.79c.79.24 2.03.35 3.74.35 3.26-.01 5.77-1 7.5-2.96zm16.72 5.31l-4.8.16-.28-2.16c.92-.08 1.67-.3 2.24-.67s1-.77 1.26-1.2.55-1.08.87-1.95l8.22-22.11h3.42l9.28 22.74c.47 1.18.96 2.01 1.47 2.5.51.49 1.24.73 2.18.73l.43 2.08c-1.21-.08-3.19-.12-5.94-.12-2.75 0-4.75.04-5.98.12l-.35-2.08c1.39 0 2.25-.1 2.6-.29.34-.2.51-.43.51-.69s-.08-.56-.24-.91l-2.64-5.9h-8.54l-1.65 4.72c-.11.29-.16.56-.16.83 0 .55.33 1.05.98 1.49.66.45 1.67.68 3.03.71l.39 2.16-6.3-.16zm7.63-20.81l-3.03 8.54h6.57l-3.54-8.54zm47.05 20.92l-5-.12c-1.13 0-2.04.01-2.75.04-1-1.21-3.07-3.56-6.21-7.06-3.15-3.5-4.89-5.25-5.23-5.25h-.04v8.85c0 .47.18.83.53 1.06.35.24 1.06.35 2.11.35l.51 2.12c-3.15-.08-5.3-.12-6.45-.12-1.15 0-2.74.04-4.76.12l-.47-2.12c1.26-.03 2.09-.16 2.5-.39.41-.24.61-.58.61-1.02V94.8c0-.47-.18-.83-.53-1.06-.35-.24-1.06-.35-2.1-.35l-.51-2.13c3.15.08 5.3.12 6.47.12s2.75-.04 4.74-.12l.47 2.13c-1.26.03-2.09.16-2.5.39-.41.24-.61.58-.61 1.02v9.4c1.6-1.52 3.57-3.54 5.9-6.06s3.5-3.94 3.5-4.27c0-.33-.87-.49-2.6-.49l-.51-2.13c3.15.08 5.3.12 6.45.12 1.15 0 2.74-.04 4.76-.12l.47 2.13c-2.67.08-4.38.51-5.11 1.3L335.2 104l10.98 11.88c1 .94 2.2 1.42 3.62 1.42l.5 2.12zm18.69-25.41h-2.16v21.87c0 .5.2.86.59 1.08.39.22 1.21.33 2.44.33l.51 2.12c-3.15-.08-5.43-.12-6.84-.12s-3.13.04-5.15.12l-.47-2.12c1.44-.03 2.39-.16 2.83-.39.45-.24.67-.58.67-1.02V94.01h-1.3c-2.39 0-3.89.3-4.52.91-.55.45-1.02 1.77-1.42 3.97l-1.81.04c-.26-1.29-.39-2.62-.39-4.01 0-1.39.16-2.68.47-3.86 1.02.21 2.18.31 3.46.31h17.07c1.76 0 3.08-.1 3.97-.31.16 1.81.24 3.25.24 4.31s-.14 2.29-.43 3.68l-1.85-.28c-.29-2.1-.76-3.38-1.42-3.86-.85-.6-2.34-.9-4.49-.9zm20.1.79v21.09c0 .47.18.83.53 1.06.35.24 1.06.35 2.11.35l.51 2.12c-3.15-.08-5.3-.12-6.45-.12-1.15 0-2.74.04-4.76.12l-.47-2.12c1.26-.03 2.09-.16 2.5-.39.41-.24.61-.58.61-1.02V94.8c0-.47-.18-.83-.53-1.06-.35-.24-1.06-.35-2.1-.35l-.51-2.13c3.15.08 5.3.12 6.47.12s2.75-.04 4.74-.12l.47 2.13c-1.26.03-2.09.16-2.5.39-.42.23-.62.57-.62 1.02zm22.11 24.98c-4.33 0-7.88-1.29-10.66-3.88-2.78-2.58-4.17-5.94-4.17-10.07s1.48-7.65 4.45-10.56 6.6-4.37 10.92-4.37 7.83 1.3 10.56 3.91c2.73 2.61 4.09 6 4.09 10.17s-1.45 7.68-4.35 10.52c-2.9 2.86-6.51 4.28-10.84 4.28zm-4.49-4.72c1.52 1.26 3.45 1.89 5.78 1.89s4.22-1 5.65-2.99c1.43-1.99 2.14-4.48 2.14-7.47 0-3.7-.83-6.77-2.48-9.21-1.65-2.44-4.04-3.66-7.16-3.66-2.47 0-4.45 1.02-5.94 3.07-1.5 2.04-2.24 4.56-2.24 7.55 0 4.9 1.42 8.51 4.25 10.82zm50.99 4.4c-.53-.1-1.1-.16-1.71-.16-.62 0-1.12.04-1.51.12L437.83 98.3v17.58c0 .47.18.83.53 1.06.35.24 1.06.35 2.1.35l.51 2.12c-3.15-.08-5.09-.12-5.82-.12s-2.11.04-4.13.12l-.47-2.12c2.25-.05 3.38-.52 3.38-1.42V94.8c0-.94-.97-1.42-2.91-1.42l-.51-2.13c3.15.08 5.27.12 6.37.12s1.99-.04 2.67-.12c0 .32.18.74.55 1.28.37.54.67 1 .92 1.38.25.38.58.84.98 1.38.41.54.76 1 1.06 1.4.3.39.69.88 1.16 1.46a640.3 640.3 0 003.17 3.97c.38.47 1.44 1.84 3.19 4.11 1.74 2.27 2.81 3.64 3.21 4.11l-.04-15.54c0-.47-.18-.83-.53-1.06-.35-.24-1.06-.35-2.11-.35l-.51-2.13c3.15.08 5.09.12 5.84.12s2.12-.04 4.11-.12l.47 2.13c-2.26.05-3.38.52-3.38 1.42l.06 24.65z"/><path class="st3" d="M93.12 65.06v69.96c-.19-.12-.38-.23-.57-.35a84.88 84.88 0 01-4.38-2.89V72.43L61.64 83.27v19.87c-.16-.26-.32-.53-.48-.8a93.42 93.42 0 01-4.48-8.6v-13.8l.03-.01L88.1 67.11l.06.02v-.05l4.96-2.02z"/><path class="st4" d="M56.71 79.94h-.02zm31.46-12.86v.05l-.06-.02z"/><path class="st4" d="M88.11 67.11l.06-.03v.05z"/><path class="st3" d="M122.13 73.97v72a67.81 67.81 0 01-4.95-1.02V77.46l-4.95-1.77v67.92c-.62-.19-1.23-.39-1.85-.59-1.05-.35-2.08-.71-3.1-1.1V73.93l-4.83-1.72v67.72c-1.68-.76-3.33-1.57-4.95-2.43V65.2h.01l4.47 1.59.48.16 9.75 3.47.03.01 4.95 1.76 4.94 1.78z"/><path class="st4" d="M112.23 70.43v.01l-.03-.01zm4.96-17.73h-.01z"/><path class="st3" d="M154.09 38.48v66.04l-4.96-1.41V45.7l-27 10.4v17.87l-4.95-1.77V52.7h.01l31.94-12.31zm40.44 13.91v63.67l-4.95-1.41V55.81l-5.78-2.21V113l-4.95-1.41V51.71l-5.31-2.02v60.38l-4.95-1.41V47.78l-5.54-2.14v61.44l-4.96-1.42V38.43l4.96 1.91 5.54 2.13 4.95 1.91 16.04 6.12z"/><path class="st3" d="M216.71 151.96l-47.83-6.99-18.31-29.33-16.6 33.65h-.01l-.31.66c-.71 1.54-1.58 3.06-1.59 3.06h-.14c-.83-.02-1.65-.05-2.49-.1-.03 0-.08 0-.12-.01l-.59-.03c-.14 0-.28-.01-.43-.03-6.27-.4-12.36-1.49-18.22-3.2-.62-.17-1.23-.36-1.85-.55-1.05-.32-2.08-.67-3.1-1.05-1.63-.57-3.25-1.2-4.83-1.88a79.33 79.33 0 01-4.95-2.29c-.84-.41-1.68-.85-2.5-1.3-.82-.43-1.63-.9-2.44-1.36-.71-.41-1.42-.83-2.11-1.28-.77-.46-1.52-.95-2.27-1.46a90.089 90.089 0 01-26.53-27.37c-.32-.5-.64-1.02-.94-1.52-.78-1.3-1.52-2.63-2.23-3.97-.63-1.17-1.22-2.36-1.78-3.56A87.868 87.868 0 0146 66.42c-.02-.68-.03-1.37-.03-2.07v-.18c0-.51.01-1.02.03-1.52.01-.57.02-1.15.05-1.7.49 12.22 3.48 24.09 8.49 34.96 1.34 2.94 2.84 5.82 4.48 8.6.15.27.31.54.48.8.24.41.49.8.74 1.2 6.7 10.8 15.51 20.22 25.8 27.44a84.88 84.88 0 004.38 2.89c.19.12.38.23.57.35 1.43.87 2.89 1.7 4.37 2.48 1.62.86 3.28 1.68 4.95 2.43 1.59.71 3.2 1.38 4.83 1.99 1.03.39 2.05.76 3.1 1.1.62.21 1.23.4 1.85.59 1.63.51 3.29.95 4.95 1.34 1.63.4 3.29.74 4.95 1.02 2.64.46 5.3.78 8.01.96l21.64-41.82 44.91 12.59 22.16 32.09z"/><path class="st2" d="M35.22 66.26l9.52.34-.09 2.55c-.05 1.46-.48 2.58-1.3 3.37-.82.79-2.01 1.15-3.58 1.1-.79-.03-1.48-.16-2.07-.39-.59-.23-1.09-.55-1.48-.96a3.7 3.7 0 01-.86-1.46c-.18-.57-.26-1.2-.24-1.91l.1-2.64zM36.53 68l-.03.74c-.03.97.22 1.73.76 2.26.54.54 1.4.83 2.57.87 1.16.04 2.02-.19 2.58-.7.55-.51.85-1.24.88-2.2l.03-.74-6.79-.23zm-1.34 9.98l9.52-.5.09 1.69-9.52.5-.09-1.69zm.54 6.55l9.42-1.46.88 5.67-1.41.22-.62-4-2.4.37.52 3.38-1.41.22-.52-3.38-2.78.43.64 4.15-1.41.22-.91-5.82zM40 103.4c-.18-.52-.27-1.02-.26-1.49s.12-.91.35-1.33.57-.79 1.03-1.13c.46-.34 1.07-.64 1.81-.9l5.05-1.76.56 1.6-5.17 1.8c-.49.17-.88.36-1.19.56-.31.2-.53.42-.68.65-.15.23-.22.47-.23.72-.01.25.03.51.13.79.1.27.23.51.39.71.17.2.38.35.64.44.26.09.57.13.94.1.37-.02.79-.12 1.28-.29l5.17-1.8.53 1.53-5.05 1.76c-.74.26-1.4.4-1.97.42-.57.03-1.08-.05-1.51-.24s-.8-.46-1.1-.82-.54-.8-.72-1.32zm3.37 8.1l8.5-4.31.79 1.55-3.44 5.08-1.36 1.79.03.05c.42-.26.88-.54 1.36-.85.48-.3.96-.58 1.44-.82l3.69-1.87.73 1.44-8.5 4.31-.79-1.55 3.44-5.08 1.36-1.79-.03-.05c-.43.26-.88.54-1.35.84-.47.3-.94.57-1.42.81l-3.72 1.89-.73-1.44zm5.19 9.75l9.63-2.78 1.11 1.64-6.14 7.92-1-1.47 1.72-2.06-1.8-2.65-2.55.83-.97-1.43zm5.99-.2l-1.15.38 1.37 2.01.78-.93c.33-.41.68-.83 1.04-1.24.36-.42.72-.83 1.08-1.24l-.03-.05c-.52.19-1.04.37-1.55.56-.52.18-1.03.36-1.54.51zm1.02 10.02l7.19-6.26 2 2.3c.33.37.59.74.8 1.11.21.37.35.72.41 1.07.07.35.04.69-.08 1.01-.12.33-.34.63-.67.92-.34.3-.74.49-1.19.57-.45.08-.86.01-1.25-.21l-.04.04c.26.47.36.96.3 1.47s-.33.97-.81 1.39c-.36.31-.73.51-1.12.6-.39.09-.77.09-1.16 0-.39-.09-.77-.27-1.15-.53-.38-.26-.74-.59-1.08-.99l-2.15-2.49zm2.1.41l.94 1.08c.46.53.91.85 1.35.97s.87 0 1.27-.35c.38-.33.54-.71.47-1.14-.07-.43-.34-.92-.81-1.46l-.94-1.08-2.28 1.98zm3.23-2.81l.79.91c.44.5.85.79 1.23.85.38.06.72-.04 1.03-.31.35-.31.5-.64.44-1s-.29-.78-.7-1.25l-.81-.93-1.98 1.73zm2.43 10.84l6.32-7.13 1.26 1.12-2.54 2.87 2.89 2.56 2.54-2.87 1.27 1.12-6.32 7.13-1.27-1.12 2.8-3.16-2.89-2.56-2.8 3.16-1.26-1.12zm8.5 7.24l7.94-6.12 1.64 1.12-2.81 9.62-1.47-1 .84-2.55-2.66-1.82-2.07 1.71-1.41-.96zm5.49-2.39l-.93.77 2.01 1.37.38-1.15c.16-.5.33-1.02.51-1.54s.37-1.04.55-1.55l-.05-.03-1.24 1.09c-.41.36-.82.71-1.23 1.04zm2.39-4.72a.849.849 0 01-.38-.55c-.04-.22.01-.44.15-.65.14-.21.33-.34.55-.38.23-.05.44 0 .65.14.21.14.33.33.38.56.04.23-.01.45-.15.66-.14.21-.33.33-.55.37a.867.867 0 01-.65-.15zm2.58 1.76a.838.838 0 01-.38-.55c-.05-.23 0-.44.14-.65.14-.21.33-.33.56-.38.23-.04.45.01.66.15.21.14.33.33.37.55.04.23-.01.45-.15.66-.14.21-.33.33-.55.38s-.45-.02-.65-.16zm-.32 11.93l4.34-8.49 1.54.79.21 6.13-.06 2.25.05.03c.19-.46.39-.95.6-1.48.21-.53.44-1.03.68-1.51l1.88-3.68 1.44.74-4.34 8.48-1.54-.79-.21-6.13.05-2.25-.05-.03c-.2.47-.4.96-.6 1.48-.2.52-.43 1.01-.67 1.49l-1.9 3.71-1.42-.74zm14.84 6.79a4.82 4.82 0 01-1.58-.9c-.45-.38-.79-.84-1.03-1.37-.24-.53-.36-1.12-.37-1.77-.01-.65.12-1.35.38-2.09.26-.73.6-1.35 1.03-1.86s.9-.89 1.42-1.16c.52-.27 1.08-.42 1.67-.44.59-.03 1.19.06 1.78.27.64.23 1.14.54 1.5.92.36.39.63.78.81 1.18l-1.22.73c-.15-.3-.34-.58-.57-.83-.23-.25-.55-.45-.97-.6-.4-.14-.79-.2-1.17-.16-.38.04-.73.15-1.07.35-.33.2-.63.47-.9.83s-.5.79-.67 1.29c-.36 1.03-.42 1.91-.16 2.66.26.75.84 1.28 1.75 1.6.26.09.51.14.76.15.25.01.48-.02.67-.1l.68-1.94-1.7-.6.46-1.3 3.13 1.11-1.4 3.96c-.41.2-.9.31-1.47.34-.55.04-1.14-.05-1.76-.27zm7.47 2.05l2.25-9.26 1.64.4-2.25 9.26-1.64-.4zm10.48 2.17c-.64-.09-1.21-.27-1.72-.56-.51-.29-.94-.66-1.29-1.13-.34-.47-.58-1.02-.72-1.66-.14-.64-.15-1.34-.05-2.12.11-.77.32-1.44.63-2.02.31-.58.7-1.05 1.16-1.42.46-.37.97-.63 1.55-.77.57-.15 1.17-.18 1.8-.09.67.09 1.23.29 1.66.6.43.31.78.64 1.03.99l-1.04.96c-.21-.26-.45-.5-.72-.7-.27-.2-.63-.33-1.07-.39-.42-.06-.82-.03-1.18.08s-.69.3-.97.56c-.29.26-.52.59-.72 1-.19.41-.33.87-.4 1.4-.15 1.08-.02 1.96.38 2.63.4.68 1.08 1.08 2.03 1.21.27.04.53.04.78 0s.46-.12.63-.23l.28-2.04-1.79-.25.19-1.37 3.29.45-.57 4.16c-.36.27-.82.48-1.37.63-.56.15-1.16.17-1.8.08zm7.86.55l.13-9.53 5.74.08-.02 1.43-4.05-.05-.03 2.43 3.42.04-.02 1.43-3.42-.05-.04 2.81 4.2.06-.02 1.43-5.89-.08z"/></g><g id="_x39_9d_logo" class="st5"><g class="st6"><defs><path id="SVGID_1_" d="M-3.68 8.11c15.66-27.27 50.32-36.62 77.44-20.87 27.11 15.74 36.39 50.62 20.75 77.88C78.85 92.4 44.18 101.74 17.06 86-10.05 70.25-19.34 35.37-3.68 8.11zm216.43 0c15.66-27.27 50.32-36.62 77.44-20.87 27.11 15.74 36.39 50.62 20.75 77.88-15.66 27.28-50.32 36.62-77.45 20.88-27.1-15.75-36.4-50.63-20.74-77.89zm302.98 172.14c-11.19 11.27-25.5 16.91-42.92 16.91-8.39 0-16.25-1.49-23.56-4.47-7.31-2.97-13.52-7.1-18.66-12.44-5.13-5.31-9.17-11.64-12.13-18.99-2.96-7.36-4.43-15.42-4.43-24.16 0-8.45 1.47-16.36 4.43-23.71 2.96-7.35 7.08-13.6 12.37-18.77 5.28-5.16 11.59-9.23 18.89-12.19 7.31-2.98 15.32-4.47 24.02-4.47 8.39 0 16.18 1.49 23.34 4.47 7.14 2.97 13.37 7.12 18.65 12.44 5.29 5.3 9.42 11.49 12.37 18.52 2.96 7.05 4.44 14.78 4.44 23.23 0 17.84-5.61 32.39-16.81 43.63zm-362.11-82.5c10.55 18.93 26.14 35.34 46.17 46.98 16.82 9.76 34.98 14.98 53.13 16.27l-53.98 94.06h80.82l64.38-112.16c.55 16.2 3.39 31.16 8.53 44.87 5.76 15.31 13.85 28.52 24.27 39.64 10.42 11.12 22.79 19.78 37.09 26.05 14.31 6.26 30.02 9.38 47.11 9.38 16.18 0 29.78-2.57 40.83-7.74 11.04-5.16 21.23-13.53 30.56-25.12v24.88h66.25V-81.1h-70V39.95c-9.64-9.41-19.9-16.36-30.78-20.91-10.89-4.54-23.65-6.8-38.27-6.8-16.48 0-31.8 3.14-45.95 9.39-10.32 4.56-19.6 10.41-27.85 17.55.86-44-21.48-87.12-62.05-110.68-59.36-34.48-135.27-14.03-169.53 45.68-.25.43-.49.86-.73 1.29-10.54-18.93-26.13-35.33-46.17-46.97C48.11-105.97-27.8-85.51-62.07-25.81-96.35 33.91-76 110.25-16.64 144.73.18 154.49 18.34 159.71 36.49 161l-53.98 94.06h80.82L152.9 99.03c.24-.42.48-.85.72-1.28z"/></defs><clipPath id="SVGID_2_"><use xlink:href="#SVGID_1_" overflow="visible"/></clipPath><g clip-path="url(#SVGID_2_)"><defs><path id="SVGID_3_" d="M-625.46-798.79h1770.84V972.05H-625.46z"/></defs><clipPath id="SVGID_4_"><use xlink:href="#SVGID_3_" overflow="visible"/></clipPath><path clip-path="url(#SVGID_4_)" fill="#5c5857" d="M-89.79-99.31h699.65v373.22H-89.79z"/></g></g></g><g id="TEMPLATE__x28_delete_x29_" class="st5"><path d="M-240-413V587H760V-413H-240zm800 800H-40v-600h600v600z" opacity=".5" fill="#d6d4d4"/><g class="st6"><defs><path id="SVGID_5_" d="M7.51-118.08c1.99-3.46 6.38-4.64 9.82-2.65 3.44 2 4.61 6.42 2.63 9.88-1.99 3.46-6.38 4.64-9.82 2.65-3.43-2-4.61-6.42-2.63-9.88zm28.6 0c1.99-3.46 6.38-4.64 9.82-2.65 3.44 2 4.61 6.42 2.63 9.88-1.99 3.46-6.38 4.64-9.82 2.65-3.43-2-4.61-6.42-2.63-9.88zm43.28 21.83c-1.42 1.43-3.23 2.14-5.44 2.14a7.84 7.84 0 01-2.99-.57c-.93-.38-1.71-.9-2.37-1.58-.65-.67-1.16-1.48-1.54-2.41-.38-.93-.56-1.96-.56-3.06 0-1.07.19-2.07.56-3.01.38-.93.9-1.72 1.57-2.38.67-.65 1.47-1.17 2.4-1.55.93-.38 1.94-.57 3.05-.57 1.06 0 2.05.19 2.96.57.91.38 1.7.9 2.36 1.58.67.67 1.19 1.46 1.57 2.35.38.89.56 1.87.56 2.94 0 2.28-.71 4.12-2.13 5.55zm1.66-33.14v15.35c-1.22-1.19-2.52-2.07-3.9-2.65-1.38-.58-3-.86-4.85-.86-2.09 0-4.03.4-5.83 1.19-1.8.79-3.34 1.89-4.65 3.3-1.3 1.41-2.32 3.08-3.08 5.03-.75 1.94-1.12 4.04-1.12 6.31 0 2.34.37 4.48 1.09 6.43.73 1.94 1.76 3.62 3.08 5.03 1.32 1.41 2.89 2.51 4.7 3.3 1.82.79 3.81 1.19 5.97 1.19 2.05 0 3.78-.33 5.18-.98 1.4-.65 2.69-1.72 3.88-3.18v3.15h8.4v-42.6h-8.87zm-53.01 8.31c.2-.44.43-.88.67-1.3 4.34-7.57 13.97-10.16 21.5-5.79 7.53 4.37 10.1 14.05 5.76 21.62L44.61-86.77H34.36l6.85-11.93c-2.3-.16-4.6-.83-6.74-2.06a15.711 15.711 0 01-6.43-7.1c-.2.44-.43.88-.67 1.3L16.01-86.77H5.76l6.85-11.93c-2.3-.16-4.6-.83-6.74-2.06-7.53-4.37-10.11-14.05-5.76-21.62 4.34-7.57 13.97-10.16 21.5-5.79 2.93 1.7 5.12 4.21 6.43 7.09zm72.65 16.31c.35-1.66 1.11-2.94 2.27-3.83 1.16-.89 2.61-1.33 4.34-1.33s3.2.48 4.4 1.43c1.2.95 1.96 2.19 2.27 3.74h-13.28zm20.95-2.91c-.79-1.98-1.88-3.69-3.28-5.13-1.39-1.44-3.05-2.58-4.96-3.41-1.91-.83-3.96-1.25-6.17-1.25-2.12 0-4.12.42-5.99 1.25-1.87.83-3.49 1.96-4.87 3.38s-2.47 3.11-3.28 5.05c-.81 1.94-1.21 4.02-1.21 6.23 0 2.21.4 4.28 1.21 6.2.81 1.92 1.91 3.59 3.3 5.02a15.33 15.33 0 004.93 3.35c1.89.81 3.92 1.22 6.08 1.22 3.15 0 5.98-.91 8.5-2.73 2.41-1.74 4.3-4.11 5.66-7.12h-9.2c-.94.91-1.81 1.52-2.6 1.84-.79.32-1.73.48-2.83.48-1.77 0-3.25-.51-4.43-1.51-1.18-1.01-1.87-2.35-2.06-4h22.13c.48-3.02.2-6.02-.93-8.87zm25.55-.41c-.43-5.81-4.95-9.32-11.34-9.32-5.97 0-11.45 3.78-11.45 9.64 0 3.46 1.97 6.39 9.43 8.68 4.42 1.38 5.43 2.24 5.43 3.89 0 1.38-1.54 2.29-3.09 2.29-1.76 0-3.09-.85-3.36-2.72h-8.79c.64 6.02 5.38 9.8 12.04 9.8 6.71 0 12.04-3.89 12.04-10.07 0-4.31-2.29-7.14-9.32-9-4.1-1.07-5.54-1.86-5.54-3.46 0-1.12 1.07-1.97 2.56-1.97 1.44 0 2.66.53 2.72 2.24h8.67zm7.69-11.49c2.93 0 5.3-2.39 5.3-5.33s-2.37-5.33-5.3-5.33c-2.93 0-5.3 2.39-5.3 5.33s2.38 5.33 5.3 5.33zm4.43 32.79h-8.85v-29.68h8.85v29.68zm16.91-23.98c2.69 0 4.87 2.19 4.87 4.9 0 2.7-2.18 4.9-4.87 4.9s-4.87-2.19-4.87-4.9c0-2.71 2.18-4.9 4.87-4.9zm6.16 30.09c-1.01 1.38-2.93 1.86-4.54 1.94-1.89.09-4.45-.34-5.74-1.89-1.24-1.49-.95-3.57.73-4.59.48-.3.99-.47 1.54-.55h4.4c1.92 0 4.36.54 4.34 2.93-.01.74-.29 1.56-.73 2.16zm-8.59-11.93c-3.59-.56-3.51-2-2.64-2.69 8.16 3.11 18.12-.84 18.18-10.3-.02-3.47-1.25-5.68-2.2-6.7.75-1.43 1.6-2.15 3.44-2.59l-3.73-6.45c-3.36.29-5.58 2.36-6.59 4.5-1.99-.81-6.06-.91-9.3.25-1.56.55-3 1.35-4.25 2.45-1.19 1.05-2.13 2.3-2.79 3.75-.7 1.51-1 3.13-1.01 4.78.02 2.26.73 4.94 2.04 6.77-3.56 3.52-3.36 8.75.33 12.05-.39.3-.75.63-1.08.99-3.33 3.63-1.75 8.68 2.07 11.34 4.83 3.46 13.41 3.67 18.69 1.32 9.27-3.77 9.61-17.59-1.16-19.4-3-.5-6.41.49-10-.07zm18.97 5.82h8.85v-16.56c0-3.88 1.67-5.81 5.02-5.81 1.61 0 2.78.49 3.51 1.48s1.09 2.55 1.09 4.69v16.2h8.85v-18.58c0-1.19-.05-2.23-.15-3.12-.1-.89-.26-1.68-.47-2.37-.22-.69-.51-1.33-.88-1.9-.37-.57-.86-1.14-1.44-1.69-.94-.95-2.1-1.69-3.48-2.23-1.38-.53-2.85-.8-4.42-.8-1.89 0-3.45.33-4.69.98-1.24.65-2.37 1.71-3.39 3.18v-3.15h-8.38v29.68zm52.37-21.3c-.43-5.81-4.95-9.32-11.34-9.32-5.97 0-11.45 3.78-11.45 9.64 0 3.46 1.97 6.39 9.43 8.68 4.42 1.38 5.43 2.24 5.43 3.89 0 1.38-1.54 2.29-3.09 2.29-1.76 0-3.09-.85-3.36-2.72h-8.79c.64 6.02 5.38 9.8 12.04 9.8 6.71 0 12.04-3.89 12.04-10.07 0-4.31-2.29-7.14-9.32-9-4.1-1.07-5.54-1.86-5.54-3.46 0-1.12 1.07-1.97 2.56-1.97 1.44 0 2.66.53 2.72 2.24h8.67z"/></defs><clipPath id="SVGID_6_"><use xlink:href="#SVGID_5_" overflow="visible"/></clipPath><g clip-path="url(#SVGID_6_)"><defs><path id="SVGID_7_" d="M-43.34-270.44h330.71V60.27H-43.34z"/></defs><clipPath id="SVGID_8_"><use xlink:href="#SVGID_7_" overflow="visible"/></clipPath><path clip-path="url(#SVGID_8_)" fill="#5c5857" d="M-4.07-132.36H248.1v62.85H-4.07z"/></g></g><g class="st6"><path d="M2.99-27.17h6.98v3.07H-.33v-16.8h3.31v13.73zm21.34-3.03c0 3.77-2.74 6.36-6.41 6.36-3.65 0-6.36-2.59-6.36-6.36 0-3.77 2.71-6.34 6.36-6.34 3.67 0 6.41 2.57 6.41 6.34zm-9.55 0c0 1.99 1.3 3.5 3.17 3.5 1.9 0 3.14-1.51 3.14-3.5 0-2.02-1.25-3.5-3.14-3.5-1.88 0-3.17 1.49-3.17 3.5zm23.11-3.43h-1.8c.14.43.24.91.24 1.42 0 2.45-1.99 4.22-4.8 4.22-.74 0-1.42-.1-2.02-.31-.17.22-.29.5-.29.89 0 .62.46 1.01 1.22 1.01h2.86c2.5 0 3.98 1.2 3.98 3.5 0 2.74-2.14 4.22-5.38 4.22-3.62 0-5.52-1.34-5.52-3.74 0-1.06.62-1.75 1.22-2.14-.74-.5-1.42-1.44-1.42-2.62 0-1.15.53-1.97 1.25-2.57a3.92 3.92 0 01-.84-2.47c0-2.52 2.06-4.32 4.92-4.32.62 0 1.22.1 1.75.26h4.61v2.65zm-7.2 9.58c-.7.1-1.25.58-1.25 1.39 0 1.1.98 1.66 2.5 1.66 1.42 0 2.3-.58 2.3-1.7 0-.91-.67-1.34-1.73-1.34h-1.82zm-1.01-8.16c0 1.13.74 1.92 1.82 1.92s1.8-.79 1.8-1.92c0-1.18-.72-1.97-1.8-1.97-1.1 0-1.82.79-1.82 1.97zm22.08 2.01c0 3.77-2.74 6.36-6.41 6.36-3.65 0-6.36-2.59-6.36-6.36 0-3.77 2.71-6.34 6.36-6.34 3.67 0 6.41 2.57 6.41 6.34zm-9.55 0c0 1.99 1.3 3.5 3.17 3.5 1.9 0 3.14-1.51 3.14-3.5 0-2.02-1.25-3.5-3.14-3.5-1.88 0-3.17 1.49-3.17 3.5zm21.04-6.07h2.78v2.83h-2.81l-.05 4.92c0 1.25.38 1.75 1.58 1.75.6 0 .94-.07 1.27-.17v2.74c-.38.14-1.01.26-1.97.26-2.66 0-4.03-1.08-4.01-3.84l.05-5.66H58.1v-2.83h1.99l.02-2.95h3.14v2.95zm16.33 6.07v.96H71.1c.1 1.61 1.22 2.74 2.93 2.74 1.2 0 2.11-.5 2.45-1.42h3.02c-.74 2.57-2.62 4.08-5.57 4.08-3.6 0-6.05-2.5-6.05-6.34 0-3.67 2.42-6.36 6.05-6.36 3.22 0 5.65 2.02 5.65 6.34zm-8.45-1.2h5.3c-.02-1.54-1.03-2.54-2.57-2.54-1.56 0-2.59 1.05-2.73 2.54zm28.29-.6v7.9H96.3v-7.22c0-1.42-.55-2.18-1.7-2.18s-2.09.91-2.14 2.83v6.58h-3.12v-7.22c0-1.42-.58-2.18-1.7-2.18-1.2 0-2.14.96-2.14 2.98v6.43h-3.1v-12.17h2.66l.24 1.58c.55-1.03 1.66-1.85 3.24-1.85 1.73 0 2.9.79 3.48 2.14.58-1.15 1.78-2.14 3.5-2.14 2.61-.02 3.9 1.76 3.9 4.52zm15.87 1.8c0 3.58-2.4 6.36-5.66 6.36-1.75 0-3.02-.72-3.65-1.61v6.5h-3.12v-17.33h2.69l.22 1.63c.67-.98 1.8-1.9 3.86-1.9 3.26.01 5.66 2.78 5.66 6.35zm-9.39-.05v.14c.02 2.14 1.56 3.34 3.07 3.34 1.7 0 3.07-1.34 3.07-3.43s-1.34-3.41-3.07-3.41c-1.53 0-3.07 1.18-3.07 3.36zm15.22 6.15H118v-17.52h3.12v17.52zm12.91-7.99v7.99h-2.66l-.19-1.49c-.65.98-1.75 1.75-3.48 1.75-2.16 0-3.7-1.32-3.7-3.5 0-2.38 1.61-3.29 3.77-3.65l3.14-.58v-.46c0-1.2-.6-1.85-1.7-1.85-1.03 0-1.82.62-1.82 1.61h-3.02c.14-2.47 1.97-4.27 4.85-4.27s4.81 1.47 4.81 4.45zm-5.54 3.12c-.82.19-1.37.55-1.37 1.37 0 .72.5 1.2 1.42 1.2.77 0 1.51-.38 1.94-1.1.26-.41.43-1.01.43-1.61v-.36l-2.42.5zm12.67-7.3h2.78v2.83h-2.81l-.05 4.92c0 1.25.38 1.75 1.58 1.75.6 0 .94-.07 1.27-.17v2.74c-.38.14-1.01.26-1.97.26-2.66 0-4.03-1.08-4.01-3.84l.05-5.66h-1.99v-2.83H138l.02-2.95h3.14v2.95zm16.32 6.07v.96h-8.47c.1 1.61 1.22 2.74 2.93 2.74 1.2 0 2.11-.5 2.45-1.42h3.02c-.74 2.57-2.62 4.08-5.57 4.08-3.6 0-6.05-2.5-6.05-6.34 0-3.67 2.42-6.36 6.05-6.36 3.21 0 5.64 2.02 5.64 6.34zm-8.45-1.2h5.3c-.02-1.54-1.03-2.54-2.57-2.54-1.55 0-2.59 1.05-2.73 2.54z" fill="#5c5856"/><path class="st13" d="M170.56-40.42c-2.02 2.66-3 4.99-3 8.62 0 3.62.98 5.95 3 8.62l-2.21 1.49c-2.21-2.71-3.74-5.69-3.74-10.1s1.54-7.39 3.74-10.1l2.21 1.47zm7.99 16.32h-3.31v-11.64h-3.53v-2.78c2.59 0 3.98-.58 4.42-2.38h2.42v16.8zm14.74-8.43c0 5.38-2.14 8.74-5.98 8.74s-5.95-3.36-5.95-8.74c0-5.35 2.11-8.69 5.95-8.69s5.98 3.34 5.98 8.69zm-8.6 0c0 3.55.86 5.66 2.62 5.66 1.75 0 2.62-2.11 2.62-5.66 0-3.53-.86-5.62-2.62-5.62-1.75.01-2.62 2.09-2.62 5.62zm22.56 0c0 5.38-2.14 8.74-5.98 8.74s-5.95-3.36-5.95-8.74c0-5.35 2.11-8.69 5.95-8.69s5.98 3.34 5.98 8.69zm-8.59 0c0 3.55.86 5.66 2.62 5.66 1.75 0 2.62-2.11 2.62-5.66 0-3.53-.86-5.62-2.62-5.62-1.76.01-2.62 2.09-2.62 5.62zm22.56 0c0 5.38-2.14 8.74-5.98 8.74s-5.95-3.36-5.95-8.74c0-5.35 2.11-8.69 5.95-8.69s5.98 3.34 5.98 8.69zm-8.59 0c0 3.55.86 5.66 2.62 5.66 1.75 0 2.62-2.11 2.62-5.66 0-3.53-.86-5.62-2.62-5.62-1.76.01-2.62 2.09-2.62 5.62zm25.37-.09l5.67 8.52h-3.89l-4.03-6.07-4.03 6.07h-3.86l5.64-8.52-5.5-8.28h3.89l3.86 5.83 3.86-5.83h3.89l-5.5 8.28zm18.96 8.52h-3.31v-11.64h-3.53v-2.78c2.59 0 3.98-.58 4.42-2.38h2.42v16.8zm14.73-8.43c0 5.38-2.14 8.74-5.98 8.74-3.84 0-5.95-3.36-5.95-8.74 0-5.35 2.11-8.69 5.95-8.69 3.85 0 5.98 3.34 5.98 8.69zm-8.59 0c0 3.55.86 5.66 2.62 5.66 1.75 0 2.62-2.11 2.62-5.66 0-3.53-.86-5.62-2.62-5.62-1.76.01-2.62 2.09-2.62 5.62zm22.56 0c0 5.38-2.14 8.74-5.98 8.74-3.84 0-5.95-3.36-5.95-8.74 0-5.35 2.11-8.69 5.95-8.69 3.84 0 5.98 3.34 5.98 8.69zm-8.59 0c0 3.55.86 5.66 2.62 5.66 1.75 0 2.62-2.11 2.62-5.66 0-3.53-.86-5.62-2.62-5.62-1.76.01-2.62 2.09-2.62 5.62zm22.56 0c0 5.38-2.14 8.74-5.98 8.74-3.84 0-5.95-3.36-5.95-8.74 0-5.35 2.11-8.69 5.95-8.69 3.84 0 5.98 3.34 5.98 8.69zm-8.6 0c0 3.55.86 5.66 2.62 5.66 1.75 0 2.62-2.11 2.62-5.66 0-3.53-.86-5.62-2.62-5.62-1.75.01-2.62 2.09-2.62 5.62zm23.89 2.33c0 3.58-2.4 6.36-5.66 6.36-1.75 0-3.02-.72-3.65-1.61v6.5h-3.12v-17.33h2.69l.22 1.63c.67-.98 1.8-1.9 3.86-1.9 3.25.01 5.66 2.78 5.66 6.35zm-9.39-.05v.14c.02 2.14 1.56 3.34 3.07 3.34 1.7 0 3.07-1.34 3.07-3.43s-1.34-3.41-3.07-3.41c-1.53 0-3.07 1.18-3.07 3.36zm18.48-.04l3.84 6.19h-3.62l-2.38-3.84-2.35 3.84h-3.62l3.82-6.19-3.67-5.98h3.63l2.21 3.55 2.23-3.55h3.62l-3.71 5.98zm10.63-1.52c0 4.42-1.56 7.39-3.77 10.1l-2.18-1.49c1.99-2.66 2.98-4.99 2.98-8.62 0-3.62-.98-5.95-2.98-8.62l2.18-1.49c2.21 2.73 3.77 5.71 3.77 10.12z"/></g><g class="st6"><path class="st13" d="M1.6 30.21h4.45v1.3H1.6v-1.3zm13.23 1.21v4.67h-1.49V23.85h3.68c2.37 0 4.21 1.12 4.21 3.76 0 2.59-1.82 3.81-4.34 3.81h-2.06zm2.07-1.2c1.78 0 2.8-.86 2.8-2.61 0-1.82-1.02-2.56-2.75-2.56h-2.11v5.17h2.06zm6.43-6.74h1.44V36.1h-1.44V23.48zm4.19 6.49c.03-1.49 1.17-2.51 3.19-2.51 2.1 0 3.12.88 3.12 3.14v3.44c0 .67.14.94.77.96v1.17h-.18c-1.34 0-1.79-.48-1.94-1.49h-.03c-.45.99-1.46 1.57-2.71 1.57-1.68 0-2.67-.91-2.67-2.42 0-.93.4-1.7 1.26-2.13.88-.46 2.19-.62 4.08-.69v-.37c0-1.52-.58-2.11-1.76-2.11-1.25 0-1.71.72-1.76 1.44h-1.37zm4.9 2.3v-.19c-1.82.08-2.86.22-3.41.62-.32.24-.46.59-.46 1.04 0 .86.56 1.33 1.47 1.33 1.07 0 2.4-.72 2.4-2.8zm9.47-2.06c-.1-.86-.7-1.65-1.92-1.65-1.52 0-2.32 1.33-2.32 3.3 0 1.95.59 3.31 2.29 3.31 1.6 0 2.02-1.18 2.07-1.82h1.34c-.21 1.95-1.6 2.95-3.42 2.95-2.43 0-3.75-1.7-3.75-4.37 0-2.58 1.41-4.47 3.78-4.47 1.68 0 3.2.77 3.34 2.75h-1.41zm6.91 6.09c-2.58 0-3.81-1.87-3.81-4.39 0-2.5 1.34-4.47 3.76-4.47 2.53 0 3.52 1.95 3.52 4.08v.74h-5.81c.1 1.74.8 2.93 2.39 2.93 1.41 0 1.78-.82 1.92-1.31h1.39c-.3 1.46-1.55 2.42-3.36 2.42zm2-5.26c-.03-1.41-.59-2.5-2.06-2.5-1.34 0-2.08 1.06-2.26 2.59h4.32v-.09zm7.52-3.38h1.44l1.76 5.28c.27.8.42 1.31.42 1.31h.05s.14-.51.42-1.33l1.73-5.27h1.44l-3.07 8.96c-.67 1.94-1.23 2.66-3.06 2.66-.32 0-.64-.05-.86-.1V38c.27.06.59.08.74.08 1.07 0 1.42-.4 1.79-1.54l.16-.45-2.96-8.43zm8.54 4.21c0-2.61 1.44-4.42 3.79-4.42 2.51 0 3.76 1.81 3.76 4.42 0 2.64-1.42 4.43-3.79 4.43-2.48 0-3.76-1.79-3.76-4.43zm1.49 0c0 2.06.69 3.31 2.32 3.31 1.57 0 2.26-1.25 2.26-3.31 0-2.05-.67-3.31-2.29-3.31-1.54 0-2.29 1.26-2.29 3.31zm9.89.98c0 .61 0 1.31.3 1.71.29.38.74.56 1.3.56 1.57 0 2.3-1.04 2.3-2.9v-4.56h1.44v8.44H82.2v-1.44h-.03c-.38.86-1.31 1.65-2.66 1.65-1.62 0-2.71-.78-2.71-2.77v-5.87h1.42v5.18zm8.5-5.19h1.36v1.58h.03c.38-.88 1.44-1.75 2.67-1.75h.14V29h-.27c-1.5 0-2.5.86-2.5 2.5v4.59h-1.44v-8.43zm10.92-4.18h1.44V36.1h-1.44V23.48zm3.84 8.39c0-2.61 1.44-4.42 3.79-4.42 2.51 0 3.76 1.81 3.76 4.42 0 2.64-1.42 4.43-3.79 4.43-2.48 0-3.76-1.79-3.76-4.43zm1.49 0c0 2.06.69 3.31 2.32 3.31 1.57 0 2.26-1.25 2.26-3.31 0-2.05-.67-3.31-2.29-3.31-1.54 0-2.29 1.26-2.29 3.31zm8.11 5.07h1.39c.16.72.71 1.18 2.08 1.18 1.6 0 2.4-.59 2.4-2.45v-1.25h-.02c-.43.83-1.42 1.55-2.69 1.55-1.76 0-3.38-1.1-3.38-4.23 0-2.79 1.47-4.31 3.55-4.31 1.36 0 2.18.75 2.53 1.54h.03v-1.33h1.38v8.23c0 2.37-1.55 3.39-3.84 3.39-1.59.02-3.24-.57-3.43-2.32zm5.91-5.52c0-1.68-.94-2.83-2.4-2.83-1.52 0-2.24 1.26-2.24 3.17 0 1.86.53 3.14 2.31 3.14 1.36 0 2.34-1.18 2.34-2.63v-.85zm3.79.45c0-2.61 1.44-4.42 3.79-4.42 2.51 0 3.76 1.81 3.76 4.42 0 2.64-1.42 4.43-3.79 4.43-2.48 0-3.76-1.79-3.76-4.43zm1.49 0c0 2.06.69 3.31 2.32 3.31 1.57 0 2.26-1.25 2.26-3.31 0-2.05-.67-3.31-2.29-3.31-1.54 0-2.29 1.26-2.29 3.31zm11.93-4.21h1.47l1.63 5.68c.14.53.27 1.07.27 1.07h.03s.16-.56.32-1.06l1.79-5.7h1.47l1.78 5.7c.16.5.3 1.06.3 1.06h.03s.13-.56.27-1.06l1.67-5.7h1.39l-2.61 8.44h-1.52l-1.54-4.96c-.24-.78-.53-1.79-.53-1.79h-.02s-.29 1.02-.53 1.79l-1.55 4.96h-1.52l-2.6-8.43zm14.5-3.47h1.52v1.55h-1.52v-1.55zm.03 3.47h1.46v8.44h-1.46v-8.44zm6.4-2.45v2.45h2.08v1.1h-2.08v4.98c0 .9.37 1.25 1.28 1.25.43 0 .93-.08.93-.08v1.22s-.59.1-1.33.1c-1.65 0-2.31-.8-2.31-2.24v-5.22h-1.54v-1.06h.26c1.14 0 1.39-.27 1.39-1.89v-.61h1.32zm9.55 5.67c0-.61 0-1.26-.3-1.66-.29-.4-.77-.56-1.33-.56-1.57 0-2.29 1.01-2.29 2.38v5.06h-1.44V23.48h1.44v5.57h.03c.37-.82 1.26-1.6 2.64-1.6 1.62 0 2.69.77 2.69 2.77v5.87h-1.44v-5.21zm4.5-6.69h1.52v1.55h-1.52v-1.55zm.03 3.47h1.46v8.44h-1.46v-8.44zm9.99 3.23c0-.61 0-1.28-.3-1.68-.29-.4-.77-.56-1.33-.56-1.57 0-2.29 1.01-2.29 2.38v5.06h-1.44v-8.44h1.36v1.42h.03c.4-.86 1.38-1.63 2.72-1.63 1.62 0 2.69.77 2.69 2.77v5.87h-1.44v-5.19zm10.81-5.68v2.45h2.08v1.1h-2.08v4.98c0 .9.37 1.25 1.28 1.25.43 0 .93-.08.93-.08v1.22s-.59.1-1.33.1c-1.65 0-2.31-.8-2.31-2.24v-5.22h-1.54v-1.06h.26c1.14 0 1.39-.27 1.39-1.89v-.61h1.32zm9.55 5.67c0-.61 0-1.26-.3-1.66-.29-.4-.77-.56-1.33-.56-1.57 0-2.29 1.01-2.29 2.38v5.06h-1.44V23.48h1.44v5.57h.03c.37-.82 1.26-1.6 2.64-1.6 1.62 0 2.69.77 2.69 2.77v5.87h-1.44v-5.21zm7.59 5.42c-2.58 0-3.81-1.87-3.81-4.39 0-2.5 1.34-4.47 3.76-4.47 2.53 0 3.52 1.95 3.52 4.08v.74h-5.81c.1 1.74.8 2.93 2.38 2.93 1.41 0 1.78-.82 1.92-1.31h1.39c-.3 1.46-1.55 2.42-3.35 2.42zm2-5.26c-.03-1.41-.59-2.5-2.06-2.5-1.34 0-2.08 1.06-2.26 2.59h4.32v-.09zm13.37-.83c-.1-.86-.7-1.65-1.92-1.65-1.52 0-2.32 1.33-2.32 3.3 0 1.95.59 3.31 2.29 3.31 1.6 0 2.02-1.18 2.07-1.82H224c-.21 1.95-1.6 2.95-3.42 2.95-2.43 0-3.75-1.7-3.75-4.37 0-2.58 1.41-4.47 3.78-4.47 1.68 0 3.2.77 3.34 2.75h-1.41zm3.78-2.55h1.36v1.58h.03c.38-.88 1.44-1.75 2.67-1.75h.14V29h-.27c-1.5 0-2.5.86-2.5 2.5v4.59h-1.44v-8.43zm5.5 4.21c0-2.61 1.44-4.42 3.79-4.42 2.51 0 3.76 1.81 3.76 4.42 0 2.64-1.42 4.43-3.79 4.43-2.48 0-3.76-1.79-3.76-4.43zm1.49 0c0 2.06.69 3.31 2.32 3.31 1.57 0 2.26-1.25 2.26-3.31 0-2.05-.67-3.31-2.29-3.31-1.54 0-2.29 1.26-2.29 3.31zm8.49-4.21h1.39v1.41h.03c.5-.9 1.41-1.62 2.69-1.62 1.79 0 3.39 1.1 3.39 4.31 0 3.07-1.58 4.55-3.49 4.55-1.23 0-2.23-.69-2.54-1.44h-.03v4.24h-1.44V27.66zm3.81 7.51c1.5 0 2.24-1.2 2.24-3.41 0-1.79-.53-3.15-2.26-3.15-1.49 0-2.4 1.26-2.4 2.69v.9c.01 1.65.82 2.97 2.42 2.97zm6.13-7.51h1.39v1.41h.03c.5-.9 1.41-1.62 2.69-1.62 1.79 0 3.39 1.1 3.39 4.31 0 3.07-1.58 4.55-3.49 4.55-1.23 0-2.23-.69-2.54-1.44h-.03v4.24h-1.44V27.66zm3.81 7.51c1.5 0 2.24-1.2 2.24-3.41 0-1.79-.53-3.15-2.26-3.15-1.49 0-2.4 1.26-2.4 2.69v.9c0 1.65.82 2.97 2.42 2.97zm6.09-10.98h1.52v1.55h-1.52v-1.55zm.04 3.47h1.46v8.44h-1.46v-8.44zm9.98 3.23c0-.61 0-1.28-.3-1.68-.29-.4-.77-.56-1.33-.56-1.57 0-2.29 1.01-2.29 2.38v5.06h-1.44v-8.44h1.36v1.42h.03c.4-.86 1.38-1.63 2.72-1.63 1.62 0 2.69.77 2.69 2.77v5.87h-1.44v-5.19zm3.98 6.05h1.39c.16.72.71 1.18 2.08 1.18 1.6 0 2.4-.59 2.4-2.45v-1.25h-.02c-.43.83-1.42 1.55-2.69 1.55-1.76 0-3.38-1.1-3.38-4.23 0-2.79 1.47-4.31 3.55-4.31 1.36 0 2.18.75 2.53 1.54h.03v-1.33h1.38v8.23c0 2.37-1.55 3.39-3.84 3.39-1.59.02-3.24-.57-3.43-2.32zm5.91-5.52c0-1.68-.94-2.83-2.4-2.83-1.52 0-2.24 1.26-2.24 3.17 0 1.86.53 3.14 2.31 3.14 1.36 0 2.34-1.18 2.34-2.63v-.85zm8.51 5.52h1.39c.16.72.71 1.18 2.08 1.18 1.6 0 2.4-.59 2.4-2.45v-1.25h-.02c-.43.83-1.42 1.55-2.69 1.55-1.76 0-3.38-1.1-3.38-4.23 0-2.79 1.47-4.31 3.55-4.31 1.36 0 2.18.75 2.53 1.54h.03v-1.33h1.38v8.23c0 2.37-1.55 3.39-3.84 3.39-1.59.02-3.24-.57-3.43-2.32zm5.9-5.52c0-1.68-.94-2.83-2.4-2.83-1.52 0-2.24 1.26-2.24 3.17 0 1.86.53 3.14 2.31 3.14 1.36 0 2.34-1.18 2.34-2.63v-.85zm5.86 1.43c0 .61 0 1.31.3 1.71.29.38.74.56 1.3.56 1.57 0 2.3-1.04 2.3-2.9v-4.56h1.44v8.44h-1.38v-1.44h-.03c-.38.86-1.31 1.65-2.66 1.65-1.62 0-2.71-.78-2.71-2.77v-5.87h1.42v5.18zm8.46-8.66h1.52v1.55h-1.52v-1.55zm.03 3.47h1.46v8.44h-1.46v-8.44zm11.4 8.44h-1.38v-1.4h-.05c-.45.83-1.36 1.6-2.66 1.6-1.79 0-3.44-1.12-3.44-4.37 0-2.9 1.5-4.48 3.63-4.48 1.26 0 2.08.7 2.42 1.49h.03v-5.46h1.44V36.1zm-1.41-4.55c0-1.79-.94-2.95-2.29-2.95-1.62 0-2.35 1.28-2.35 3.27 0 1.9.56 3.3 2.24 3.3 1.49 0 2.4-1.18 2.4-2.72v-.9zm7.63 4.75c-2.58 0-3.81-1.87-3.81-4.39 0-2.5 1.34-4.47 3.76-4.47 2.53 0 3.52 1.95 3.52 4.08v.74h-5.81c.1 1.74.8 2.93 2.38 2.93 1.41 0 1.78-.82 1.92-1.31h1.39c-.29 1.46-1.54 2.42-3.35 2.42zm2-5.26c-.03-1.41-.59-2.5-2.06-2.5-1.34 0-2.08 1.06-2.26 2.59h4.32v-.09zm8.07-1.27c-.08-.75-.69-1.23-1.68-1.23s-1.65.58-1.65 1.36c0 .69.42 1.01 1.26 1.15l1.3.19c1.76.27 2.4.99 2.4 2.45 0 1.7-1.38 2.61-3.3 2.61-1.75 0-3.19-.78-3.3-2.59h1.41c.06.66.43 1.49 1.92 1.49 1.15 0 1.87-.54 1.87-1.42 0-.67-.18-1.04-1.33-1.23l-1.3-.19c-1.5-.24-2.3-.86-2.3-2.34 0-1.49 1.14-2.56 3.06-2.56 1.83 0 2.87.85 3.01 2.32H338zm3.55 4.37h1.95v1.95h-1.95v-1.95zM1.6 60.21h4.45v1.3H1.6v-1.3zm16.64-6.54c2.98 0 5.52 1.95 5.52 6.34 0 4.37-2.53 6.34-5.52 6.34-3.01 0-5.47-1.97-5.47-6.34 0-4.38 2.56-6.34 5.47-6.34zm3.96 6.36c0-3.36-1.6-5.17-3.95-5.17-2.29 0-3.91 1.71-3.91 5.17 0 3.35 1.57 5.12 3.91 5.12 2.3 0 3.95-1.82 3.95-5.12zm5.71 2.82c0 .61 0 1.31.3 1.71.29.38.74.56 1.3.56 1.57 0 2.3-1.04 2.3-2.9v-4.56h1.44v8.44h-1.38v-1.44h-.03c-.38.86-1.31 1.65-2.66 1.65-1.62 0-2.71-.78-2.71-2.77v-5.88h1.42v5.19zm10.27-7.64v2.45h2.08v1.1h-2.08v4.98c0 .9.37 1.25 1.28 1.25.43 0 .93-.08.93-.08v1.22s-.59.1-1.33.1c-1.65 0-2.31-.8-2.31-2.24v-5.22h-1.54v-1.06h.26c1.14 0 1.39-.27 1.39-1.89v-.61h1.32zm4.19-1.73h1.44V66.1h-1.44V53.48zm4.56.71h1.52v1.55h-1.52v-1.55zm.03 3.47h1.46v8.44h-1.46v-8.44zm9.99 3.23c0-.61 0-1.28-.3-1.68-.29-.4-.77-.56-1.33-.56-1.57 0-2.29 1.01-2.29 2.39v5.06h-1.44v-8.44h1.36v1.42h.03c.4-.86 1.38-1.63 2.72-1.63 1.62 0 2.69.77 2.69 2.77v5.87h-1.44v-5.2zm7.58 5.41c-2.58 0-3.81-1.87-3.81-4.39 0-2.5 1.34-4.47 3.76-4.47 2.53 0 3.52 1.95 3.52 4.08v.74h-5.81c.1 1.74.8 2.93 2.39 2.93 1.41 0 1.78-.82 1.92-1.31h1.39c-.3 1.46-1.55 2.42-3.36 2.42zm2-5.26c-.03-1.41-.59-2.5-2.06-2.5-1.34 0-2.08 1.06-2.26 2.59h4.32v-.09zm8.09-1.08c.03-1.49 1.17-2.51 3.19-2.51 2.1 0 3.12.88 3.12 3.14v3.44c0 .67.14.94.77.96v1.17h-.18c-1.34 0-1.79-.48-1.94-1.49h-.03c-.45.99-1.46 1.57-2.71 1.57-1.68 0-2.67-.91-2.67-2.42 0-.93.4-1.7 1.26-2.13.88-.46 2.19-.63 4.08-.69v-.37c0-1.52-.58-2.11-1.76-2.11-1.25 0-1.71.72-1.76 1.44h-1.37zm4.9 2.31v-.19c-1.82.08-2.86.22-3.41.62-.32.24-.46.59-.46 1.04 0 .86.56 1.33 1.47 1.33 1.07 0 2.4-.72 2.4-2.8zm4.43-8.79h1.44V66.1h-1.44V53.48zm4.59 0h1.44V66.1h-1.44V53.48zM99.42 66.1h-1.44v-7.33h-1.54v-1.1h1.54v-1.89c0-1.73.99-2.34 2.56-2.34.32 0 .64.03.9.08v1.18c-.16-.03-.42-.06-.78-.06-.83 0-1.23.3-1.23 1.31v1.71h2.02v1.1h-2.02v7.34zm3.2-4.23c0-2.61 1.44-4.42 3.79-4.42 2.51 0 3.76 1.81 3.76 4.42 0 2.64-1.42 4.43-3.79 4.43-2.48 0-3.76-1.79-3.76-4.43zm1.49 0c0 2.06.69 3.31 2.32 3.31 1.57 0 2.26-1.25 2.26-3.31 0-2.05-.67-3.31-2.29-3.31-1.54 0-2.29 1.26-2.29 3.31zm13.86-.98c0-.61 0-1.28-.3-1.68-.29-.4-.77-.56-1.33-.56-1.57 0-2.29 1.01-2.29 2.39v5.06h-1.44v-8.44h1.36v1.42h.03c.4-.86 1.38-1.63 2.72-1.63 1.62 0 2.69.77 2.69 2.77v5.87h-1.44v-5.2zm6.3-5.68v2.45h2.08v1.1h-2.08v4.98c0 .9.37 1.25 1.28 1.25.43 0 .93-.08.93-.08v1.22s-.59.1-1.33.1c-1.65 0-2.31-.8-2.31-2.24v-5.22h-1.54v-1.06h.26c1.14 0 1.39-.27 1.39-1.89v-.61h1.32zm8.43 4.56c-.08-.75-.69-1.23-1.68-1.23s-1.65.58-1.65 1.36c0 .69.42 1.01 1.26 1.15l1.3.19c1.76.27 2.4.99 2.4 2.45 0 1.7-1.38 2.61-3.3 2.61-1.75 0-3.19-.78-3.3-2.59h1.41c.06.66.43 1.49 1.92 1.49 1.15 0 1.87-.54 1.87-1.42 0-.67-.18-1.04-1.33-1.23l-1.3-.19c-1.5-.24-2.3-.86-2.3-2.34 0-1.49 1.14-2.56 3.06-2.56 1.83 0 2.87.85 3.01 2.32h-1.37zm9.95 3.08c0 .61 0 1.31.3 1.71.29.38.74.56 1.3.56 1.57 0 2.3-1.04 2.3-2.9v-4.56H148v8.44h-1.38v-1.44h-.03c-.38.86-1.31 1.65-2.66 1.65-1.62 0-2.71-.78-2.71-2.77v-5.88h1.42v5.19zm12.66-3.08c-.08-.75-.69-1.23-1.68-1.23s-1.65.58-1.65 1.36c0 .69.42 1.01 1.26 1.15l1.3.19c1.76.27 2.4.99 2.4 2.45 0 1.7-1.38 2.61-3.3 2.61-1.75 0-3.19-.78-3.3-2.59h1.41c.06.66.43 1.49 1.92 1.49 1.15 0 1.87-.54 1.87-1.42 0-.67-.18-1.04-1.33-1.23l-1.3-.19c-1.5-.24-2.3-.86-2.3-2.34 0-1.49 1.14-2.56 3.06-2.56 1.83 0 2.87.85 3.01 2.32h-1.37zm7.18 6.53c-2.58 0-3.81-1.87-3.81-4.39 0-2.5 1.34-4.47 3.76-4.47 2.53 0 3.52 1.95 3.52 4.08v.74h-5.81c.1 1.74.8 2.93 2.39 2.93 1.41 0 1.78-.82 1.92-1.31h1.39c-.3 1.46-1.55 2.42-3.36 2.42zm2.01-5.26c-.03-1.41-.59-2.5-2.06-2.5-1.34 0-2.08 1.06-2.26 2.59h4.32v-.09zm10.75 5.06h-1.38v-1.4h-.05c-.45.83-1.36 1.6-2.66 1.6-1.79 0-3.44-1.12-3.44-4.37 0-2.9 1.5-4.48 3.63-4.48 1.26 0 2.08.7 2.42 1.49h.03v-5.46h1.44V66.1zm-1.41-4.55c0-1.79-.94-2.95-2.29-2.95-1.62 0-2.35 1.28-2.35 3.27 0 1.9.56 3.3 2.24 3.3 1.49 0 2.4-1.18 2.4-2.72v-.9zm9.05-7.36h1.52v1.55h-1.52v-1.55zm.03 3.47h1.46v8.44h-1.46v-8.44zm9.99 3.23c0-.61 0-1.28-.3-1.68-.29-.4-.77-.56-1.33-.56-1.57 0-2.29 1.01-2.29 2.39v5.06h-1.44v-8.44h1.36v1.42h.03c.4-.86 1.38-1.63 2.72-1.63 1.62 0 2.69.77 2.69 2.77v5.87h-1.44v-5.2zm8.14-3.23h1.44l1.76 5.28c.27.8.42 1.31.42 1.31h.05s.14-.51.42-1.33l1.73-5.27h1.44l-3.07 8.96c-.67 1.94-1.23 2.66-3.06 2.66-.32 0-.64-.05-.86-.1V68c.27.06.59.08.74.08 1.07 0 1.42-.4 1.79-1.54l.15-.44-2.95-8.44zm8.54 4.21c0-2.61 1.44-4.42 3.79-4.42 2.51 0 3.76 1.81 3.76 4.42 0 2.64-1.42 4.43-3.79 4.43-2.47 0-3.76-1.79-3.76-4.43zm1.49 0c0 2.06.69 3.31 2.32 3.31 1.57 0 2.26-1.25 2.26-3.31 0-2.05-.67-3.31-2.29-3.31-1.53 0-2.29 1.26-2.29 3.31zm9.89.98c0 .61 0 1.31.3 1.71.29.38.74.56 1.3.56 1.57 0 2.3-1.04 2.3-2.9v-4.56h1.44v8.44h-1.38v-1.44h-.03c-.38.86-1.31 1.65-2.66 1.65-1.62 0-2.71-.78-2.71-2.77v-5.88h1.42v5.19zm8.5-5.19h1.36v1.58h.03c.38-.88 1.44-1.75 2.67-1.75h.14V59h-.27c-1.5 0-2.5.86-2.5 2.5v4.59h-1.44v-8.43zm17.7 8.44h-1.38v-1.4h-.05c-.45.83-1.36 1.6-2.66 1.6-1.79 0-3.44-1.12-3.44-4.37 0-2.9 1.5-4.48 3.63-4.48 1.26 0 2.08.7 2.42 1.49h.03v-5.46h1.44V66.1zm-1.41-4.55c0-1.79-.94-2.95-2.29-2.95-1.62 0-2.35 1.28-2.35 3.27 0 1.9.56 3.3 2.24 3.3 1.49 0 2.4-1.18 2.4-2.72v-.9zm7.63 4.75c-2.58 0-3.81-1.87-3.81-4.39 0-2.5 1.34-4.47 3.76-4.47 2.53 0 3.52 1.95 3.52 4.08v.74h-5.81c.1 1.74.8 2.93 2.38 2.93 1.41 0 1.78-.82 1.92-1.31h1.39c-.29 1.46-1.54 2.42-3.35 2.42zm2-5.26c-.03-1.41-.59-2.5-2.06-2.5-1.34 0-2.08 1.06-2.26 2.59h4.32v-.09zm8.06-1.27c-.08-.75-.69-1.23-1.68-1.23s-1.65.58-1.65 1.36c0 .69.42 1.01 1.26 1.15l1.3.19c1.76.27 2.4.99 2.4 2.45 0 1.7-1.38 2.61-3.3 2.61-1.75 0-3.19-.78-3.3-2.59h1.41c.06.66.43 1.49 1.92 1.49 1.15 0 1.87-.54 1.87-1.42 0-.67-.18-1.04-1.33-1.23l-1.3-.19c-1.5-.24-2.3-.86-2.3-2.34 0-1.49 1.14-2.56 3.06-2.56 1.83 0 2.87.85 3.01 2.32h-1.37zm4.1-5.58h1.52v1.55h-1.52v-1.55zm.03 3.47h1.46v8.44h-1.46v-8.44zm4.08 9.28h1.39c.16.72.71 1.18 2.08 1.18 1.6 0 2.4-.59 2.4-2.45v-1.25h-.02c-.43.83-1.42 1.55-2.69 1.55-1.76 0-3.38-1.1-3.38-4.23 0-2.79 1.47-4.31 3.55-4.31 1.36 0 2.18.75 2.53 1.54h.03v-1.33h1.38v8.23c0 2.37-1.55 3.39-3.84 3.39-1.59.02-3.24-.57-3.43-2.32zm5.9-5.52c0-1.68-.94-2.83-2.4-2.83-1.52 0-2.24 1.26-2.24 3.17 0 1.86.53 3.14 2.31 3.14 1.36 0 2.34-1.18 2.34-2.63v-.85zm9.91-.53c0-.61 0-1.28-.3-1.68-.29-.4-.77-.56-1.33-.56-1.57 0-2.29 1.01-2.29 2.39v5.06h-1.44v-8.44h1.36v1.42h.03c.4-.86 1.38-1.63 2.72-1.63 1.62 0 2.69.77 2.69 2.77v5.87h-1.44v-5.2zm3.95 3.25h1.95v1.95h-1.95v-1.95zM1.6 90.21h4.45v1.3H1.6v-1.3zm11.75-6.36h7.83v1.33h-6.34v4.08h5.83v1.3h-5.83v4.21h6.42v1.33h-7.91V83.85zm12.51 7.89l-2.67-4.08h1.7l1.84 2.95h.03l1.89-2.95h1.57l-2.66 4 2.93 4.43h-1.71l-2.1-3.3h-.05l-2.08 3.3h-1.57l2.88-4.35zm6.51-4.08h1.39v1.41h.03c.5-.9 1.41-1.62 2.69-1.62 1.79 0 3.39 1.1 3.39 4.31 0 3.07-1.58 4.55-3.49 4.55-1.23 0-2.23-.69-2.54-1.44h-.03v4.24h-1.44V87.66zm3.81 7.51c1.5 0 2.24-1.2 2.24-3.41 0-1.79-.53-3.15-2.26-3.15-1.49 0-2.4 1.26-2.4 2.69v.9c0 1.65.82 2.97 2.42 2.97zm5.53-3.3c0-2.61 1.44-4.42 3.79-4.42 2.51 0 3.76 1.81 3.76 4.42 0 2.64-1.42 4.43-3.79 4.43-2.48 0-3.76-1.79-3.76-4.43zm1.49 0c0 2.06.69 3.31 2.32 3.31 1.57 0 2.26-1.25 2.26-3.31 0-2.05-.67-3.31-2.29-3.31-1.54 0-2.29 1.26-2.29 3.31zm8.5-4.21h1.36v1.58h.03c.38-.88 1.44-1.75 2.67-1.75h.14V89h-.27c-1.5 0-2.5.86-2.5 2.5v4.59H51.7v-8.43zm8.43-2.45v2.45h2.08v1.1h-2.08v4.98c0 .9.37 1.25 1.28 1.25.43 0 .93-.08.93-.08v1.22s-.59.1-1.33.1c-1.65 0-2.31-.8-2.31-2.24v-5.22h-1.54v-1.06h.26c1.14 0 1.39-.27 1.39-1.89v-.61h1.32zm8.38 4.75c.03-1.49 1.17-2.51 3.19-2.51 2.1 0 3.12.88 3.12 3.14v3.44c0 .67.14.94.77.96v1.17h-.18c-1.34 0-1.79-.48-1.94-1.49h-.03c-.45.99-1.46 1.57-2.71 1.57-1.68 0-2.67-.91-2.67-2.42 0-.93.4-1.7 1.26-2.13.88-.46 2.19-.63 4.08-.69v-.37c0-1.52-.58-2.11-1.76-2.11-1.25 0-1.71.72-1.76 1.44h-1.37zm4.9 2.31v-.19c-1.82.08-2.86.22-3.41.62-.32.24-.46.59-.46 1.04 0 .86.56 1.33 1.47 1.33 1.07 0 2.4-.72 2.4-2.8zm9.79-1.38c0-.61 0-1.28-.3-1.68-.29-.4-.77-.56-1.33-.56-1.57 0-2.29 1.01-2.29 2.39v5.06h-1.44v-8.44h1.36v1.42h.03c.4-.86 1.38-1.63 2.72-1.63 1.62 0 2.69.77 2.69 2.77v5.87H83.2v-5.2zm11.3 5.21h-1.38v-1.4h-.05c-.45.83-1.36 1.6-2.66 1.6-1.79 0-3.44-1.12-3.44-4.37 0-2.9 1.5-4.48 3.63-4.48 1.26 0 2.08.7 2.42 1.49h.03v-5.46h1.44V96.1zm-1.41-4.55c0-1.79-.94-2.95-2.29-2.95-1.62 0-2.35 1.28-2.35 3.27 0 1.9.56 3.3 2.24 3.3 1.49 0 2.4-1.18 2.4-2.72v-.9zm13.25-1.78c-.08-.75-.69-1.23-1.68-1.23s-1.65.58-1.65 1.36c0 .69.42 1.01 1.26 1.15l1.3.19c1.76.27 2.4.99 2.4 2.45 0 1.7-1.38 2.61-3.3 2.61-1.75 0-3.19-.78-3.3-2.59h1.41c.06.66.43 1.49 1.92 1.49 1.15 0 1.87-.54 1.87-1.42 0-.67-.18-1.04-1.33-1.23l-1.3-.19c-1.5-.24-2.3-.86-2.3-2.34 0-1.49 1.14-2.56 3.06-2.56 1.83 0 2.87.85 3.01 2.32h-1.37zm5.36 3.08c0 .61 0 1.31.3 1.71.29.38.74.56 1.3.56 1.57 0 2.3-1.04 2.3-2.9v-4.56h1.44v8.44h-1.38v-1.44h-.03c-.38.86-1.31 1.65-2.66 1.65-1.62 0-2.71-.78-2.71-2.77v-5.88h1.42v5.19zm8.49-9.37h1.44v5.57h.02c.46-.91 1.39-1.6 2.66-1.6 1.79 0 3.39 1.1 3.39 4.31 0 3.07-1.57 4.55-3.47 4.55-1.33 0-2.21-.74-2.64-1.55h-.03v1.34h-1.36V83.48zm6.05 8.28c0-1.79-.53-3.15-2.26-3.15-1.52 0-2.4 1.26-2.4 2.69v.9c0 1.66.82 2.98 2.42 2.98 1.5-.01 2.24-1.21 2.24-3.42zm3.89-4.1h1.36v1.42h.03c.38-.86 1.36-1.63 2.71-1.63 1.28 0 2.24.58 2.54 1.75h.03c.32-.88 1.36-1.75 2.75-1.75 1.58 0 2.67.77 2.67 2.77v5.87h-1.44v-5.22c0-.61 0-1.26-.3-1.68-.29-.4-.75-.54-1.31-.54-1.57 0-2.27 1.01-2.27 2.39v5.06h-1.44v-5.22c0-.61 0-1.25-.3-1.67-.29-.4-.75-.56-1.31-.56-1.57 0-2.27 1.01-2.27 2.35v5.09h-1.44v-8.43zm15.15-3.47h1.52v1.55h-1.52v-1.55zm.03 3.47h1.46v8.44h-1.46v-8.44zm6.4-2.45v2.45h2.08v1.1h-2.08v4.98c0 .9.37 1.25 1.28 1.25.43 0 .93-.08.93-.08v1.22s-.59.1-1.33.1c-1.65 0-2.31-.8-2.31-2.24v-5.22h-1.54v-1.06h.26c1.14 0 1.39-.27 1.39-1.89v-.61h1.32zm8.7-1.73h1.44V96.1h-1.44V83.48zm3.84 8.39c0-2.61 1.44-4.42 3.79-4.42 2.51 0 3.76 1.81 3.76 4.42 0 2.64-1.42 4.43-3.79 4.43-2.48 0-3.76-1.79-3.76-4.43zm1.49 0c0 2.06.69 3.31 2.32 3.31 1.57 0 2.26-1.25 2.26-3.31 0-2.05-.67-3.31-2.29-3.31-1.54 0-2.29 1.26-2.29 3.31zm8.11 5.07h1.39c.16.72.71 1.18 2.08 1.18 1.6 0 2.4-.59 2.4-2.45v-1.25h-.02c-.43.83-1.42 1.55-2.69 1.55-1.76 0-3.38-1.1-3.38-4.23 0-2.79 1.47-4.31 3.55-4.31 1.36 0 2.18.75 2.53 1.54h.03v-1.33h1.38v8.23c0 2.37-1.55 3.39-3.84 3.39-1.59.02-3.24-.57-3.43-2.32zm5.91-5.52c0-1.68-.94-2.83-2.4-2.83-1.52 0-2.24 1.26-2.24 3.17 0 1.86.53 3.14 2.31 3.14 1.36 0 2.34-1.18 2.34-2.63v-.85zm3.79.45c0-2.61 1.44-4.42 3.79-4.42 2.51 0 3.76 1.81 3.76 4.42 0 2.64-1.42 4.43-3.79 4.43-2.48 0-3.76-1.79-3.76-4.43zm1.49 0c0 2.06.69 3.31 2.32 3.31 1.57 0 2.26-1.25 2.26-3.31 0-2.05-.67-3.31-2.29-3.31-1.54 0-2.29 1.26-2.29 3.31zm12.73-2.1c-.08-.75-.69-1.23-1.68-1.23s-1.65.58-1.65 1.36c0 .69.42 1.01 1.26 1.15l1.3.19c1.76.27 2.4.99 2.4 2.45 0 1.7-1.38 2.61-3.3 2.61-1.75 0-3.19-.78-3.3-2.59h1.41c.06.66.43 1.49 1.92 1.49 1.15 0 1.87-.54 1.87-1.42 0-.67-.18-1.04-1.33-1.23l-1.3-.19c-1.5-.24-2.3-.86-2.3-2.34 0-1.49 1.14-2.56 3.06-2.56 1.83 0 2.87.85 3.01 2.32h-1.37zm8.24.19c.03-1.49 1.17-2.51 3.19-2.51 2.1 0 3.12.88 3.12 3.14v3.44c0 .67.14.94.77.96v1.17h-.18c-1.34 0-1.79-.48-1.94-1.49h-.03c-.45.99-1.46 1.57-2.71 1.57-1.68 0-2.67-.91-2.67-2.42 0-.93.4-1.7 1.26-2.13.88-.46 2.19-.63 4.08-.69v-.37c0-1.52-.58-2.11-1.76-2.11-1.25 0-1.71.72-1.76 1.44h-1.37zm4.9 2.31v-.19c-1.82.08-2.86.22-3.41.62-.32.24-.46.59-.46 1.04 0 .86.56 1.33 1.47 1.33 1.07 0 2.4-.72 2.4-2.8zm6.21-7.06v2.45h2.08v1.1h-2.08v4.98c0 .9.37 1.25 1.28 1.25.43 0 .93-.08.93-.08v1.22s-.59.1-1.33.1c-1.65 0-2.31-.8-2.31-2.24v-5.22h-1.54v-1.06h.26c1.14 0 1.39-.27 1.39-1.89v-.61h1.32zm10.48 2.15h-2.37v-1.02h.35c.8 0 1.38-.21 1.74-.58.35-.35.51-.83.53-1.57h1.2V96.1h-1.46v-8.74zm8.99-3.3c2.59 0 4.27 2.02 4.27 6.15 0 4.11-1.67 6.15-4.27 6.15-2.63 0-4.24-2.03-4.24-6.15 0-4.13 1.68-6.15 4.24-6.15zm2.72 6.18c0-3.3-1.02-4.98-2.72-4.98-1.66 0-2.69 1.6-2.69 4.98 0 3.28.99 4.93 2.69 4.93 1.66 0 2.72-1.71 2.72-4.93zm8.24-6.18c2.59 0 4.27 2.02 4.27 6.15 0 4.11-1.67 6.15-4.27 6.15-2.63 0-4.24-2.03-4.24-6.15 0-4.13 1.68-6.15 4.24-6.15zm2.72 6.18c0-3.3-1.02-4.98-2.72-4.98-1.66 0-2.69 1.6-2.69 4.98 0 3.28.99 4.93 2.69 4.93 1.66 0 2.72-1.71 2.72-4.93zm8.24-6.18c2.59 0 4.27 2.02 4.27 6.15 0 4.11-1.67 6.15-4.27 6.15-2.63 0-4.24-2.03-4.24-6.15 0-4.13 1.68-6.15 4.24-6.15zm2.72 6.18c0-3.3-1.02-4.98-2.72-4.98-1.66 0-2.69 1.6-2.69 4.98 0 3.28.99 4.93 2.69 4.93 1.66 0 2.72-1.71 2.72-4.93zm4.32-2.58h1.39v1.41h.03c.5-.9 1.41-1.62 2.69-1.62 1.79 0 3.39 1.1 3.39 4.31 0 3.07-1.58 4.55-3.49 4.55-1.23 0-2.23-.69-2.54-1.44h-.03v4.24h-1.44V87.66zm3.81 7.51c1.5 0 2.24-1.2 2.24-3.41 0-1.79-.53-3.15-2.26-3.15-1.49 0-2.4 1.26-2.4 2.69v.9c0 1.65.82 2.97 2.42 2.97zm7.64-3.43l-2.67-4.08h1.7l1.84 2.95h.03l1.89-2.95h1.57l-2.66 4 2.93 4.43h-1.71l-2.1-3.3h-.05l-2.08 3.3h-1.57l2.88-4.35zm15.27-1.97c-.08-.75-.69-1.23-1.68-1.23s-1.65.58-1.65 1.36c0 .69.42 1.01 1.26 1.15l1.3.19c1.76.27 2.4.99 2.4 2.45 0 1.7-1.38 2.61-3.3 2.61-1.75 0-3.19-.78-3.3-2.59h1.41c.06.66.43 1.49 1.92 1.49 1.15 0 1.87-.54 1.87-1.42 0-.67-.18-1.04-1.33-1.23l-1.3-.19c-1.5-.24-2.3-.86-2.3-2.34 0-1.49 1.14-2.56 3.06-2.56 1.83 0 2.87.85 3.01 2.32h-1.37zm10.9 9.33h-1.44v-4.29h-.05c-.4.75-1.3 1.49-2.59 1.49-1.79 0-3.44-1.09-3.44-4.37 0-2.9 1.5-4.48 3.63-4.48 1.26 0 2.11.7 2.45 1.49h.03v-1.28h1.41V99.1zm-1.41-6.65v-.9c0-1.79-.94-2.95-2.29-2.95-1.58 0-2.35 1.28-2.35 3.27 0 1.9.56 3.3 2.24 3.3 1.48 0 2.4-1.19 2.4-2.72zm5.88.4c0 .61 0 1.31.3 1.71.29.38.74.56 1.3.56 1.57 0 2.3-1.04 2.3-2.9v-4.56h1.44v8.44h-1.38v-1.44h-.03c-.38.86-1.31 1.65-2.66 1.65-1.62 0-2.71-.78-2.71-2.77v-5.88h1.42v5.19zm8.1-2.89c.03-1.49 1.17-2.51 3.19-2.51 2.1 0 3.12.88 3.12 3.14v3.44c0 .67.14.94.77.96v1.17h-.18c-1.34 0-1.79-.48-1.94-1.49h-.03c-.45.99-1.46 1.57-2.71 1.57-1.68 0-2.67-.91-2.67-2.42 0-.93.4-1.7 1.26-2.13.88-.46 2.19-.63 4.08-.69v-.37c0-1.52-.58-2.11-1.76-2.11-1.25 0-1.71.72-1.76 1.44h-1.37zm4.9 2.31v-.19c-1.82.08-2.86.22-3.41.62-.32.24-.46.59-.46 1.04 0 .86.56 1.33 1.47 1.33 1.07 0 2.4-.72 2.4-2.8zm4.43-4.61h1.36v1.58h.03c.38-.88 1.44-1.75 2.67-1.75h.14V89H329c-1.5 0-2.5.86-2.5 2.5v4.59h-1.44v-8.43zm9.31 8.64c-2.58 0-3.81-1.87-3.81-4.39 0-2.5 1.34-4.47 3.76-4.47 2.53 0 3.52 1.95 3.52 4.08v.74h-5.81c.1 1.74.8 2.93 2.38 2.93 1.41 0 1.78-.82 1.92-1.31h1.39c-.29 1.46-1.54 2.42-3.35 2.42zm2-5.26c-.03-1.41-.59-2.5-2.06-2.5-1.34 0-2.08 1.06-2.26 2.59h4.32v-.09zm10.19-5.83v2.45h2.08v1.1h-2.08v4.98c0 .9.37 1.25 1.28 1.25.43 0 .93-.08.93-.08v1.22s-.59.1-1.33.1c-1.65 0-2.31-.8-2.31-2.24v-5.22h-1.54v-1.06h.26c1.14 0 1.39-.27 1.39-1.89v-.61h1.32zm3.6 6.66c0-2.61 1.44-4.42 3.79-4.42 2.51 0 3.76 1.81 3.76 4.42 0 2.64-1.42 4.43-3.79 4.43-2.48 0-3.76-1.79-3.76-4.43zm1.49 0c0 2.06.69 3.31 2.32 3.31 1.57 0 2.26-1.25 2.26-3.31 0-2.05-.67-3.31-2.29-3.31-1.54 0-2.29 1.26-2.29 3.31zm8.17-4.21h1.97v1.97h-1.97v-1.97zm0 8.44v-1.97h1.97v1.97h-1.97zM19.65 120.21h4.45v1.3h-4.45v-1.3zm10.49 5.93v-1.26h.34c2.56 0 2.99-.67 2.99-2.48v-8.55h1.49v8.68c0 2.64-1.44 3.62-4.15 3.62h-.67zm9.69-4.72v4.67h-1.49v-12.25h3.68c2.37 0 4.21 1.12 4.21 3.76 0 2.59-1.82 3.81-4.34 3.81h-2.06zm2.06-1.2c1.78 0 2.8-.86 2.8-2.61 0-1.83-1.02-2.56-2.75-2.56h-2.11v5.17h2.06zm7.82-.14c0 3.25 1.38 5.06 3.86 5.06 2.32 0 3.7-1.33 3.7-3.73v-.18h-3.54v-1.31h4.99v6.18h-1.3v-1.76h-.06c-.58 1.07-1.84 2.02-3.83 2.02-3.09 0-5.39-2.02-5.39-6.32 0-4 2.42-6.35 5.59-6.35 2.51 0 4.32 1.26 4.63 3.42H56.8c-.21-1.39-1.47-2.24-3.07-2.24-2.66-.01-4.02 2.07-4.02 5.21zm12.1 4.05h1.79l-1.3 3.84h-1.04l.55-3.84zm10.14-2.71v4.67h-1.49v-12.25h3.68c2.37 0 4.21 1.12 4.21 3.76 0 2.59-1.82 3.81-4.34 3.81h-2.06zm2.07-1.2c1.78 0 2.8-.86 2.8-2.61 0-1.83-1.02-2.56-2.75-2.56h-2.11v5.17h2.06zm6.83-6.37h1.9l5.44 9.11c.42.67.62 1.2.62 1.2h.05v-10.31h1.41v12.25h-1.91l-5.42-9.1c-.48-.8-.64-1.18-.64-1.18h-.03v10.28h-1.42v-12.25zm13.87 6.23c0 3.25 1.38 5.06 3.86 5.06 2.32 0 3.7-1.33 3.7-3.73v-.18h-3.54v-1.31h4.99v6.18h-1.3v-1.76h-.06c-.58 1.07-1.84 2.02-3.83 2.02-3.09 0-5.39-2.02-5.39-6.32 0-4 2.42-6.35 5.59-6.35 2.51 0 4.32 1.26 4.63 3.42h-1.55c-.21-1.39-1.47-2.24-3.07-2.24-2.67-.01-4.03 2.07-4.03 5.21zm12.02-2.42h1.97v1.97h-1.97v-1.97zm0 8.44v-1.97h1.97v1.97h-1.97zm13.23-6.33c-.08-.75-.69-1.23-1.68-1.23s-1.65.58-1.65 1.36c0 .69.42 1.01 1.26 1.15l1.3.19c1.76.27 2.4.99 2.4 2.45 0 1.7-1.38 2.61-3.3 2.61-1.75 0-3.19-.78-3.3-2.59h1.41c.06.66.43 1.49 1.92 1.49 1.15 0 1.87-.54 1.87-1.42 0-.67-.18-1.04-1.33-1.23l-1.3-.19c-1.5-.24-2.3-.86-2.3-2.34 0-1.49 1.14-2.56 3.06-2.56 1.83 0 2.87.85 3.01 2.32h-1.37zm7.18 6.53c-2.58 0-3.81-1.87-3.81-4.39 0-2.5 1.34-4.47 3.76-4.47 2.53 0 3.52 1.95 3.52 4.08v.74h-5.81c.1 1.74.8 2.93 2.38 2.93 1.41 0 1.78-.82 1.92-1.31h1.39c-.29 1.46-1.54 2.42-3.35 2.42zm2-5.26c-.03-1.41-.59-2.5-2.06-2.5-1.34 0-2.08 1.06-2.26 2.59h4.32v-.09zm5.68-5.83v2.45h2.08v1.1h-2.08v4.98c0 .9.37 1.25 1.28 1.25.43 0 .93-.08.93-.08v1.22s-.59.1-1.33.1c-1.65 0-2.31-.8-2.31-2.24v-5.22h-1.54v-1.06h.26c1.14 0 1.39-.27 1.39-1.89v-.61h1.32zm10.48 0v2.45h2.08v1.1h-2.08v4.98c0 .9.37 1.25 1.28 1.25.43 0 .93-.08.93-.08v1.22s-.59.1-1.33.1c-1.65 0-2.31-.8-2.31-2.24v-5.22h-1.54v-1.06h.26c1.14 0 1.39-.27 1.39-1.89v-.61h1.32zm3.6 6.66c0-2.61 1.44-4.42 3.79-4.42 2.51 0 3.76 1.81 3.76 4.42 0 2.64-1.42 4.43-3.79 4.43-2.48 0-3.76-1.79-3.76-4.43zm1.49 0c0 2.06.69 3.31 2.32 3.31 1.57 0 2.26-1.25 2.26-3.31 0-2.05-.67-3.31-2.29-3.31-1.54 0-2.29 1.26-2.29 3.31zm13.01-4.21h1.36v1.42h.03c.38-.86 1.36-1.63 2.71-1.63 1.28 0 2.24.58 2.54 1.75h.03c.32-.88 1.36-1.75 2.75-1.75 1.58 0 2.67.77 2.67 2.77v5.87h-1.44v-5.22c0-.61 0-1.26-.3-1.68-.29-.4-.75-.54-1.31-.54-1.57 0-2.27 1.01-2.27 2.39v5.06h-1.44v-5.22c0-.61 0-1.25-.3-1.67-.29-.4-.75-.56-1.31-.56-1.57 0-2.27 1.01-2.27 2.35v5.09h-1.44v-8.43zm14.86 2.3c.03-1.49 1.17-2.51 3.19-2.51 2.1 0 3.12.88 3.12 3.14v3.44c0 .67.14.94.77.96v1.17h-.18c-1.34 0-1.79-.48-1.94-1.49h-.03c-.45.99-1.46 1.57-2.71 1.57-1.68 0-2.67-.91-2.67-2.42 0-.93.4-1.7 1.26-2.13.88-.46 2.19-.63 4.08-.69v-.37c0-1.52-.58-2.11-1.76-2.11-1.25 0-1.71.72-1.76 1.44h-1.37zm4.9 2.31v-.19c-1.82.08-2.86.22-3.41.62-.32.24-.46.59-.46 1.04 0 .86.56 1.33 1.47 1.33 1.07 0 2.4-.72 2.4-2.8zm6.11-.53l-2.67-4.08h1.7l1.84 2.95h.03l1.89-2.95h1.57l-2.66 4 2.93 4.43h-1.71l-2.1-3.3h-.05l-2.08 3.3h-1.57l2.88-4.35zm6.56-7.55h1.52v1.55h-1.52v-1.55zm.03 3.47h1.46v8.44h-1.46v-8.44zm4.62 0h1.36v1.42h.03c.38-.86 1.36-1.63 2.71-1.63 1.28 0 2.24.58 2.54 1.75h.03c.32-.88 1.36-1.75 2.75-1.75 1.58 0 2.67.77 2.67 2.77v5.87h-1.44v-5.22c0-.61 0-1.26-.3-1.68-.29-.4-.75-.54-1.31-.54-1.57 0-2.27 1.01-2.27 2.39v5.06h-1.44v-5.22c0-.61 0-1.25-.3-1.67-.29-.4-.75-.56-1.31-.56-1.57 0-2.27 1.01-2.27 2.35v5.09h-1.44v-8.43zm16.58 5.19c0 .61 0 1.31.3 1.71.29.38.74.56 1.3.56 1.57 0 2.3-1.04 2.3-2.9v-4.56h1.44v8.44h-1.38v-1.44H221c-.38.86-1.31 1.65-2.66 1.65-1.62 0-2.71-.78-2.71-2.77v-5.88h1.42v5.19zm8.49-5.19h1.36v1.42h.03c.38-.86 1.36-1.63 2.71-1.63 1.28 0 2.24.58 2.54 1.75h.03c.32-.88 1.36-1.75 2.75-1.75 1.58 0 2.67.77 2.67 2.77v5.87h-1.44v-5.22c0-.61 0-1.26-.3-1.68-.29-.4-.75-.54-1.31-.54-1.57 0-2.27 1.01-2.27 2.39v5.06h-1.44v-5.22c0-.61 0-1.25-.3-1.67-.29-.4-.75-.56-1.31-.56-1.57 0-2.27 1.01-2.27 2.35v5.09h-1.44v-8.43zm26.47 11.44h-1.44v-4.29h-.05c-.4.75-1.3 1.49-2.59 1.49-1.79 0-3.44-1.09-3.44-4.37 0-2.9 1.5-4.48 3.63-4.48 1.26 0 2.11.7 2.45 1.49h.03v-1.28h1.41v11.44zm-1.41-6.65v-.9c0-1.79-.94-2.95-2.29-2.95-1.58 0-2.35 1.28-2.35 3.27 0 1.9.56 3.3 2.24 3.3 1.49 0 2.4-1.19 2.4-2.72zm5.89.4c0 .61 0 1.31.3 1.71.29.38.74.56 1.3.56 1.57 0 2.3-1.04 2.3-2.9v-4.56h1.44v8.44h-1.38v-1.44h-.03c-.38.86-1.31 1.65-2.66 1.65-1.62 0-2.71-.78-2.71-2.77v-5.88h1.42v5.19zm8.09-2.89c.03-1.49 1.17-2.51 3.19-2.51 2.1 0 3.12.88 3.12 3.14v3.44c0 .67.14.94.77.96v1.17h-.18c-1.34 0-1.79-.48-1.94-1.49h-.03c-.45.99-1.46 1.57-2.71 1.57-1.68 0-2.67-.91-2.67-2.42 0-.93.4-1.7 1.26-2.13.88-.46 2.19-.63 4.08-.69v-.37c0-1.52-.58-2.11-1.76-2.11-1.25 0-1.71.72-1.76 1.44h-1.37zm4.9 2.31v-.19c-1.82.08-2.86.22-3.41.62-.32.24-.46.59-.46 1.04 0 .86.56 1.33 1.47 1.33 1.07 0 2.4-.72 2.4-2.8zm4.43-8.79h1.44v12.61h-1.44v-12.61zm4.56.71h1.52v1.55h-1.52v-1.55zm.03 3.47h1.46v8.44h-1.46v-8.44zm6.4-2.45v2.45H287v1.1h-2.08v4.98c0 .9.37 1.25 1.28 1.25.43 0 .93-.08.93-.08v1.22s-.59.1-1.33.1c-1.65 0-2.31-.8-2.31-2.24v-5.22h-1.54v-1.06h.26c1.14 0 1.39-.27 1.39-1.89v-.61h1.32zm3.54 2.45h1.44l1.76 5.28c.27.8.42 1.31.42 1.31h.05s.14-.51.42-1.33l1.73-5.27h1.44l-3.07 8.96c-.67 1.94-1.23 2.66-3.06 2.66-.32 0-.64-.05-.86-.1V128c.27.06.59.08.74.08 1.07 0 1.42-.4 1.79-1.54l.16-.45-2.96-8.43zm7.76 6.48h1.95v1.95h-1.95v-1.95zM19.65 150.21h4.45v1.3h-4.45v-1.3zm13.23 1.21v4.67h-1.49v-12.25h3.68c2.37 0 4.21 1.12 4.21 3.76 0 2.59-1.82 3.81-4.34 3.81h-2.06zm2.07-1.2c1.78 0 2.8-.86 2.8-2.61 0-1.83-1.02-2.56-2.75-2.56h-2.11v5.17h2.06zm6.83-6.37h3.76c3.35 0 5.92 1.63 5.92 5.97 0 4.31-2.4 6.27-5.75 6.27h-3.94v-12.24zm3.76 10.97c2.59 0 4.37-1.34 4.37-4.95 0-3.43-1.81-4.74-4.27-4.74h-2.37v9.68h2.27zm10.3 1.28h-1.49v-12.25h7.31v1.33h-5.83v4.42h5.33v1.3h-5.33v5.2zm-36.19 24.11h4.45v1.3h-4.45v-1.3zm11.74-6.36h7.83v1.33h-6.34v4.08h5.83v1.3h-5.83v4.21h6.42v1.33h-7.91v-12.25zm12.48 7.57v4.67h-1.49v-12.25h3.68c2.37 0 4.21 1.12 4.21 3.76 0 2.59-1.82 3.81-4.34 3.81h-2.06zm2.07-1.2c1.78 0 2.8-.86 2.8-2.61 0-1.83-1.02-2.56-2.75-2.56h-2.11v5.17h2.06zm13.36-3.09c-.14-1.2-.83-2.27-2.54-2.27-1.67 0-2.56.94-2.56 2.11 0 1.12.61 1.76 2.05 2.03l1.73.3c2.39.43 3.22 1.6 3.22 3.35 0 2.24-1.52 3.68-4.45 3.68-2.83 0-4.45-1.52-4.58-3.68h1.55c.18 1.31 1.09 2.48 3.06 2.48 2.18 0 2.9-1.06 2.9-2.35 0-1.06-.58-1.79-2.08-2.05l-1.71-.3c-2.4-.45-3.25-1.73-3.25-3.33 0-1.98 1.63-3.42 4.15-3.42 2.59 0 3.94 1.38 4.05 3.46H59.3zm4.33.53h1.97v1.97h-1.97v-1.97zm0 8.44v-1.97h1.97v1.97h-1.97zm12.13.2c-2.58 0-3.81-1.87-3.81-4.39 0-2.5 1.34-4.47 3.76-4.47 2.53 0 3.52 1.95 3.52 4.08v.74h-5.81c.1 1.74.8 2.93 2.38 2.93 1.41 0 1.78-.82 1.92-1.31h1.39c-.29 1.46-1.54 2.42-3.35 2.42zm2-5.26c-.03-1.41-.59-2.5-2.06-2.5-1.34 0-2.08 1.06-2.26 2.59h4.32v-.09zm5.5.7l-2.67-4.08h1.7l1.84 2.95h.03l1.89-2.95h1.57l-2.66 4 2.93 4.43h-1.71l-2.1-3.3h-.05l-2.08 3.3h-1.57l2.88-4.35zm6.52-4.08h1.39v1.41h.03c.5-.9 1.41-1.62 2.69-1.62 1.79 0 3.39 1.1 3.39 4.31 0 3.07-1.58 4.55-3.49 4.55-1.23 0-2.23-.69-2.54-1.44h-.03v4.24h-1.44v-11.45zm3.8 7.51c1.5 0 2.24-1.2 2.24-3.41 0-1.79-.53-3.15-2.26-3.15-1.49 0-2.4 1.26-2.4 2.69v.9c.01 1.65.82 2.97 2.42 2.97zm5.54-3.3c0-2.61 1.44-4.42 3.79-4.42 2.51 0 3.76 1.81 3.76 4.42 0 2.64-1.42 4.43-3.79 4.43-2.48 0-3.76-1.79-3.76-4.43zm1.49 0c0 2.06.69 3.31 2.32 3.31 1.57 0 2.26-1.25 2.26-3.31 0-2.05-.67-3.31-2.29-3.31-1.54 0-2.29 1.26-2.29 3.31zm8.49-4.21h1.36v1.58h.03c.38-.88 1.44-1.75 2.67-1.75h.14v1.5h-.27c-1.5 0-2.5.86-2.5 2.5v4.59h-1.44v-8.42zm8.44-2.45v2.45h2.08v1.1h-2.08v4.98c0 .9.37 1.25 1.28 1.25.43 0 .93-.08.93-.08v1.22s-.59.1-1.33.1c-1.65 0-2.31-.8-2.31-2.24v-5.22h-1.54v-1.06h.26c1.14 0 1.39-.27 1.39-1.89v-.61h1.32zm13.07 5.7h-2.72v5.19h-1.49v-12.25h4.43c.9 0 1.7.19 2.37.54.98.54 1.58 1.49 1.58 2.9 0 2.3-1.5 3.09-2.63 3.38v.03l2.71 5.39h-1.73l-2.52-5.18zm.09-1.23c1.44 0 2.51-.69 2.51-2.37 0-1.5-1.04-2.24-2.45-2.24h-2.88v4.61h2.82zm7.84.4c0 3.25 1.38 5.06 3.86 5.06 2.32 0 3.7-1.33 3.7-3.73v-.18h-3.54v-1.31h4.99v6.18h-1.3v-1.76h-.06c-.58 1.07-1.84 2.02-3.83 2.02-3.09 0-5.39-2.02-5.39-6.32 0-4 2.42-6.35 5.59-6.35 2.51 0 4.32 1.26 4.63 3.42h-1.55c-.21-1.39-1.47-2.24-3.07-2.24-2.67-.01-4.03 2.07-4.03 5.21zm12.42 6.02v-12.25h4.82c2.1 0 3.78.98 3.78 2.98 0 1.49-.83 2.42-2.24 2.74v.03c1.54.26 2.63 1.47 2.63 2.95 0 2.75-2.07 3.55-4.53 3.55h-4.46zm4.54-7.1c1.3 0 2.5-.46 2.5-2.03 0-1.33-.95-1.92-2.31-1.92h-3.25V179h3.06zm-.08 5.9c1.79 0 2.96-.61 2.96-2.45 0-1.62-1.15-2.21-3.09-2.21h-2.85v4.66h2.98zm13.76 3.28c-.91-1.81-2.13-4.11-2.13-7.35 0-3.25 1.22-5.54 2.13-7.35h1.09c-.91 1.95-1.75 4.08-1.75 7.35 0 3.25.83 5.38 1.75 7.35h-1.09zm10.02-2.08h-1.38v-1.39h-.05c-.45.83-1.36 1.6-2.66 1.6-1.79 0-3.44-1.12-3.44-4.37 0-2.9 1.5-4.48 3.63-4.48 1.26 0 2.08.7 2.42 1.49h.03v-5.46h1.44v12.61zm-1.41-4.55c0-1.79-.94-2.95-2.29-2.95-1.62 0-2.35 1.28-2.35 3.27 0 1.9.56 3.3 2.24 3.3 1.49 0 2.4-1.18 2.4-2.72v-.9zm4.54-7.36h1.52v1.55h-1.52v-1.55zm.04 3.47h1.46v8.44h-1.46v-8.44zm4.07 9.28h1.39c.16.72.71 1.18 2.08 1.18 1.6 0 2.4-.59 2.4-2.45v-1.25h-.02c-.43.83-1.42 1.55-2.69 1.55-1.76 0-3.38-1.1-3.38-4.23 0-2.79 1.47-4.31 3.55-4.31 1.36 0 2.18.75 2.53 1.54h.03v-1.33h1.38v8.23c0 2.37-1.55 3.39-3.84 3.39-1.58.02-3.23-.57-3.43-2.32zm5.91-5.52c0-1.68-.94-2.83-2.4-2.83-1.52 0-2.24 1.26-2.24 3.17 0 1.86.53 3.14 2.31 3.14 1.36 0 2.34-1.18 2.34-2.63v-.85zm4.51-7.23h1.52v1.55h-1.52v-1.55zm.03 3.47h1.46v8.44h-1.46v-8.44zm6.4-2.45v2.45h2.08v1.1h-2.08v4.98c0 .9.37 1.25 1.28 1.25.43 0 .93-.08.93-.08v1.22s-.59.1-1.33.1c-1.65 0-2.31-.8-2.31-2.24v-5.22h-1.54v-1.06h.26c1.14 0 1.39-.27 1.39-1.89v-.61h1.32zm4.51 4.75c.03-1.49 1.17-2.51 3.19-2.51 2.1 0 3.12.88 3.12 3.14v3.44c0 .67.14.94.77.96v1.17h-.18c-1.34 0-1.79-.48-1.94-1.49h-.03c-.45.99-1.46 1.57-2.71 1.57-1.68 0-2.67-.91-2.67-2.42 0-.93.4-1.7 1.26-2.13.88-.46 2.19-.63 4.08-.69v-.37c0-1.52-.58-2.11-1.76-2.11-1.25 0-1.71.72-1.76 1.44h-1.37zm4.9 2.31v-.19c-1.82.08-2.86.22-3.41.62-.32.24-.46.59-.46 1.04 0 .86.56 1.33 1.47 1.33 1.07 0 2.4-.72 2.4-2.8zm4.43-8.79h1.44v12.61h-1.44v-12.61zm5.41 7.35c0-3.26-.83-5.39-1.75-7.35h1.09c.91 1.81 2.13 4.1 2.13 7.35 0 3.23-1.22 5.54-2.13 7.35h-1.09c.92-1.97 1.75-4.1 1.75-7.35zm8.85-.87c.03-1.49 1.17-2.51 3.19-2.51 2.1 0 3.12.88 3.12 3.14v3.44c0 .67.14.94.77.96v1.17h-.18c-1.34 0-1.79-.48-1.94-1.49h-.03c-.45.99-1.46 1.57-2.71 1.57-1.68 0-2.67-.91-2.67-2.42 0-.93.4-1.7 1.26-2.13.88-.46 2.19-.63 4.08-.69v-.37c0-1.52-.58-2.11-1.76-2.11-1.25 0-1.71.72-1.76 1.44h-1.37zm4.9 2.31v-.19c-1.82.08-2.86.22-3.41.62-.32.24-.46.59-.46 1.04 0 .86.56 1.33 1.47 1.33 1.07 0 2.4-.72 2.4-2.8zm9.79-1.38c0-.61 0-1.28-.3-1.68-.29-.4-.77-.56-1.33-.56-1.57 0-2.29 1.01-2.29 2.39v5.06h-1.44v-8.44h1.36v1.42h.03c.4-.86 1.38-1.63 2.72-1.63 1.62 0 2.69.77 2.69 2.77v5.87h-1.44v-5.2zm11.3 5.21H256v-1.39h-.05c-.45.83-1.36 1.6-2.66 1.6-1.79 0-3.44-1.12-3.44-4.37 0-2.9 1.5-4.48 3.63-4.48 1.26 0 2.08.7 2.42 1.49h.03v-5.46h1.44v12.61zm-1.41-4.55c0-1.79-.94-2.95-2.29-2.95-1.62 0-2.35 1.28-2.35 3.27 0 1.9.56 3.3 2.24 3.3 1.49 0 2.4-1.18 2.4-2.72v-.9zm10.25-1.55c0 3.17 1.41 5.12 3.86 5.12 2.16 0 3.06-1.46 3.22-2.85h1.52c-.19 2.3-1.97 4.07-4.74 4.07-3.18 0-5.44-2.07-5.44-6.34 0-3.99 2.29-6.34 5.47-6.34 2.08 0 4.43 1.1 4.71 3.84h-1.57c-.21-1.25-1.17-2.63-3.14-2.63-2.51.01-3.89 2.07-3.89 5.13zm11.46-6.15h2.26l3.1 8.77c.38 1.07.54 1.6.54 1.6h.03s.16-.53.54-1.6l3.15-8.77h2.24v12.25h-1.52v-10.52h-.05s-.19.63-.66 1.92l-3.09 8.6h-1.41l-3.01-8.6c-.43-1.28-.66-1.92-.66-1.92h-.05v10.52h-1.44v-12.25zm18.2 7.01l-4.32-7.01h1.73l3.31 5.65h.03l3.44-5.65h1.58l-4.31 6.92v5.33h-1.47v-5.24zm9.27 5.24h-1.49v-12.25h1.49v6.29l5.73-6.29h1.79l-4.71 5.14 5.04 7.11h-1.79l-4.27-5.99-1.79 1.97v4.02zm16.59 2.08c-.91-1.81-2.13-4.11-2.13-7.35 0-3.25 1.22-5.54 2.13-7.35h1.09c-.91 1.95-1.75 4.08-1.75 7.35 0 3.25.83 5.38 1.75 7.35h-1.09zm3.33-10.52h1.39v1.41h.03c.5-.9 1.41-1.62 2.69-1.62 1.79 0 3.39 1.1 3.39 4.31 0 3.07-1.58 4.55-3.49 4.55-1.23 0-2.23-.69-2.54-1.44h-.03v4.24h-1.44v-11.45zm3.81 7.51c1.5 0 2.24-1.2 2.24-3.41 0-1.79-.53-3.15-2.26-3.15-1.49 0-2.4 1.26-2.4 2.69v.9c0 1.65.82 2.97 2.42 2.97zm6.12-7.51h1.36v1.58h.03c.38-.88 1.44-1.75 2.67-1.75h.14v1.5h-.27c-1.5 0-2.5.86-2.5 2.5v4.59H335v-8.42zm6.39-3.47h1.52v1.55h-1.52v-1.55zm.03 3.47h1.46v8.44h-1.46v-8.44zm9.99 3.23c0-.61 0-1.28-.3-1.68-.29-.4-.77-.56-1.33-.56-1.57 0-2.29 1.01-2.29 2.39v5.06h-1.44v-8.44h1.36v1.42h.03c.4-.86 1.38-1.63 2.72-1.63 1.62 0 2.69.77 2.69 2.77v5.87h-1.44v-5.2zm6.3-5.68v2.45h2.08v1.1h-2.08v4.98c0 .9.37 1.25 1.28 1.25.43 0 .93-.08.93-.08v1.22s-.59.1-1.33.1c-1.65 0-2.31-.8-2.31-2.24v-5.22h-1.54v-1.06h.26c1.14 0 1.39-.27 1.39-1.89v-.61h1.32zm5.32 5.62c0-3.26-.83-5.39-1.75-7.35h1.09c.91 1.81 2.13 4.1 2.13 7.35 0 3.23-1.22 5.54-2.13 7.35h-1.09c.92-1.97 1.75-4.1 1.75-7.35zm8.03-3.17h1.47l1.82 5.43c.24.69.42 1.33.42 1.33h.03s.18-.64.42-1.33l1.87-5.43h1.38l-2.93 8.44h-1.52l-2.96-8.44zm12.44 8.64c-2.58 0-3.81-1.87-3.81-4.39 0-2.5 1.34-4.47 3.76-4.47 2.53 0 3.52 1.95 3.52 4.08v.74h-5.81c.1 1.74.8 2.93 2.39 2.93 1.41 0 1.78-.82 1.92-1.31h1.39c-.3 1.46-1.55 2.42-3.36 2.42zm2-5.26c-.03-1.41-.59-2.5-2.06-2.5-1.34 0-2.08 1.06-2.26 2.59h4.32v-.09zm3.82-3.38h1.36v1.58h.03c.38-.88 1.44-1.75 2.67-1.75h.14v1.5h-.27c-1.5 0-2.5.86-2.5 2.5v4.59h-1.44v-8.42zm10.42 2.11c-.08-.75-.69-1.23-1.68-1.23s-1.65.58-1.65 1.36c0 .69.42 1.01 1.26 1.15l1.3.19c1.76.27 2.4.99 2.4 2.45 0 1.7-1.38 2.61-3.3 2.61-1.75 0-3.19-.78-3.3-2.59h1.41c.06.66.43 1.49 1.92 1.49 1.15 0 1.87-.54 1.87-1.42 0-.67-.18-1.04-1.33-1.23l-1.3-.19c-1.5-.24-2.3-.86-2.3-2.34 0-1.49 1.14-2.56 3.06-2.56 1.83 0 2.87.85 3.01 2.32h-1.37zm4.09-5.58h1.52v1.55h-1.52v-1.55zm.04 3.47h1.46v8.44h-1.46v-8.44zm3.87 4.21c0-2.61 1.44-4.42 3.79-4.42 2.51 0 3.76 1.81 3.76 4.42 0 2.64-1.42 4.43-3.79 4.43-2.48 0-3.76-1.79-3.76-4.43zm1.49 0c0 2.06.69 3.31 2.32 3.31 1.57 0 2.26-1.25 2.26-3.31 0-2.05-.67-3.31-2.29-3.31-1.54 0-2.29 1.26-2.29 3.31zm13.85-.98c0-.61 0-1.28-.3-1.68-.29-.4-.77-.56-1.33-.56-1.57 0-2.29 1.01-2.29 2.39v5.06h-1.44v-8.44h1.36v1.42h.03c.4-.86 1.38-1.63 2.72-1.63 1.62 0 2.69.77 2.69 2.77v5.87h-1.44v-5.2zm8.69-1.12c-.08-.75-.69-1.23-1.68-1.23s-1.65.58-1.65 1.36c0 .69.42 1.01 1.26 1.15l1.3.19c1.76.27 2.4.99 2.4 2.45 0 1.7-1.38 2.61-3.3 2.61-1.75 0-3.19-.78-3.3-2.59h1.41c.06.66.43 1.49 1.92 1.49 1.15 0 1.87-.54 1.87-1.42 0-.67-.18-1.04-1.33-1.23l-1.3-.19c-1.5-.24-2.3-.86-2.3-2.34 0-1.49 1.14-2.56 3.06-2.56 1.83 0 2.87.85 3.01 2.32h-1.37zm3.55 4.37h1.95v1.95h-1.95v-1.95z"/></g></g></svg>