<svg xmlns="http://www.w3.org/2000/svg" viewBox="0 0 73.7 73.7">
    <title>REB_INSTITUTE_Logo_neg_26mm Kopie</title>
    <rect x="0.15" y="0.15" width="73.4" height="73.4" fill="#1a1a18"/>
    <path d="M73.4.3V73.4H.3V.3H73.4m.3-.3H0V73.7H73.7V0Z" fill="#1a1a18"/>
    <path d="M15.53,21a2.37,2.37,0,0,1,1.66.54,2.11,2.11,0,0,1,.6,1.65,2.53,2.53,0,0,1-.35,1.39,1.61,1.61,0,0,1-1.07.7v0a1.5,1.5,0,0,1,.94.42,1.73,1.73,0,0,1,.37,1c0,.16,0,.33,0,.52s0,.39,0,.62a10.16,10.16,0,0,0,.07,1,.68.68,0,0,0,.31.49v.07H16.27A.88.88,0,0,1,16.1,29c0-.15,0-.31-.05-.48L16,26.93a1.29,1.29,0,0,0-.25-.78.91.91,0,0,0-.76-.29h-.91v3.59H12.37V21Zm-.74,3.71a1.37,1.37,0,0,0,1-.3,1.25,1.25,0,0,0,.34-1,1,1,0,0,0-1.19-1.17h-.81v2.45Z"
          fill="#fff"/>
    <path d="M24,22.37h-3v2h2.85v1.4H20.92v2.28h3.15v1.4H19.21V21H24Z" fill="#fff"/>
    <path d="M29.05,20.87l2.25,8.48H29.52l-.39-1.8H26.87l-.39,1.8H24.7l2.24-8.48Zm-.22,5.28L28,22.34h0l-.81,3.81Z"
          fill="#fff"/>
    <path d="M32,21h1.71v7.08h3v1.4H32Z" fill="#fff"/>
    <path d="M15.23,41.9a4.23,4.23,0,0,1,1,.11,2,2,0,0,1,.77.36,1.51,1.51,0,0,1,.49.66,2.59,2.59,0,0,1,.18,1,2,2,0,0,1-.32,1.18,1.6,1.6,0,0,1-1,.68v0a1.63,1.63,0,0,1,1.13.61,2.06,2.06,0,0,1,.41,1.36,3.3,3.3,0,0,1-.13,1,1.82,1.82,0,0,1-.44.79,2.1,2.1,0,0,1-.82.54,3.31,3.31,0,0,1-1.25.2H12.37V41.9Zm-.66,3.48a1.71,1.71,0,0,0,1-.25,1.05,1.05,0,0,0,.32-.86,1.1,1.1,0,0,0-.29-.86,1.43,1.43,0,0,0-.94-.25h-.62v2.22Zm.18,3.74a1.66,1.66,0,0,0,1-.27,1.15,1.15,0,0,0,.38-1,1.56,1.56,0,0,0-.1-.61,1.13,1.13,0,0,0-.27-.39,1,1,0,0,0-.41-.21,2.12,2.12,0,0,0-.52-.06h-.74v2.55Z"
          fill="#fff"/>
    <path d="M22.3,41.9a2.37,2.37,0,0,1,1.66.54,2.11,2.11,0,0,1,.6,1.65,2.53,2.53,0,0,1-.35,1.39,1.58,1.58,0,0,1-1.07.7v0a1.56,1.56,0,0,1,.94.42,1.76,1.76,0,0,1,.37,1c0,.16,0,.33,0,.52s0,.39,0,.62a10.4,10.4,0,0,0,.07,1,.67.67,0,0,0,.31.48v.07H23a.84.84,0,0,1-.17-.41c0-.15,0-.31-.05-.48l-.05-1.62a1.24,1.24,0,0,0-.25-.79.91.91,0,0,0-.76-.28h-.91v3.58H19.14V41.9Zm-.74,3.71a1.42,1.42,0,0,0,1-.29,1.26,1.26,0,0,0,.34-1,1,1,0,0,0-1.19-1.18h-.81v2.45Z"
          fill="#fff"/>
    <path d="M29.75,41.9,32,50.38H30.21l-.39-1.79H27.56l-.39,1.79H25.39l2.24-8.48Zm-.23,5.29-.82-3.81h0l-.82,3.81Z"
          fill="#fff"/>
    <path d="M36.86,47.71h0V41.9h1.57v8.48h-2l-2.09-5.94h0v5.94H32.82V41.9h2Z" fill="#fff"/>
    <path d="M42.62,41.9a3.15,3.15,0,0,1,1.44.29,2.08,2.08,0,0,1,.85.84,3.68,3.68,0,0,1,.41,1.3,14.52,14.52,0,0,1,0,3.64,3.75,3.75,0,0,1-.47,1.36,2.06,2.06,0,0,1-.89.79,3.28,3.28,0,0,1-1.42.26H39.82V41.9Zm-.33,7.22A1.48,1.48,0,0,0,43,49a1,1,0,0,0,.44-.51,3.37,3.37,0,0,0,.21-.94c0-.39.05-.87.05-1.45s0-.9,0-1.27a3.42,3.42,0,0,0-.2-.91,1.14,1.14,0,0,0-.44-.54,1.36,1.36,0,0,0-.78-.19h-.72v6Z"
          fill="#fff"/>
    <path d="M12.37,52.37h1.71v8.48H12.37Z" fill="#fff"/>
    <path d="M19.62,58.17h0v-5.8h1.57v8.48H19.27l-2.09-5.94h0v5.94H15.59V52.37h2Z" fill="#fff"/>
    <path d="M24,58.45a2.92,2.92,0,0,0,.05.54.9.9,0,0,0,.18.41.79.79,0,0,0,.35.26,1.44,1.44,0,0,0,.55.09,1.07,1.07,0,0,0,.7-.25,1,1,0,0,0,.32-.79,1.4,1.4,0,0,0-.08-.49.93.93,0,0,0-.25-.38,1.9,1.9,0,0,0-.47-.3,6.83,6.83,0,0,0-.72-.28,6.7,6.7,0,0,1-1-.42,2.66,2.66,0,0,1-.69-.52,1.94,1.94,0,0,1-.41-.71,2.84,2.84,0,0,1-.13-.92,2.34,2.34,0,0,1,.7-1.87,2.82,2.82,0,0,1,1.92-.62,4.32,4.32,0,0,1,1.05.12,2.35,2.35,0,0,1,.84.41,1.84,1.84,0,0,1,.54.71,2.54,2.54,0,0,1,.2,1v.24H26a1.6,1.6,0,0,0-.22-.93.78.78,0,0,0-.71-.33,1.24,1.24,0,0,0-.47.08.91.91,0,0,0-.31.22.86.86,0,0,0-.15.32,1.47,1.47,0,0,0,0,.36,1.2,1.2,0,0,0,.16.66,1.52,1.52,0,0,0,.72.5l1.32.57a4,4,0,0,1,.79.44,2.1,2.1,0,0,1,.49.5,1.64,1.64,0,0,1,.26.59,3.11,3.11,0,0,1,.07.71,2.34,2.34,0,0,1-.78,2A3.47,3.47,0,0,1,25,61a2.86,2.86,0,0,1-2.08-.63,2.48,2.48,0,0,1-.62-1.81V58.2H24Z"
          fill="#fff"/>
    <path d="M33.8,53.77H31.94v7.08H30.23V53.77H28.38v-1.4H33.8Z" fill="#fff"/>
    <path d="M34.85,52.37h1.71v8.48H34.85Z" fill="#fff"/>
    <path d="M43,53.77H41.18v7.08H39.47V53.77H37.62v-1.4H43Z" fill="#fff"/>
    <path d="M45.61,58.28a5.14,5.14,0,0,0,0,.59,1.25,1.25,0,0,0,.16.46.77.77,0,0,0,.31.31.91.91,0,0,0,.49.11.93.93,0,0,0,.5-.11.75.75,0,0,0,.3-.31,1.25,1.25,0,0,0,.16-.46,5.14,5.14,0,0,0,0-.59V52.37h1.71v5.91a3.47,3.47,0,0,1-.23,1.34,2.1,2.1,0,0,1-.6.83,2.07,2.07,0,0,1-.87.42,4.81,4.81,0,0,1-1,.11,4.74,4.74,0,0,1-1-.1,2.13,2.13,0,0,1-.87-.38,2,2,0,0,1-.6-.83,3.63,3.63,0,0,1-.23-1.39V52.37h1.71Z"
          fill="#fff"/>
    <path d="M55.6,53.77H53.75v7.08H52V53.77H50.18v-1.4H55.6Z" fill="#fff"/>
    <path d="M61.31,53.77h-3v2h2.85v1.4H58.28v2.28h3.15v1.41H56.57V52.37h4.74Z" fill="#fff"/>
    <path d="M12.37,12.93h2.89v.32H12.73v2.42h2.36V16H12.73v2.67h2.61V19h-3Z" fill="#fff" stroke="#fff"
          stroke-miterlimit="10" stroke-width="0.2"/>
    <path d="M16.57,17.38c0,.85.39,1.42,1.33,1.42a1.26,1.26,0,0,0,1.32-1.42V12.93h.36v4.38a1.56,1.56,0,0,1-1.68,1.78c-.84,0-1.68-.33-1.68-1.78V12.93h.35Z"
          fill="#fff" stroke="#fff" stroke-miterlimit="10" stroke-width="0.2"/>
    <path d="M20.71,12.93h1.77A1.41,1.41,0,0,1,24,14.51,1.36,1.36,0,0,1,22.77,16v0c1,.06,1.17.67,1.17,1.5v.64a1.38,1.38,0,0,0,.2.81h-.4a1.72,1.72,0,0,1-.16-.82v-.62c0-.86-.24-1.37-1.21-1.37H21.06V19h-.35Zm1.49,3a1.24,1.24,0,0,0,1.42-1.38,1.15,1.15,0,0,0-1.19-1.3H21.06v2.68Z"
          fill="#fff" stroke="#fff" stroke-miterlimit="10" stroke-width="0.2"/>
    <path d="M28.9,16c0,2.66-1.09,3.14-1.95,3.14-1.16,0-2-.79-2-3.14s.85-3.13,2-3.13S28.9,13.6,28.9,16Zm-3.55,0c0,1.67.34,2.85,1.6,2.85s1.6-.92,1.6-2.85c0-1.63-.37-2.84-1.6-2.84S25.35,14.29,25.35,16Z"
          fill="#fff" stroke="#fff" stroke-miterlimit="10" stroke-width="0.2"/>
    <path d="M29.91,12.93h1.57a1.51,1.51,0,0,1,1.65,1.68,1.58,1.58,0,0,1-1.72,1.68H30.27V19h-.36ZM31.44,16a1.24,1.24,0,0,0,1.33-1.39,1.23,1.23,0,0,0-1.28-1.4H30.27V16Z"
          fill="#fff" stroke="#fff" stroke-miterlimit="10" stroke-width="0.2"/>
    <path d="M34,12.93H36.9v.32H34.37v2.42h2.36V16H34.37v2.67H37V19H34Z" fill="#fff" stroke="#fff"
          stroke-miterlimit="10" stroke-width="0.2"/>
    <path d="M41,17.1H38.67L38.1,19h-.36l1.88-6.05h.45L41.89,19h-.36Zm-1.12-3.82h0l-1.07,3.53h2.13Z" fill="#fff"
          stroke="#fff" stroke-miterlimit="10" stroke-width="0.2"/>
    <path d="M43.17,12.93l2.64,5.49h0V12.93h.35V19h-.47l-2.64-5.49h0V19h-.36V12.93Z" fill="#fff" stroke="#fff"
          stroke-miterlimit="10" stroke-width="0.2"/>
    <path d="M17.11,32.84h-3v2h2.85v1.4H14.08v2.28h3.15v1.4H12.37V31.43h4.74Z" fill="#fff"/>
    <path d="M19.7,37.51a2.39,2.39,0,0,0,.05.55,1,1,0,0,0,.17.4.94.94,0,0,0,.35.27,1.49,1.49,0,0,0,.56.09,1.07,1.07,0,0,0,.7-.25,1,1,0,0,0,.32-.79,1.5,1.5,0,0,0-.08-.5.93.93,0,0,0-.26-.37,1.66,1.66,0,0,0-.46-.3,6.83,6.83,0,0,0-.72-.28,6.7,6.7,0,0,1-1-.42,2.52,2.52,0,0,1-.69-.53,1.71,1.71,0,0,1-.41-.7,2.84,2.84,0,0,1-.13-.92,2.34,2.34,0,0,1,.7-1.87,2.76,2.76,0,0,1,1.92-.62,4.32,4.32,0,0,1,1.05.12,2.23,2.23,0,0,1,.83.41,1.77,1.77,0,0,1,.55.71,2.5,2.5,0,0,1,.2,1v.24H21.72a1.65,1.65,0,0,0-.22-.94.8.8,0,0,0-.71-.32,1.07,1.07,0,0,0-.47.08.91.91,0,0,0-.31.22.81.81,0,0,0-.15.31,1.55,1.55,0,0,0,0,.37,1.24,1.24,0,0,0,.16.66,1.47,1.47,0,0,0,.72.49l1.31.57a4.75,4.75,0,0,1,.8.45,1.93,1.93,0,0,1,.49.5,1.74,1.74,0,0,1,.26.59,3.11,3.11,0,0,1,.07.71,2.32,2.32,0,0,1-.78,2,3.42,3.42,0,0,1-2.17.61,2.85,2.85,0,0,1-2.07-.63,2.46,2.46,0,0,1-.62-1.8v-.34H19.7Z"
          fill="#fff"/>
    <path d="M29.4,32.84H27.55v7.07H25.84V32.84H24V31.43H29.4Z" fill="#fff"/>
    <path d="M33.42,31.43l2.24,8.48H33.88l-.39-1.79H31.23l-.39,1.79H29.06l2.24-8.48Zm-.23,5.29-.82-3.81h0l-.82,3.81Z"
          fill="#fff"/>
    <path d="M40.8,32.84H39v7.07H37.24V32.84H35.39V31.43H40.8Z" fill="#fff"/>
    <path d="M46.45,32.84h-3v2h2.85v1.4H43.42v2.28h3.15v1.4H41.71V31.43h4.74Z" fill="#fff"/>
</svg>