<?xml version="1.0" encoding="utf-8"?>
<!-- Generator: Adobe Illustrator 26.0.1, SVG Export Plug-In . SVG Version: 6.00 Build 0)  -->
<svg version="1.1" id="Ebene_1" xmlns="http://www.w3.org/2000/svg" xmlns:xlink="http://www.w3.org/1999/xlink" x="0px" y="0px"
	 viewBox="0 0 73.7 73.7" style="enable-background:new 0 0 73.7 73.7;" xml:space="preserve">
<style type="text/css">
	.st0{fill:#1A1A18;}
	.st1{fill:#FFFFFF;}
	.st2{fill:#FFFFFF;stroke:#FFFFFF;stroke-width:0.2;stroke-miterlimit:10;}
</style>
<rect x="0.3" y="0.1" class="st0" width="73.4" height="73.4"/>
<path class="st0" d="M73.4,0.3v73.1H0.3V0.3H73.4 M73.7,0H0v73.7h73.7V0z"/>
<path class="st1" d="M15.5,21c0.6,0,1.2,0.2,1.7,0.5c0.4,0.4,0.6,1,0.6,1.6c0,0.5-0.1,1-0.4,1.4c-0.2,0.4-0.6,0.6-1.1,0.7l0,0
	c0.4,0,0.7,0.2,0.9,0.4c0.2,0.3,0.4,0.6,0.4,1c0,0.2,0,0.3,0,0.5s0,0.4,0,0.6c0,0.3,0,0.7,0.1,1c0,0.2,0.1,0.4,0.3,0.5v0.1h-1.8
	c-0.1-0.1-0.1-0.3-0.2-0.4c0-0.1,0-0.3,0-0.5v-1.5c0-0.3-0.1-0.6-0.2-0.8c-0.2-0.2-0.5-0.3-0.8-0.3h-0.9v3.6h-1.7V21H15.5z
	 M14.8,24.7c0.4,0,0.7-0.1,1-0.3c0.3-0.3,0.4-0.6,0.3-1c0.1-0.5-0.2-1.1-0.8-1.2c-0.1,0-0.3,0-0.4,0h-0.8v2.5H14.8z"/>
<path class="st1" d="M24,22.4h-3v2h2.9v1.4H21v2.3h3.1v1.4h-4.9V21H24V22.4z"/>
<path class="st1" d="M29,20.9l2.2,8.5h-1.8L29,27.6h-2.3l-0.4,1.8h-1.8l2.2-8.5H29z M28.8,26.2L28,22.3l0,0l-0.8,3.8L28.8,26.2z"/>
<path class="st1" d="M32,21h1.7v7.1h3v1.4H32V21z"/>
<path class="st1" d="M24.8,52.1h1.7v7.1h3v1.4h-4.7V52.1z"/>
<path class="st1" d="M15.2,41.9c0.3,0,0.7,0,1,0.1c0.3,0.1,0.5,0.2,0.8,0.4c0.2,0.2,0.4,0.4,0.5,0.7s0.2,0.7,0.2,1
	c0,0.4-0.1,0.8-0.3,1.2c-0.2,0.3-0.6,0.6-1,0.7l0,0c0.4,0,0.9,0.3,1.1,0.6c0.3,0.4,0.4,0.9,0.4,1.4c0,0.3,0,0.7-0.1,1
	s-0.2,0.6-0.4,0.8c-0.2,0.2-0.5,0.4-0.8,0.5c-0.4,0.1-0.8,0.2-1.2,0.2h-2.9V42h2.7V41.9z M14.6,45.4c0.4,0,0.7-0.1,1-0.2
	c0.2-0.2,0.4-0.5,0.3-0.9c0-0.3-0.1-0.6-0.3-0.9c-0.3-0.2-0.6-0.3-0.9-0.2H14v2.2L14.6,45.4z M14.8,49.1c0.4,0,0.7-0.1,1-0.3
	c0.3-0.3,0.4-0.6,0.4-1c0-0.2,0-0.4-0.1-0.6c-0.1-0.1-0.2-0.3-0.3-0.4c-0.1-0.1-0.3-0.2-0.4-0.2c-0.2,0-0.3-0.1-0.5-0.1h-0.7V49
	L14.8,49.1z"/>
<path class="st1" d="M22.3,41.9c0.6,0,1.2,0.2,1.7,0.5c0.4,0.4,0.6,1,0.6,1.7c0,0.5-0.1,1-0.4,1.4c-0.2,0.4-0.6,0.6-1.1,0.7l0,0
	c0.4,0,0.7,0.2,0.9,0.4c0.2,0.3,0.4,0.6,0.4,1c0,0.2,0,0.3,0,0.5s0,0.4,0,0.6c0,0.3,0,0.7,0.1,1c0,0.2,0.1,0.4,0.3,0.5v0.1H23
	c-0.1-0.1-0.2-0.3-0.2-0.4c0-0.2,0-0.3,0-0.5v-1.6c0-0.3-0.1-0.6-0.2-0.8c-0.2-0.2-0.5-0.3-0.8-0.3h-0.9v3.6h-1.7v-8.4H22.3z
	 M21.6,45.6c0.4,0,0.7-0.1,1-0.3c0.3-0.3,0.4-0.6,0.3-1c0.1-0.5-0.2-1.1-0.8-1.2c-0.1,0-0.3,0-0.4,0h-0.8v2.5H21.6z"/>
<path class="st1" d="M29.8,41.9l2.2,8.5h-1.8l-0.4-1.8h-2.3l-0.4,1.8h-1.8l2.2-8.5H29.8z M29.5,47.2l-0.8-3.8l0,0l-0.8,3.8H29.5z"/>
<path class="st1" d="M21.6,52.1l2.2,8.5H22l-0.4-1.8h-2.3l-0.4,1.8h-1.8l2.2-8.5H21.6z M21.4,57.4l-0.8-3.8l0,0l-0.8,3.8H21.4z"/>
<path class="st1" d="M36.9,47.7L36.9,47.7v-5.8h1.6v8.5h-2l-2.1-5.9l0,0v5.9h-1.5v-8.5h2L36.9,47.7z"/>
<path class="st1" d="M42.6,41.9c0.5,0,1,0.1,1.4,0.3s0.7,0.5,0.8,0.8c0.2,0.4,0.4,0.8,0.4,1.3c0.2,1.2,0.2,2.4,0,3.6
	c-0.1,0.5-0.2,0.9-0.5,1.4c-0.2,0.3-0.5,0.6-0.9,0.8s-0.9,0.3-1.4,0.3h-2.7v-8.5L42.6,41.9z M42.3,49.1c0.2,0,0.5,0,0.7-0.1
	s0.4-0.3,0.4-0.5c0.1-0.3,0.2-0.6,0.2-0.9c0-0.4,0-0.9,0-1.5s0-0.9,0-1.3c0-0.3-0.1-0.6-0.2-0.9c-0.1-0.2-0.2-0.4-0.4-0.5
	s-0.5-0.2-0.8-0.2h-0.7v6L42.3,49.1z"/>
<path class="st1" d="M17.8,53.5H16v7.1h-1.8v-7.1h-1.8v-1.4h5.4V53.5z"/>
<path class="st2" d="M12.4,12.9h2.9v0.3h-2.5v2.4h2.4V16h-2.4v2.7h2.6V19h-3V12.9z"/>
<path class="st2" d="M16.6,17.4c0,0.9,0.4,1.4,1.3,1.4c0.7,0,1.3-0.5,1.3-1.2c0-0.1,0-0.2,0-0.2V13h0.4v4.4c0.1,0.9-0.5,1.6-1.3,1.8
	c-0.1,0-0.2,0-0.4,0c-0.8,0-1.7-0.3-1.7-1.8V13h0.4L16.6,17.4z"/>
<path class="st2" d="M20.7,12.9h1.8c0.8-0.1,1.5,0.5,1.5,1.3c0,0.1,0,0.2,0,0.3c0.1,0.7-0.5,1.4-1.2,1.5l0,0l0,0
	c1,0.1,1.2,0.7,1.2,1.5v0.6c0,0.3,0.1,0.6,0.2,0.8h-0.4c-0.1-0.3-0.2-0.5-0.2-0.8v-0.6c0-0.9-0.2-1.4-1.2-1.4h-1.3V19h-0.4V12.9z
	 M22.2,15.9c0.7,0.1,1.3-0.4,1.4-1c0-0.1,0-0.2,0-0.3c0.1-0.6-0.4-1.2-1-1.3c-0.1,0-0.1,0-0.2,0H21V16L22.2,15.9L22.2,15.9z"/>
<path class="st2" d="M28.9,16c0,2.7-1.1,3.1-2,3.1c-1.2,0-2-0.8-2-3.1s0.9-3.1,2-3.1S28.9,13.6,28.9,16z M25.4,16
	c0,1.7,0.3,2.9,1.6,2.9s1.6-0.9,1.6-2.9c0-1.6-0.4-2.8-1.6-2.8S25.4,14.3,25.4,16z"/>
<path class="st2" d="M29.9,12.9h1.6c0.8-0.1,1.6,0.5,1.7,1.4c0,0.1,0,0.2,0,0.3c0.1,0.9-0.6,1.6-1.5,1.7c-0.1,0-0.2,0-0.3,0h-1.1V19
	h-0.4L29.9,12.9z M31.4,16c0.7,0.1,1.3-0.5,1.3-1.1c0-0.1,0-0.2,0-0.3c0.1-0.7-0.4-1.3-1-1.4c-0.1,0-0.2,0-0.2,0h-1.2V16H31.4z"/>
<path class="st2" d="M34,12.9h2.9v0.3h-2.5v2.4h2.4V16h-2.4v2.7H37V19h-3V12.9z"/>
<path class="st2" d="M41,17.1h-2.3L38.1,19h-0.4l1.9-6.1h0.5l1.8,6.1h-0.4L41,17.1z M39.9,13.3L39.9,13.3l-1.1,3.5h2.1L39.9,13.3z"
	/>
<path class="st2" d="M43.2,12.9l2.6,5.5l0,0v-5.5h0.3V19h-0.5L43,13.5l0,0V19h-0.4v-6.1H43.2z"/>
<path class="st1" d="M17.1,32.8h-3v2H17v1.4h-2.9v2.3h3.1v1.4h-4.9v-8.5H17v1.4H17.1z"/>
<path class="st1" d="M19.7,37.5c0,0.2,0,0.4,0,0.5s0.1,0.3,0.2,0.4c0.1,0.1,0.2,0.2,0.4,0.3c0.2,0.1,0.4,0.1,0.6,0.1
	c0.3,0,0.5-0.1,0.7-0.2c0.2-0.2,0.3-0.5,0.3-0.8c0-0.2,0-0.3-0.1-0.5c-0.1-0.1-0.1-0.3-0.3-0.4c-0.1-0.1-0.3-0.2-0.5-0.3
	s-0.5-0.2-0.7-0.3c-0.3-0.1-0.7-0.3-1-0.4c-0.3-0.1-0.5-0.3-0.7-0.5s-0.3-0.4-0.4-0.7s-0.1-0.6-0.1-0.9c-0.1-0.7,0.2-1.4,0.7-1.9
	c0.5-0.4,1.2-0.7,1.9-0.6c0.4,0,0.7,0,1,0.1s0.6,0.2,0.8,0.4c0.2,0.2,0.4,0.4,0.5,0.7s0.2,0.7,0.2,1v0.2h-1.6c0-0.3-0.1-0.7-0.2-0.9
	c-0.2-0.2-0.4-0.3-0.7-0.3c-0.2,0-0.3,0-0.5,0.1c-0.1,0.1-0.2,0.1-0.3,0.2c-0.1,0.1-0.1,0.2-0.1,0.3s0,0.2,0,0.4s0,0.5,0.2,0.7
	s0.4,0.4,0.7,0.5l1.3,0.6c0.3,0.1,0.5,0.3,0.8,0.5c0.2,0.1,0.4,0.3,0.5,0.5s0.2,0.4,0.3,0.6c0.1,0.2,0.1,0.5,0.1,0.7
	c0.1,0.8-0.2,1.5-0.8,2c-0.6,0.4-1.4,0.7-2.2,0.6c-0.7,0.1-1.5-0.2-2.1-0.6c-0.4-0.5-0.7-1.1-0.6-1.8v-0.3L19.7,37.5L19.7,37.5z"/>
<path class="st1" d="M38.9,58.1c0,0.2,0,0.4,0,0.5s0.1,0.3,0.2,0.4c0.1,0.1,0.2,0.2,0.4,0.3c0.2,0.1,0.4,0.1,0.6,0.1
	c0.3,0,0.5-0.1,0.7-0.2c0.2-0.2,0.3-0.5,0.3-0.8c0-0.2,0-0.3-0.1-0.5c-0.1-0.1-0.1-0.3-0.3-0.4c-0.1-0.1-0.3-0.2-0.5-0.3
	s-0.5-0.2-0.7-0.3c-0.3-0.1-0.7-0.3-1-0.4c-0.3-0.1-0.5-0.3-0.7-0.5s-0.3-0.4-0.4-0.7c-0.1-0.3-0.1-0.6-0.1-0.9
	c-0.1-0.7,0.2-1.4,0.7-1.9c0.5-0.4,1.2-0.7,1.9-0.6c0.4,0,0.7,0,1,0.1c0.3,0.1,0.6,0.2,0.8,0.4c0.2,0.2,0.4,0.4,0.5,0.7
	c0.1,0.3,0.2,0.7,0.2,1v0.2h-1.6c0-0.3-0.1-0.7-0.2-0.9c-0.2-0.2-0.4-0.3-0.7-0.3c-0.2,0-0.3,0-0.5,0.1c-0.1,0.1-0.2,0.1-0.3,0.2
	C39,53.5,39,53.6,39,53.7s0,0.2,0,0.4s0,0.5,0.2,0.7s0.4,0.4,0.7,0.5l1.3,0.6c0.3,0.1,0.5,0.3,0.8,0.5c0.2,0.1,0.4,0.3,0.5,0.5
	c0.1,0.2,0.2,0.4,0.3,0.6c0.1,0.2,0.1,0.5,0.1,0.7c0.1,0.8-0.2,1.5-0.8,2c-0.6,0.4-1.4,0.7-2.2,0.6c-0.7,0.1-1.5-0.2-2.1-0.6
	c-0.4-0.5-0.7-1.1-0.6-1.8v-0.3L38.9,58.1L38.9,58.1z"/>
<path class="st1" d="M29.4,32.8h-1.9v7.1h-1.7v-7.1H24v-1.4h5.4V32.8z"/>
<path class="st1" d="M33.4,31.4l2.2,8.5h-1.8l-0.4-1.8h-2.3l-0.4,1.8h-1.8l2.2-8.5L33.4,31.4z M33.2,36.7l-0.8-3.8l0,0l-0.8,3.8
	H33.2z"/>
<path class="st1" d="M40.8,32.8H39v7.1h-1.8v-7.1h-1.9v-1.4h5.4L40.8,32.8L40.8,32.8z"/>
<path class="st1" d="M46.5,32.8h-3v2h2.8v1.4h-2.9v2.3h3.2v1.4h-4.9v-8.5h4.7L46.5,32.8z"/>
<path class="st1" d="M33.5,78.2h1.7v8.5h-1.7V78.2z"/>
<path class="st1" d="M40.7,84L40.7,84v-5.8h1.6v8.5h-1.9l-2.1-5.9l0,0v5.9h-1.6v-8.5h2L40.7,84z"/>
<path class="st1" d="M45.1,84.3c0,0.2,0,0.4,0,0.5s0.1,0.3,0.2,0.4c0.1,0.1,0.2,0.2,0.4,0.3c0.2,0.1,0.4,0.1,0.5,0.1
	c0.3,0,0.5-0.1,0.7-0.2c0.2-0.2,0.3-0.5,0.3-0.8c0-0.2,0-0.3-0.1-0.5C47,84,47,83.8,46.9,83.7c-0.1-0.1-0.3-0.2-0.5-0.3
	c-0.2-0.1-0.5-0.2-0.7-0.3c-0.3-0.1-0.7-0.3-1-0.4s-0.5-0.3-0.7-0.5s-0.3-0.4-0.4-0.7c-0.1-0.3-0.1-0.6-0.1-0.9
	c-0.1-0.7,0.2-1.4,0.7-1.9c0.5-0.4,1.2-0.7,1.9-0.6c0.4,0,0.7,0,1,0.1s0.6,0.2,0.8,0.4c0.2,0.2,0.4,0.4,0.5,0.7
	c0.1,0.3,0.2,0.7,0.2,1v0.2h-1.7c0-0.3-0.1-0.6-0.2-0.9c-0.2-0.2-0.4-0.4-0.7-0.3c-0.2,0-0.3,0-0.5,0.1c-0.1,0.1-0.2,0.1-0.3,0.2
	s-0.1,0.2-0.2,0.3c0,0.1,0,0.2,0,0.4c0,0.2,0,0.5,0.2,0.7s0.4,0.4,0.7,0.5l1.3,0.6c0.3,0.1,0.5,0.3,0.8,0.4c0.2,0.1,0.4,0.3,0.5,0.5
	s0.2,0.4,0.3,0.6s0.1,0.5,0.1,0.7c0.1,0.8-0.2,1.5-0.8,2c-0.6,0.4-1.4,0.7-2.2,0.6c-0.7,0.1-1.5-0.2-2.1-0.6
	c-0.4-0.5-0.7-1.1-0.6-1.8V84h1.7v0.3H45.1z"/>
<path class="st1" d="M54.9,79.6H53v7.1h-1.7v-7.1h-1.8v-1.4h5.4V79.6z"/>
<path class="st1" d="M55.9,78.2h1.7v8.5h-1.7V78.2z"/>
<path class="st1" d="M64.1,79.6h-1.8v7.1h-1.7v-7.1h-1.9v-1.4h5.4V79.6z"/>
<path class="st1" d="M66.7,84.1c0,0.2,0,0.4,0,0.6s0.1,0.3,0.2,0.5c0.1,0.1,0.2,0.2,0.3,0.3c0.1,0.1,0.3,0.1,0.5,0.1s0.3,0,0.5-0.1
	c0.1-0.1,0.2-0.2,0.3-0.3c0.1-0.1,0.1-0.3,0.2-0.5c0-0.2,0-0.4,0-0.6v-5.9h1.7v5.9c0,0.5-0.1,0.9-0.2,1.3c-0.1,0.3-0.3,0.6-0.6,0.8
	c-0.3,0.2-0.6,0.4-0.9,0.4c-0.3,0.1-0.7,0.1-1,0.1s-0.7,0-1-0.1s-0.6-0.2-0.9-0.4c-0.3-0.2-0.5-0.5-0.6-0.8C65,85,65,84.5,65,84
	v-5.9h1.7V84.1z"/>
<path class="st1" d="M76.7,79.6h-1.8v7.1h-1.8v-7.1h-1.8v-1.4h5.4C76.7,78.2,76.7,79.6,76.7,79.6z"/>
<path class="st1" d="M82.4,79.6h-3v2h2.8V83h-2.9v2.3h3.2v1.4h-4.9v-8.5h4.7L82.4,79.6z"/>
<g>
	<path class="st1" d="M32.3,52.1v3.4h0l2.2-3.4h1.9l-2.4,3.7l2.7,4.9h-2l-1.8-3.5l-0.7,1v2.5h-1.8v-8.6H32.3z"/>
</g>
</svg>
